G75*
G70*
%OFA0B0*%
%FSLAX24Y24*%
%IPPOS*%
%LPD*%
%AMOC8*
5,1,8,0,0,1.08239X$1,22.5*
%
%ADD10C,0.0080*%
%ADD11C,0.0100*%
%ADD12C,0.0120*%
%ADD13C,0.0110*%
%ADD14C,0.0000*%
%ADD15C,0.0060*%
%ADD16C,0.0050*%
%ADD17C,0.0020*%
%ADD18C,0.0160*%
%ADD19R,0.0160X0.0230*%
%ADD20C,0.0070*%
%ADD21R,0.0300X0.7300*%
%ADD22R,0.0200X1.2200*%
%ADD23R,0.2850X0.0320*%
%ADD24R,0.1850X0.0320*%
%ADD25C,0.0059*%
%ADD26C,0.0030*%
%ADD27R,0.0250X0.0900*%
%ADD28C,0.0010*%
%ADD29R,0.0900X0.0250*%
%ADD30C,0.0040*%
D10*
X000140Y000140D02*
X000140Y039510D01*
X052132Y039510D01*
X052132Y000140D01*
X000140Y000140D01*
X004900Y004668D02*
X004900Y005612D01*
X007380Y005612D01*
X007380Y004668D01*
X004900Y004668D01*
X014400Y004668D02*
X016880Y004668D01*
X016880Y005612D01*
X014400Y005612D01*
X014400Y004668D01*
X018640Y001890D02*
X018890Y002140D01*
X019390Y002140D01*
X019640Y001890D01*
X019890Y002140D01*
X020390Y002140D01*
X020640Y001890D01*
X020890Y002140D01*
X021390Y002140D01*
X021640Y001890D01*
X021890Y002140D01*
X022390Y002140D01*
X022640Y001890D01*
X022890Y002140D01*
X023390Y002140D01*
X023640Y001890D01*
X023640Y001390D01*
X023390Y001140D01*
X022890Y001140D01*
X022640Y001390D01*
X022390Y001140D01*
X021890Y001140D01*
X021640Y001390D01*
X021390Y001140D01*
X020890Y001140D01*
X020640Y001390D01*
X020390Y001140D01*
X019890Y001140D01*
X019640Y001390D01*
X019390Y001140D01*
X018890Y001140D01*
X018640Y001390D01*
X018640Y001890D01*
X020900Y004668D02*
X023380Y004668D01*
X023380Y005612D01*
X020900Y005612D01*
X020900Y004668D01*
X018777Y010390D02*
X018159Y010390D01*
X018159Y010884D02*
X018777Y010884D01*
X018900Y010760D01*
X018900Y010513D01*
X018777Y010390D01*
X018900Y011145D02*
X018900Y011639D01*
X018900Y011392D02*
X018159Y011392D01*
X018406Y011145D01*
X016880Y011612D02*
X016880Y010668D01*
X014400Y010668D01*
X014400Y011612D01*
X016880Y011612D01*
X016880Y012668D02*
X014400Y012668D01*
X014400Y013612D01*
X016880Y013612D01*
X016880Y012668D01*
X016880Y014668D02*
X014400Y014668D01*
X014400Y015612D01*
X016880Y015612D01*
X016880Y014668D01*
X016880Y016668D02*
X014400Y016668D01*
X014400Y017612D01*
X016880Y017612D01*
X016880Y016668D01*
X018990Y019815D02*
X018990Y021465D01*
X019540Y021527D02*
X019540Y021685D01*
X019540Y020753D02*
X019540Y020527D01*
X018990Y019815D02*
X019041Y019778D01*
X019094Y019743D01*
X019150Y019711D01*
X019207Y019683D01*
X019266Y019659D01*
X019326Y019638D01*
X019387Y019621D01*
X019449Y019607D01*
X019512Y019598D01*
X019575Y019592D01*
X019639Y019590D01*
X019703Y019592D01*
X019766Y019598D01*
X019829Y019607D01*
X019891Y019620D01*
X019952Y019638D01*
X020012Y019658D01*
X020071Y019683D01*
X020128Y019710D01*
X020184Y019742D01*
X020237Y019776D01*
X020288Y019814D01*
X020337Y019855D01*
X020383Y019899D01*
X020427Y019945D01*
X020468Y019994D01*
X020505Y020045D01*
X020540Y020099D01*
X020571Y020154D01*
X020599Y020211D01*
X020623Y020270D01*
X020643Y020330D01*
X020643Y020950D02*
X020623Y021010D01*
X020599Y021069D01*
X020571Y021126D01*
X020540Y021181D01*
X020505Y021235D01*
X020468Y021286D01*
X020427Y021335D01*
X020383Y021381D01*
X020337Y021425D01*
X020288Y021466D01*
X020237Y021504D01*
X020184Y021538D01*
X020128Y021569D01*
X020071Y021597D01*
X020012Y021622D01*
X019952Y021642D01*
X019891Y021660D01*
X019829Y021673D01*
X019766Y021682D01*
X019703Y021688D01*
X019639Y021690D01*
X019575Y021688D01*
X019512Y021682D01*
X019449Y021673D01*
X019387Y021659D01*
X019326Y021642D01*
X019266Y021621D01*
X019207Y021597D01*
X019150Y021569D01*
X019094Y021537D01*
X019041Y021502D01*
X018990Y021465D01*
X019540Y019753D02*
X019540Y019595D01*
X023400Y019168D02*
X023400Y020112D01*
X025880Y020112D01*
X025880Y019168D01*
X023400Y019168D01*
X023400Y020668D02*
X023400Y021612D01*
X025880Y021612D01*
X025880Y020668D01*
X023400Y020668D01*
X022900Y025168D02*
X025380Y025168D01*
X025380Y026112D01*
X022900Y026112D01*
X022900Y025168D01*
X022900Y027168D02*
X022900Y028112D01*
X025380Y028112D01*
X025380Y027168D01*
X022900Y027168D01*
X023640Y028840D02*
X023640Y029140D01*
X023540Y029140D01*
X023640Y029140D02*
X023640Y029440D01*
X025640Y029440D01*
X025640Y029140D01*
X025740Y029140D01*
X025640Y029140D02*
X025640Y028840D01*
X023640Y028840D01*
X023640Y030340D02*
X023640Y030640D01*
X023540Y030640D01*
X023640Y030640D02*
X023640Y030940D01*
X025640Y030940D01*
X025640Y030640D01*
X025740Y030640D01*
X025640Y030640D02*
X025640Y030340D01*
X023640Y030340D01*
X023890Y030390D02*
X023890Y030890D01*
X023940Y031840D02*
X023940Y032140D01*
X023640Y032140D01*
X023940Y032140D02*
X023940Y032440D01*
X025340Y032440D01*
X025340Y032140D01*
X025640Y032140D01*
X025340Y032140D02*
X025340Y031840D01*
X023940Y031840D01*
X024140Y031890D02*
X024140Y032390D01*
X023940Y032840D02*
X023940Y033140D01*
X023640Y033140D01*
X023940Y033140D02*
X023940Y033440D01*
X025340Y033440D01*
X025340Y033140D01*
X025640Y033140D01*
X025340Y033140D02*
X025340Y032840D01*
X023940Y032840D01*
X024140Y032890D02*
X024140Y033390D01*
X021850Y034943D02*
X021850Y035190D01*
X021727Y035314D01*
X021109Y035314D01*
X021480Y035575D02*
X021480Y036069D01*
X021850Y035945D02*
X021109Y035945D01*
X021480Y035575D01*
X021850Y034943D02*
X021727Y034820D01*
X021109Y034820D01*
X021251Y033618D02*
X021251Y031020D01*
X018652Y031020D01*
X018652Y033618D01*
X021251Y033618D01*
X016612Y031880D02*
X016612Y029400D01*
X015668Y029400D01*
X015668Y031880D01*
X016612Y031880D01*
X015112Y031880D02*
X015112Y029400D01*
X014168Y029400D01*
X014168Y031880D01*
X015112Y031880D01*
X013699Y033709D02*
X013699Y028581D01*
X008581Y028581D01*
X008581Y033709D01*
X013699Y033709D01*
X012410Y033089D02*
X012500Y033027D01*
X012588Y032961D01*
X012672Y032890D01*
X012753Y032815D01*
X012830Y032737D01*
X012904Y032656D01*
X012974Y032570D01*
X013039Y032482D01*
X013100Y032391D01*
X013157Y032296D01*
X013209Y032200D01*
X013257Y032101D01*
X013300Y031999D01*
X013338Y031896D01*
X013371Y031791D01*
X013399Y031685D01*
X013422Y031578D01*
X013440Y031469D01*
X013453Y031360D01*
X013461Y031250D01*
X013463Y031140D01*
X013460Y031026D01*
X013452Y030912D01*
X013437Y030799D01*
X013418Y030687D01*
X013393Y030576D01*
X013362Y030466D01*
X013326Y030358D01*
X013285Y030252D01*
X013239Y030148D01*
X013188Y030046D01*
X013131Y029947D01*
X013070Y029851D01*
X013005Y029758D01*
X012935Y029668D01*
X012860Y029582D01*
X012781Y029499D01*
X012699Y029421D01*
X012613Y029346D01*
X012523Y029276D01*
X012429Y029211D01*
X009870Y029191D02*
X009780Y029253D01*
X009692Y029319D01*
X009608Y029390D01*
X009527Y029465D01*
X009450Y029543D01*
X009376Y029624D01*
X009306Y029710D01*
X009241Y029798D01*
X009180Y029889D01*
X009123Y029984D01*
X009071Y030080D01*
X009023Y030179D01*
X008980Y030281D01*
X008942Y030384D01*
X008909Y030489D01*
X008881Y030595D01*
X008858Y030702D01*
X008840Y030811D01*
X008827Y030920D01*
X008819Y031030D01*
X008817Y031140D01*
X008820Y031254D01*
X008828Y031368D01*
X008843Y031481D01*
X008862Y031593D01*
X008887Y031704D01*
X008918Y031814D01*
X008954Y031922D01*
X008995Y032028D01*
X009041Y032132D01*
X009092Y032234D01*
X009149Y032333D01*
X009210Y032429D01*
X009275Y032522D01*
X009345Y032612D01*
X009420Y032698D01*
X009499Y032781D01*
X009581Y032859D01*
X009667Y032934D01*
X009757Y033004D01*
X009851Y033069D01*
X005600Y032945D02*
X005600Y032698D01*
X005477Y032575D01*
X005230Y032575D02*
X005106Y032822D01*
X005106Y032945D01*
X005230Y033069D01*
X005477Y033069D01*
X005600Y032945D01*
X005230Y032575D02*
X004859Y032575D01*
X004859Y033069D01*
X004859Y032314D02*
X005477Y032314D01*
X005600Y032190D01*
X005600Y031943D01*
X005477Y031820D01*
X004859Y031820D01*
X008815Y027290D02*
X010465Y027290D01*
X010527Y026740D02*
X010685Y026740D01*
X009753Y026740D02*
X009527Y026740D01*
X008815Y027290D02*
X008778Y027239D01*
X008743Y027186D01*
X008711Y027130D01*
X008683Y027073D01*
X008659Y027014D01*
X008638Y026954D01*
X008621Y026893D01*
X008607Y026831D01*
X008598Y026768D01*
X008592Y026705D01*
X008590Y026641D01*
X008592Y026577D01*
X008598Y026514D01*
X008607Y026451D01*
X008620Y026389D01*
X008638Y026328D01*
X008658Y026268D01*
X008683Y026209D01*
X008710Y026152D01*
X008742Y026096D01*
X008776Y026043D01*
X008814Y025992D01*
X008855Y025943D01*
X008899Y025897D01*
X008945Y025853D01*
X008994Y025812D01*
X009045Y025775D01*
X009099Y025740D01*
X009154Y025709D01*
X009211Y025681D01*
X009270Y025657D01*
X009330Y025637D01*
X009950Y025637D02*
X010010Y025657D01*
X010069Y025681D01*
X010126Y025709D01*
X010181Y025740D01*
X010235Y025775D01*
X010286Y025812D01*
X010335Y025853D01*
X010381Y025897D01*
X010425Y025943D01*
X010466Y025992D01*
X010504Y026043D01*
X010538Y026096D01*
X010569Y026152D01*
X010597Y026209D01*
X010622Y026268D01*
X010642Y026328D01*
X010660Y026389D01*
X010673Y026451D01*
X010682Y026514D01*
X010688Y026577D01*
X010690Y026641D01*
X010688Y026705D01*
X010682Y026768D01*
X010673Y026831D01*
X010659Y026893D01*
X010642Y026954D01*
X010621Y027014D01*
X010597Y027073D01*
X010569Y027130D01*
X010537Y027186D01*
X010502Y027239D01*
X010465Y027290D01*
X008753Y026740D02*
X008595Y026740D01*
X004640Y023940D02*
X004640Y023640D01*
X004740Y023640D01*
X004640Y023640D02*
X004640Y023340D01*
X002640Y023340D01*
X002640Y023640D01*
X002540Y023640D01*
X002640Y023640D02*
X002640Y023940D01*
X004640Y023940D01*
X004390Y023890D02*
X004390Y023390D01*
X005380Y022112D02*
X002900Y022112D01*
X002900Y021168D01*
X005380Y021168D01*
X005380Y022112D01*
X005380Y020612D02*
X002900Y020612D01*
X002900Y019668D01*
X005380Y019668D01*
X005380Y020612D01*
X008400Y020612D02*
X008400Y019668D01*
X010880Y019668D01*
X010880Y020612D01*
X008400Y020612D01*
X008400Y021168D02*
X010880Y021168D01*
X010880Y022112D01*
X008400Y022112D01*
X008400Y021168D01*
X013640Y025340D02*
X013640Y025640D01*
X013540Y025640D01*
X013640Y025640D02*
X013640Y025940D01*
X015640Y025940D01*
X015640Y025640D01*
X015740Y025640D01*
X015640Y025640D02*
X015640Y025340D01*
X013640Y025340D01*
X015390Y025390D02*
X015390Y025890D01*
X018040Y025640D02*
X018140Y025640D01*
X018140Y025940D01*
X020140Y025940D01*
X020140Y025640D01*
X020240Y025640D01*
X020140Y025640D02*
X020140Y025340D01*
X018140Y025340D01*
X018140Y025640D01*
X018390Y025390D02*
X018390Y025890D01*
X025390Y028890D02*
X025390Y029390D01*
X026859Y030320D02*
X027477Y030320D01*
X027600Y030443D01*
X027600Y030690D01*
X027477Y030814D01*
X026859Y030814D01*
X026983Y031075D02*
X026859Y031198D01*
X026859Y031445D01*
X026983Y031569D01*
X027106Y031569D01*
X027600Y031075D01*
X027600Y031569D01*
X030340Y033140D02*
X030640Y033140D01*
X030640Y033040D01*
X030640Y033140D02*
X030940Y033140D01*
X030940Y035140D01*
X030640Y035140D01*
X030640Y035240D01*
X030640Y035140D02*
X030340Y035140D01*
X030340Y033140D01*
X030390Y034890D02*
X030890Y034890D01*
X028880Y037168D02*
X026400Y037168D01*
X026400Y038112D01*
X028880Y038112D01*
X028880Y037168D01*
X032168Y029880D02*
X032168Y027400D01*
X033112Y027400D01*
X033112Y029880D01*
X032168Y029880D01*
X030940Y029140D02*
X030940Y027140D01*
X030640Y027140D01*
X030640Y027040D01*
X030640Y027140D02*
X030340Y027140D01*
X030340Y029140D01*
X030640Y029140D01*
X030640Y029240D01*
X030640Y029140D02*
X030940Y029140D01*
X030890Y028890D02*
X030390Y028890D01*
X034168Y029880D02*
X034168Y027400D01*
X035112Y027400D01*
X035112Y029880D01*
X034168Y029880D01*
X033380Y024112D02*
X030900Y024112D01*
X030900Y023168D01*
X033380Y023168D01*
X033380Y024112D01*
X033380Y022112D02*
X030900Y022112D01*
X030900Y021168D01*
X033380Y021168D01*
X033380Y022112D01*
X033380Y020112D02*
X030900Y020112D01*
X030900Y019168D01*
X033380Y019168D01*
X033380Y020112D01*
X034900Y017612D02*
X037380Y017612D01*
X037380Y016668D01*
X034900Y016668D01*
X034900Y017612D01*
X035880Y003112D02*
X033400Y003112D01*
X033400Y002168D01*
X035880Y002168D01*
X035880Y003112D01*
X028950Y001247D02*
X028950Y000753D01*
X028827Y000629D01*
X028580Y000629D01*
X028456Y000753D01*
X028456Y001247D01*
X028580Y001370D01*
X028827Y001370D01*
X028950Y001247D01*
X028703Y001123D02*
X028456Y001370D01*
X028195Y001370D02*
X027701Y001370D01*
X027948Y001370D02*
X027948Y000629D01*
X028195Y000876D01*
D11*
X032840Y005040D02*
X033140Y005040D01*
X033440Y005040D01*
X033440Y005240D02*
X033140Y005240D01*
X032840Y005240D01*
X035840Y005240D02*
X036140Y005240D01*
X036440Y005240D01*
X036440Y005040D02*
X036140Y005040D01*
X035840Y005040D01*
X018740Y003440D02*
X018740Y003140D01*
X018740Y002840D01*
X018540Y002840D02*
X018540Y003140D01*
X018540Y003440D01*
X012140Y010640D02*
X012140Y018640D01*
X000640Y018640D01*
X000640Y010640D01*
X012140Y010640D01*
X037640Y034140D02*
X045640Y034140D01*
X045640Y038140D01*
X037640Y038140D01*
X037640Y034140D01*
D12*
X040300Y037150D02*
X040640Y037150D01*
X040754Y037263D01*
X040754Y037717D01*
X040640Y037831D01*
X040300Y037831D01*
X040300Y037150D01*
X041037Y037150D02*
X041037Y037831D01*
X041490Y037831D01*
X041773Y037831D02*
X041773Y037150D01*
X042227Y037150D01*
X042510Y037150D02*
X042510Y037604D01*
X042737Y037831D01*
X042964Y037604D01*
X042964Y037150D01*
X042964Y037490D02*
X042510Y037490D01*
X041490Y037150D02*
X041037Y037150D01*
X041037Y037490D02*
X041263Y037490D01*
X043247Y037717D02*
X043473Y037490D01*
X043473Y037150D01*
X043473Y037490D02*
X043700Y037717D01*
X043700Y037831D01*
X043247Y037831D02*
X043247Y037717D01*
X034864Y037813D02*
X034750Y037700D01*
X034523Y037700D01*
X034410Y037813D01*
X034523Y038040D02*
X034750Y038040D01*
X034864Y037927D01*
X034864Y037813D01*
X034523Y038040D02*
X034410Y038154D01*
X034410Y038267D01*
X034523Y038381D01*
X034750Y038381D01*
X034864Y038267D01*
X034127Y038154D02*
X034127Y037700D01*
X034164Y037381D02*
X034505Y037381D01*
X034618Y037267D01*
X034618Y037040D01*
X034505Y036927D01*
X034164Y036927D01*
X034164Y036700D02*
X034164Y037381D01*
X033900Y037381D02*
X033673Y037381D01*
X033787Y037381D02*
X033787Y036700D01*
X033900Y036700D02*
X033673Y036700D01*
X033390Y036700D02*
X033050Y037040D01*
X032937Y036927D02*
X033390Y037381D01*
X033390Y037700D02*
X032937Y037700D01*
X032937Y038381D01*
X033390Y038381D01*
X033673Y038154D02*
X033900Y038381D01*
X034127Y038154D01*
X034127Y038040D02*
X033673Y038040D01*
X033673Y038154D02*
X033673Y037700D01*
X033163Y038040D02*
X032937Y038040D01*
X032654Y037700D02*
X032654Y038381D01*
X032427Y038154D01*
X032200Y038381D01*
X032200Y037700D01*
X032313Y037381D02*
X032200Y037267D01*
X032200Y037154D01*
X032313Y037040D01*
X032540Y037040D01*
X032654Y036927D01*
X032654Y036813D01*
X032540Y036700D01*
X032313Y036700D01*
X032200Y036813D01*
X032313Y037381D02*
X032540Y037381D01*
X032654Y037267D01*
X032937Y037381D02*
X032937Y036700D01*
X022390Y030760D02*
X022140Y030760D01*
X021890Y030760D01*
X021890Y030510D02*
X022140Y030510D01*
X022390Y030510D01*
X017890Y030510D02*
X017640Y030510D01*
X017390Y030510D01*
X017390Y030760D02*
X017640Y030760D01*
X017890Y030760D01*
X010270Y034390D02*
X010270Y034640D01*
X010270Y034890D01*
X010020Y034890D02*
X010020Y034640D01*
X010020Y034390D01*
X006760Y030890D02*
X006760Y030640D01*
X006760Y030390D01*
X006510Y030390D02*
X006510Y030640D01*
X006510Y030890D01*
X005940Y027770D02*
X005340Y027770D01*
X005340Y027520D02*
X005940Y027520D01*
X015700Y009881D02*
X016040Y009881D01*
X016154Y009767D01*
X016154Y009540D01*
X016040Y009427D01*
X015700Y009427D01*
X015927Y009427D02*
X016154Y009200D01*
X016437Y009313D02*
X016550Y009200D01*
X016777Y009200D01*
X016890Y009313D01*
X016890Y009427D01*
X016777Y009540D01*
X016550Y009540D01*
X016437Y009654D01*
X016437Y009767D01*
X016550Y009881D01*
X016777Y009881D01*
X016890Y009767D01*
X017173Y009881D02*
X017627Y009881D01*
X017400Y009881D02*
X017400Y009200D01*
X015700Y009200D02*
X015700Y009881D01*
X011260Y008890D02*
X011260Y008640D01*
X011260Y008390D01*
X011010Y008390D02*
X011010Y008640D01*
X011010Y008890D01*
X020010Y007390D02*
X020010Y007140D01*
X020010Y006890D01*
X020260Y006890D02*
X020260Y007140D01*
X020260Y007390D01*
X027010Y004890D02*
X027010Y004640D01*
X027010Y004390D01*
X027260Y004390D02*
X027260Y004640D01*
X027260Y004890D01*
X031020Y007390D02*
X031020Y007640D01*
X031020Y007890D01*
X031270Y007890D02*
X031270Y007640D01*
X031270Y007390D01*
X027005Y001381D02*
X027118Y001267D01*
X027118Y001040D01*
X027005Y000927D01*
X026664Y000927D01*
X026664Y000700D02*
X026664Y001381D01*
X027005Y001381D01*
X026381Y001267D02*
X026268Y001381D01*
X026041Y001381D01*
X025928Y001267D01*
X025928Y001154D01*
X026041Y001040D01*
X026268Y001040D01*
X026381Y000927D01*
X026381Y000813D01*
X026268Y000700D01*
X026041Y000700D01*
X025928Y000813D01*
X025645Y000813D02*
X025531Y000700D01*
X025305Y000700D01*
X025191Y000813D01*
X025191Y001267D01*
X025305Y001381D01*
X025531Y001381D01*
X025645Y001267D01*
X024927Y001381D02*
X024700Y001381D01*
X024813Y001381D02*
X024813Y000700D01*
X024700Y000700D02*
X024927Y000700D01*
X038700Y004200D02*
X039040Y004200D01*
X039154Y004313D01*
X039154Y004767D01*
X039040Y004881D01*
X038700Y004881D01*
X038700Y004200D01*
X039437Y004200D02*
X039437Y004654D01*
X039663Y004881D01*
X039890Y004654D01*
X039890Y004200D01*
X040173Y004200D02*
X040173Y004881D01*
X040627Y004200D01*
X040627Y004881D01*
X040910Y004881D02*
X041137Y004881D01*
X041023Y004881D02*
X041023Y004200D01*
X040910Y004200D02*
X041137Y004200D01*
X041401Y004200D02*
X041855Y004200D01*
X042138Y004200D02*
X042138Y004881D01*
X041855Y004881D02*
X041401Y004881D01*
X041401Y004200D01*
X041401Y004540D02*
X041628Y004540D01*
X042138Y004200D02*
X042591Y004200D01*
X042874Y004200D02*
X042874Y004881D01*
X043328Y004881D01*
X043101Y004540D02*
X042874Y004540D01*
X042874Y004200D02*
X043328Y004200D01*
X044347Y004313D02*
X044461Y004200D01*
X044688Y004200D01*
X044801Y004313D01*
X045084Y004313D02*
X045084Y004767D01*
X045198Y004881D01*
X045424Y004881D01*
X045538Y004767D01*
X045538Y004313D01*
X045424Y004200D01*
X045198Y004200D01*
X045084Y004313D01*
X044801Y004767D02*
X044688Y004881D01*
X044461Y004881D01*
X044347Y004767D01*
X044347Y004313D01*
X045821Y004313D02*
X045934Y004200D01*
X046161Y004200D01*
X046274Y004313D01*
X046274Y004427D01*
X046161Y004540D01*
X045934Y004540D01*
X045821Y004654D01*
X045821Y004767D01*
X045934Y004881D01*
X046161Y004881D01*
X046274Y004767D01*
X046557Y004881D02*
X047011Y004881D01*
X046784Y004881D02*
X046784Y004200D01*
X047294Y004200D02*
X047294Y004654D01*
X047521Y004881D01*
X047748Y004654D01*
X047748Y004200D01*
X048031Y004200D02*
X048031Y004881D01*
X048371Y004881D01*
X048484Y004767D01*
X048484Y004540D01*
X048371Y004427D01*
X048031Y004427D01*
X048257Y004427D02*
X048484Y004200D01*
X048767Y004200D02*
X048767Y004881D01*
X049221Y004881D01*
X049504Y004881D02*
X049504Y004200D01*
X049958Y004200D01*
X050241Y004200D02*
X050694Y004200D01*
X050977Y004200D02*
X050977Y004654D01*
X051204Y004881D01*
X051431Y004654D01*
X051431Y004200D01*
X051431Y004540D02*
X050977Y004540D01*
X050241Y004200D02*
X050241Y004881D01*
X049221Y004200D02*
X048767Y004200D01*
X048767Y004540D02*
X048994Y004540D01*
X047748Y004540D02*
X047294Y004540D01*
X044924Y005700D02*
X044924Y006381D01*
X044924Y006154D02*
X044584Y006154D01*
X044470Y006040D01*
X044470Y005813D01*
X044584Y005700D01*
X044924Y005700D01*
X044197Y006154D02*
X044083Y006154D01*
X043856Y005927D01*
X043856Y005700D02*
X043856Y006154D01*
X043573Y006040D02*
X043573Y005700D01*
X043233Y005700D01*
X043120Y005813D01*
X043233Y005927D01*
X043573Y005927D01*
X043573Y006040D02*
X043460Y006154D01*
X043233Y006154D01*
X042837Y006040D02*
X042723Y006154D01*
X042497Y006154D01*
X042383Y006040D01*
X042383Y005813D01*
X042497Y005700D01*
X042723Y005700D01*
X042837Y005813D01*
X042837Y006040D01*
X042601Y006473D02*
X042487Y006473D01*
X042601Y006473D02*
X042714Y006587D01*
X042714Y007154D01*
X042260Y007154D02*
X042260Y006813D01*
X042374Y006700D01*
X042714Y006700D01*
X041977Y006700D02*
X041637Y006700D01*
X041524Y006813D01*
X041524Y007040D01*
X041637Y007154D01*
X041977Y007154D01*
X041977Y006587D01*
X041864Y006473D01*
X041751Y006473D01*
X041647Y006381D02*
X041647Y005700D01*
X041987Y005700D01*
X042100Y005813D01*
X042100Y006040D01*
X041987Y006154D01*
X041647Y006154D01*
X041364Y006040D02*
X041250Y006154D01*
X041023Y006154D01*
X040910Y006040D01*
X040910Y005813D01*
X041023Y005700D01*
X041250Y005700D01*
X041364Y005813D01*
X041364Y006040D01*
X040627Y006040D02*
X040514Y006154D01*
X040400Y006040D01*
X040400Y005700D01*
X040173Y005700D02*
X040173Y006154D01*
X040287Y006154D01*
X040400Y006040D01*
X040627Y006040D02*
X040627Y005700D01*
X039890Y005927D02*
X039437Y005927D01*
X039437Y006040D02*
X039550Y006154D01*
X039777Y006154D01*
X039890Y006040D01*
X039890Y005927D01*
X039777Y005700D02*
X039550Y005700D01*
X039437Y005813D01*
X039437Y006040D01*
X039154Y006154D02*
X038813Y006154D01*
X038700Y006040D01*
X038700Y005813D01*
X038813Y005700D01*
X039154Y005700D01*
X039154Y006381D01*
X039040Y006700D02*
X038813Y006700D01*
X038700Y006813D01*
X038700Y007040D01*
X038813Y007154D01*
X039040Y007154D01*
X039154Y007040D01*
X039154Y006927D01*
X038700Y006927D01*
X039437Y006700D02*
X039437Y007154D01*
X039777Y007154D01*
X039890Y007040D01*
X039890Y006700D01*
X040173Y006813D02*
X040173Y007040D01*
X040287Y007154D01*
X040514Y007154D01*
X040627Y007040D01*
X040627Y006927D01*
X040173Y006927D01*
X040173Y006813D02*
X040287Y006700D01*
X040514Y006700D01*
X040910Y006700D02*
X040910Y007154D01*
X040910Y006927D02*
X041137Y007154D01*
X041250Y007154D01*
X043734Y007040D02*
X043847Y007154D01*
X044074Y007154D01*
X044187Y007040D01*
X044187Y006700D01*
X044470Y006813D02*
X044584Y006927D01*
X044924Y006927D01*
X044924Y007040D02*
X044924Y006700D01*
X044584Y006700D01*
X044470Y006813D01*
X044584Y007154D02*
X044811Y007154D01*
X044924Y007040D01*
X045207Y006927D02*
X045434Y007154D01*
X045547Y007154D01*
X045821Y007154D02*
X046048Y006700D01*
X046274Y007154D01*
X046557Y007040D02*
X046557Y006813D01*
X046671Y006700D01*
X046898Y006700D01*
X047011Y006927D02*
X046557Y006927D01*
X046557Y007040D02*
X046671Y007154D01*
X046898Y007154D01*
X047011Y007040D01*
X047011Y006927D01*
X047294Y007040D02*
X047407Y007154D01*
X047748Y007154D01*
X047634Y006927D02*
X047407Y006927D01*
X047294Y007040D01*
X047294Y006700D02*
X047634Y006700D01*
X047748Y006813D01*
X047634Y006927D01*
X048031Y007154D02*
X048257Y007154D01*
X048144Y007267D02*
X048144Y006813D01*
X048257Y006700D01*
X048522Y006700D02*
X048749Y006700D01*
X048635Y006700D02*
X048635Y007154D01*
X048522Y007154D01*
X048635Y007381D02*
X048635Y007494D01*
X049013Y007154D02*
X049353Y007154D01*
X049467Y007040D01*
X049467Y006700D01*
X049749Y006813D02*
X049863Y006700D01*
X050203Y006700D01*
X050203Y006587D02*
X050203Y007154D01*
X049863Y007154D01*
X049749Y007040D01*
X049749Y006813D01*
X049976Y006473D02*
X050090Y006473D01*
X050203Y006587D01*
X049013Y006700D02*
X049013Y007154D01*
X045207Y007154D02*
X045207Y006700D01*
X043734Y006700D02*
X043734Y007381D01*
X046520Y010390D02*
X046520Y010640D01*
X046520Y010890D01*
X046770Y010890D02*
X046770Y010640D01*
X046770Y010390D01*
X039890Y004540D02*
X039437Y004540D01*
X028770Y016890D02*
X028770Y017140D01*
X028770Y017390D01*
X028520Y017390D02*
X028520Y017140D01*
X028520Y016890D01*
D13*
X018392Y001786D02*
X018195Y001589D01*
X018392Y001786D02*
X018392Y001195D01*
X018195Y001195D02*
X018589Y001195D01*
X004667Y011293D02*
X004568Y011195D01*
X004372Y011195D01*
X004273Y011293D01*
X004667Y011687D01*
X004667Y011293D01*
X004273Y011293D02*
X004273Y011687D01*
X004372Y011786D01*
X004568Y011786D01*
X004667Y011687D01*
X004022Y011687D02*
X003629Y011293D01*
X003629Y011195D01*
X003378Y011195D02*
X003378Y011786D01*
X003181Y011589D01*
X002984Y011786D01*
X002984Y011195D01*
X002536Y011490D02*
X002340Y011490D01*
X002089Y011490D02*
X002089Y011687D01*
X001990Y011786D01*
X001695Y011786D01*
X001695Y011195D01*
X001695Y011392D02*
X001990Y011392D01*
X002089Y011490D01*
X001892Y011392D02*
X002089Y011195D01*
X002340Y011195D02*
X002340Y011786D01*
X002733Y011786D01*
X003629Y011786D02*
X004022Y011786D01*
X004022Y011687D01*
X001085Y032195D02*
X000494Y032195D01*
X000494Y032490D01*
X000593Y032589D01*
X000987Y032589D01*
X001085Y032490D01*
X001085Y032195D01*
X000987Y032840D02*
X001085Y032938D01*
X001085Y033135D01*
X000987Y033233D01*
X000987Y032840D02*
X000593Y032840D01*
X000494Y032938D01*
X000494Y033135D01*
X000593Y033233D01*
X000494Y034129D02*
X000494Y034325D01*
X000494Y034227D02*
X001085Y034227D01*
X001085Y034129D02*
X001085Y034325D01*
X001085Y034558D02*
X000494Y034558D01*
X001085Y034952D01*
X000494Y034952D01*
X003695Y038195D02*
X003695Y038786D01*
X003990Y038786D01*
X004089Y038687D01*
X004089Y038490D01*
X003990Y038392D01*
X003695Y038392D01*
X004340Y038195D02*
X004536Y038195D01*
X004438Y038195D02*
X004438Y038786D01*
X004340Y038786D02*
X004536Y038786D01*
X004769Y038786D02*
X004769Y038195D01*
X005163Y038195D01*
X005414Y038195D02*
X005807Y038195D01*
X006058Y038293D02*
X006157Y038195D01*
X006354Y038195D01*
X006452Y038293D01*
X006452Y038687D01*
X006354Y038786D01*
X006157Y038786D01*
X006058Y038687D01*
X006058Y038293D01*
X005807Y038687D02*
X005414Y038293D01*
X005414Y038195D01*
X004966Y038490D02*
X004769Y038490D01*
X004769Y038786D02*
X005163Y038786D01*
X005414Y038786D02*
X005807Y038786D01*
X005807Y038687D01*
X007695Y038687D02*
X007695Y038589D01*
X007793Y038490D01*
X007990Y038490D01*
X008089Y038392D01*
X008089Y038293D01*
X007990Y038195D01*
X007793Y038195D01*
X007695Y038293D01*
X007695Y038687D02*
X007793Y038786D01*
X007990Y038786D01*
X008089Y038687D01*
X008340Y038687D02*
X008340Y038293D01*
X008438Y038195D01*
X008635Y038195D01*
X008733Y038293D01*
X008733Y038687D01*
X008635Y038786D01*
X008438Y038786D01*
X008340Y038687D01*
X008984Y038786D02*
X008984Y038195D01*
X009378Y038195D01*
X009629Y038195D02*
X009629Y038589D01*
X009825Y038786D01*
X010022Y038589D01*
X010022Y038195D01*
X010273Y038195D02*
X010273Y038786D01*
X010568Y038786D01*
X010667Y038687D01*
X010667Y038490D01*
X010568Y038392D01*
X010273Y038392D01*
X010470Y038392D02*
X010667Y038195D01*
X010022Y038490D02*
X009629Y038490D01*
X011695Y038786D02*
X012089Y038786D01*
X011892Y038786D02*
X011892Y038195D01*
X012340Y038195D02*
X012340Y038786D01*
X012733Y038786D01*
X012984Y038687D02*
X012984Y038293D01*
X013083Y038195D01*
X013279Y038195D01*
X013378Y038293D01*
X013378Y038490D01*
X013181Y038490D01*
X013378Y038687D02*
X013279Y038786D01*
X013083Y038786D01*
X012984Y038687D01*
X012536Y038490D02*
X012340Y038490D01*
X012340Y038195D02*
X012733Y038195D01*
D14*
X001540Y037640D02*
X001542Y037689D01*
X001548Y037737D01*
X001558Y037785D01*
X001572Y037832D01*
X001589Y037878D01*
X001610Y037922D01*
X001635Y037964D01*
X001663Y038004D01*
X001695Y038042D01*
X001729Y038077D01*
X001766Y038109D01*
X001805Y038138D01*
X001847Y038164D01*
X001891Y038186D01*
X001936Y038204D01*
X001983Y038219D01*
X002030Y038230D01*
X002079Y038237D01*
X002128Y038240D01*
X002177Y038239D01*
X002225Y038234D01*
X002274Y038225D01*
X002321Y038212D01*
X002367Y038195D01*
X002411Y038175D01*
X002454Y038151D01*
X002495Y038124D01*
X002533Y038093D01*
X002569Y038060D01*
X002601Y038024D01*
X002631Y037985D01*
X002658Y037944D01*
X002681Y037900D01*
X002700Y037855D01*
X002716Y037809D01*
X002728Y037762D01*
X002736Y037713D01*
X002740Y037664D01*
X002740Y037616D01*
X002736Y037567D01*
X002728Y037518D01*
X002716Y037471D01*
X002700Y037425D01*
X002681Y037380D01*
X002658Y037336D01*
X002631Y037295D01*
X002601Y037256D01*
X002569Y037220D01*
X002533Y037187D01*
X002495Y037156D01*
X002454Y037129D01*
X002411Y037105D01*
X002367Y037085D01*
X002321Y037068D01*
X002274Y037055D01*
X002225Y037046D01*
X002177Y037041D01*
X002128Y037040D01*
X002079Y037043D01*
X002030Y037050D01*
X001983Y037061D01*
X001936Y037076D01*
X001891Y037094D01*
X001847Y037116D01*
X001805Y037142D01*
X001766Y037171D01*
X001729Y037203D01*
X001695Y037238D01*
X001663Y037276D01*
X001635Y037316D01*
X001610Y037358D01*
X001589Y037402D01*
X001572Y037448D01*
X001558Y037495D01*
X001548Y037543D01*
X001542Y037591D01*
X001540Y037640D01*
X019160Y012260D02*
X019181Y012258D01*
X019201Y012253D01*
X019220Y012244D01*
X019237Y012232D01*
X019252Y012217D01*
X019264Y012200D01*
X019273Y012181D01*
X019278Y012161D01*
X019280Y012140D01*
X019278Y012119D01*
X019273Y012099D01*
X019264Y012080D01*
X019252Y012063D01*
X019237Y012048D01*
X019220Y012036D01*
X019201Y012027D01*
X019181Y012022D01*
X019160Y012020D01*
X026120Y002640D02*
X026122Y002577D01*
X026128Y002514D01*
X026138Y002452D01*
X026152Y002390D01*
X026170Y002329D01*
X026191Y002270D01*
X026216Y002212D01*
X026244Y002156D01*
X026276Y002101D01*
X026311Y002048D01*
X026349Y001998D01*
X026391Y001950D01*
X026435Y001905D01*
X026482Y001863D01*
X026531Y001824D01*
X026583Y001787D01*
X026637Y001755D01*
X026692Y001725D01*
X026750Y001699D01*
X026809Y001676D01*
X026869Y001658D01*
X026931Y001642D01*
X026993Y001631D01*
X027056Y001624D01*
X027119Y001620D01*
X027182Y001621D01*
X027245Y001625D01*
X027307Y001633D01*
X027369Y001645D01*
X027431Y001661D01*
X027491Y001680D01*
X027549Y001704D01*
X027607Y001730D01*
X027662Y001761D01*
X027715Y001794D01*
X027767Y001831D01*
X027816Y001871D01*
X027862Y001914D01*
X027906Y001960D01*
X027946Y002008D01*
X027984Y002059D01*
X028019Y002111D01*
X028050Y002166D01*
X028078Y002223D01*
X028102Y002281D01*
X028122Y002341D01*
X028139Y002402D01*
X028152Y002464D01*
X028161Y002526D01*
X028167Y002589D01*
X028168Y002652D01*
X028165Y002716D01*
X028159Y002778D01*
X028149Y002841D01*
X028135Y002902D01*
X028117Y002963D01*
X028096Y003022D01*
X028070Y003080D01*
X026220Y003090D02*
X026197Y003036D01*
X026177Y002982D01*
X026160Y002926D01*
X026145Y002870D01*
X026134Y002813D01*
X026126Y002755D01*
X026122Y002698D01*
X026120Y002640D01*
X049540Y002140D02*
X049542Y002189D01*
X049548Y002237D01*
X049558Y002285D01*
X049572Y002332D01*
X049589Y002378D01*
X049610Y002422D01*
X049635Y002464D01*
X049663Y002504D01*
X049695Y002542D01*
X049729Y002577D01*
X049766Y002609D01*
X049805Y002638D01*
X049847Y002664D01*
X049891Y002686D01*
X049936Y002704D01*
X049983Y002719D01*
X050030Y002730D01*
X050079Y002737D01*
X050128Y002740D01*
X050177Y002739D01*
X050225Y002734D01*
X050274Y002725D01*
X050321Y002712D01*
X050367Y002695D01*
X050411Y002675D01*
X050454Y002651D01*
X050495Y002624D01*
X050533Y002593D01*
X050569Y002560D01*
X050601Y002524D01*
X050631Y002485D01*
X050658Y002444D01*
X050681Y002400D01*
X050700Y002355D01*
X050716Y002309D01*
X050728Y002262D01*
X050736Y002213D01*
X050740Y002164D01*
X050740Y002116D01*
X050736Y002067D01*
X050728Y002018D01*
X050716Y001971D01*
X050700Y001925D01*
X050681Y001880D01*
X050658Y001836D01*
X050631Y001795D01*
X050601Y001756D01*
X050569Y001720D01*
X050533Y001687D01*
X050495Y001656D01*
X050454Y001629D01*
X050411Y001605D01*
X050367Y001585D01*
X050321Y001568D01*
X050274Y001555D01*
X050225Y001546D01*
X050177Y001541D01*
X050128Y001540D01*
X050079Y001543D01*
X050030Y001550D01*
X049983Y001561D01*
X049936Y001576D01*
X049891Y001594D01*
X049847Y001616D01*
X049805Y001642D01*
X049766Y001671D01*
X049729Y001703D01*
X049695Y001738D01*
X049663Y001776D01*
X049635Y001816D01*
X049610Y001858D01*
X049589Y001902D01*
X049572Y001948D01*
X049558Y001995D01*
X049548Y002043D01*
X049542Y002091D01*
X049540Y002140D01*
X049540Y037640D02*
X049542Y037689D01*
X049548Y037737D01*
X049558Y037785D01*
X049572Y037832D01*
X049589Y037878D01*
X049610Y037922D01*
X049635Y037964D01*
X049663Y038004D01*
X049695Y038042D01*
X049729Y038077D01*
X049766Y038109D01*
X049805Y038138D01*
X049847Y038164D01*
X049891Y038186D01*
X049936Y038204D01*
X049983Y038219D01*
X050030Y038230D01*
X050079Y038237D01*
X050128Y038240D01*
X050177Y038239D01*
X050225Y038234D01*
X050274Y038225D01*
X050321Y038212D01*
X050367Y038195D01*
X050411Y038175D01*
X050454Y038151D01*
X050495Y038124D01*
X050533Y038093D01*
X050569Y038060D01*
X050601Y038024D01*
X050631Y037985D01*
X050658Y037944D01*
X050681Y037900D01*
X050700Y037855D01*
X050716Y037809D01*
X050728Y037762D01*
X050736Y037713D01*
X050740Y037664D01*
X050740Y037616D01*
X050736Y037567D01*
X050728Y037518D01*
X050716Y037471D01*
X050700Y037425D01*
X050681Y037380D01*
X050658Y037336D01*
X050631Y037295D01*
X050601Y037256D01*
X050569Y037220D01*
X050533Y037187D01*
X050495Y037156D01*
X050454Y037129D01*
X050411Y037105D01*
X050367Y037085D01*
X050321Y037068D01*
X050274Y037055D01*
X050225Y037046D01*
X050177Y037041D01*
X050128Y037040D01*
X050079Y037043D01*
X050030Y037050D01*
X049983Y037061D01*
X049936Y037076D01*
X049891Y037094D01*
X049847Y037116D01*
X049805Y037142D01*
X049766Y037171D01*
X049729Y037203D01*
X049695Y037238D01*
X049663Y037276D01*
X049635Y037316D01*
X049610Y037358D01*
X049589Y037402D01*
X049572Y037448D01*
X049558Y037495D01*
X049548Y037543D01*
X049542Y037591D01*
X049540Y037640D01*
X001540Y002140D02*
X001542Y002189D01*
X001548Y002237D01*
X001558Y002285D01*
X001572Y002332D01*
X001589Y002378D01*
X001610Y002422D01*
X001635Y002464D01*
X001663Y002504D01*
X001695Y002542D01*
X001729Y002577D01*
X001766Y002609D01*
X001805Y002638D01*
X001847Y002664D01*
X001891Y002686D01*
X001936Y002704D01*
X001983Y002719D01*
X002030Y002730D01*
X002079Y002737D01*
X002128Y002740D01*
X002177Y002739D01*
X002225Y002734D01*
X002274Y002725D01*
X002321Y002712D01*
X002367Y002695D01*
X002411Y002675D01*
X002454Y002651D01*
X002495Y002624D01*
X002533Y002593D01*
X002569Y002560D01*
X002601Y002524D01*
X002631Y002485D01*
X002658Y002444D01*
X002681Y002400D01*
X002700Y002355D01*
X002716Y002309D01*
X002728Y002262D01*
X002736Y002213D01*
X002740Y002164D01*
X002740Y002116D01*
X002736Y002067D01*
X002728Y002018D01*
X002716Y001971D01*
X002700Y001925D01*
X002681Y001880D01*
X002658Y001836D01*
X002631Y001795D01*
X002601Y001756D01*
X002569Y001720D01*
X002533Y001687D01*
X002495Y001656D01*
X002454Y001629D01*
X002411Y001605D01*
X002367Y001585D01*
X002321Y001568D01*
X002274Y001555D01*
X002225Y001546D01*
X002177Y001541D01*
X002128Y001540D01*
X002079Y001543D01*
X002030Y001550D01*
X001983Y001561D01*
X001936Y001576D01*
X001891Y001594D01*
X001847Y001616D01*
X001805Y001642D01*
X001766Y001671D01*
X001729Y001703D01*
X001695Y001738D01*
X001663Y001776D01*
X001635Y001816D01*
X001610Y001858D01*
X001589Y001902D01*
X001572Y001948D01*
X001558Y001995D01*
X001548Y002043D01*
X001542Y002091D01*
X001540Y002140D01*
D15*
X009690Y008240D02*
X009690Y009040D01*
X009692Y009057D01*
X009696Y009074D01*
X009703Y009090D01*
X009713Y009104D01*
X009726Y009117D01*
X009740Y009127D01*
X009756Y009134D01*
X009773Y009138D01*
X009790Y009140D01*
X012490Y009140D01*
X012507Y009138D01*
X012524Y009134D01*
X012540Y009127D01*
X012554Y009117D01*
X012567Y009104D01*
X012577Y009090D01*
X012584Y009074D01*
X012588Y009057D01*
X012590Y009040D01*
X012590Y008240D01*
X012588Y008223D01*
X012584Y008206D01*
X012577Y008190D01*
X012567Y008176D01*
X012554Y008163D01*
X012540Y008153D01*
X012524Y008146D01*
X012507Y008142D01*
X012490Y008140D01*
X009790Y008140D01*
X009773Y008142D01*
X009756Y008146D01*
X009740Y008153D01*
X009726Y008163D01*
X009713Y008176D01*
X009703Y008190D01*
X009696Y008206D01*
X009692Y008223D01*
X009690Y008240D01*
X010540Y008640D02*
X011010Y008640D01*
X011260Y008640D02*
X011740Y008640D01*
X014340Y007940D02*
X014340Y007340D01*
X014440Y007340D01*
X014440Y007240D01*
X014440Y007940D02*
X014340Y007940D01*
X014440Y007940D02*
X014440Y008040D01*
X014790Y008840D02*
X015140Y008840D01*
X016140Y008840D01*
X016490Y008840D01*
X016840Y008040D02*
X016840Y007940D01*
X016940Y007940D01*
X016940Y007340D01*
X016840Y007340D01*
X016840Y007240D01*
X016490Y006440D02*
X016090Y006440D01*
X015140Y006440D01*
X014790Y006440D01*
X015540Y007640D02*
X015542Y007660D01*
X015548Y007678D01*
X015557Y007696D01*
X015569Y007711D01*
X015584Y007723D01*
X015602Y007732D01*
X015620Y007738D01*
X015640Y007740D01*
X015660Y007738D01*
X015678Y007732D01*
X015696Y007723D01*
X015711Y007711D01*
X015723Y007696D01*
X015732Y007678D01*
X015738Y007660D01*
X015740Y007640D01*
X015738Y007620D01*
X015732Y007602D01*
X015723Y007584D01*
X015711Y007569D01*
X015696Y007557D01*
X015678Y007548D01*
X015660Y007542D01*
X015640Y007540D01*
X015620Y007542D01*
X015602Y007548D01*
X015584Y007557D01*
X015569Y007569D01*
X015557Y007584D01*
X015548Y007602D01*
X015542Y007620D01*
X015540Y007640D01*
X014940Y007640D02*
X014942Y007692D01*
X014948Y007744D01*
X014958Y007796D01*
X014971Y007846D01*
X014988Y007896D01*
X015009Y007944D01*
X015034Y007990D01*
X015062Y008034D01*
X015093Y008076D01*
X015127Y008116D01*
X015164Y008153D01*
X015204Y008187D01*
X015246Y008218D01*
X015290Y008246D01*
X015336Y008271D01*
X015384Y008292D01*
X015434Y008309D01*
X015484Y008322D01*
X015536Y008332D01*
X015588Y008338D01*
X015640Y008340D01*
X015692Y008338D01*
X015744Y008332D01*
X015796Y008322D01*
X015846Y008309D01*
X015896Y008292D01*
X015944Y008271D01*
X015990Y008246D01*
X016034Y008218D01*
X016076Y008187D01*
X016116Y008153D01*
X016153Y008116D01*
X016187Y008076D01*
X016218Y008034D01*
X016246Y007990D01*
X016271Y007944D01*
X016292Y007896D01*
X016309Y007846D01*
X016322Y007796D01*
X016332Y007744D01*
X016338Y007692D01*
X016340Y007640D01*
X016338Y007588D01*
X016332Y007536D01*
X016322Y007484D01*
X016309Y007434D01*
X016292Y007384D01*
X016271Y007336D01*
X016246Y007290D01*
X016218Y007246D01*
X016187Y007204D01*
X016153Y007164D01*
X016116Y007127D01*
X016076Y007093D01*
X016034Y007062D01*
X015990Y007034D01*
X015944Y007009D01*
X015896Y006988D01*
X015846Y006971D01*
X015796Y006958D01*
X015744Y006948D01*
X015692Y006942D01*
X015640Y006940D01*
X015588Y006942D01*
X015536Y006948D01*
X015484Y006958D01*
X015434Y006971D01*
X015384Y006988D01*
X015336Y007009D01*
X015290Y007034D01*
X015246Y007062D01*
X015204Y007093D01*
X015164Y007127D01*
X015127Y007164D01*
X015093Y007204D01*
X015062Y007246D01*
X015034Y007290D01*
X015009Y007336D01*
X014988Y007384D01*
X014971Y007434D01*
X014958Y007484D01*
X014948Y007536D01*
X014942Y007588D01*
X014940Y007640D01*
X018690Y007540D02*
X018690Y006740D01*
X018692Y006723D01*
X018696Y006706D01*
X018703Y006690D01*
X018713Y006676D01*
X018726Y006663D01*
X018740Y006653D01*
X018756Y006646D01*
X018773Y006642D01*
X018790Y006640D01*
X021490Y006640D01*
X021507Y006642D01*
X021524Y006646D01*
X021540Y006653D01*
X021554Y006663D01*
X021567Y006676D01*
X021577Y006690D01*
X021584Y006706D01*
X021588Y006723D01*
X021590Y006740D01*
X021590Y007540D01*
X021588Y007557D01*
X021584Y007574D01*
X021577Y007590D01*
X021567Y007604D01*
X021554Y007617D01*
X021540Y007627D01*
X021524Y007634D01*
X021507Y007638D01*
X021490Y007640D01*
X018790Y007640D01*
X018773Y007638D01*
X018756Y007634D01*
X018740Y007627D01*
X018726Y007617D01*
X018713Y007604D01*
X018703Y007590D01*
X018696Y007574D01*
X018692Y007557D01*
X018690Y007540D01*
X019540Y007140D02*
X020010Y007140D01*
X020260Y007140D02*
X020740Y007140D01*
X020730Y009240D02*
X020570Y009240D01*
X021550Y009240D02*
X021730Y009240D01*
X022550Y009240D02*
X022730Y009240D01*
X023550Y009240D02*
X023730Y009240D01*
X024550Y009240D02*
X024730Y009240D01*
X025550Y009240D02*
X025730Y009240D01*
X026550Y009240D02*
X026730Y009240D01*
X027550Y009240D02*
X027730Y009240D01*
X028550Y009240D02*
X028730Y009240D01*
X029550Y009240D02*
X029730Y009240D01*
X030550Y009240D02*
X030730Y009240D01*
X031550Y009240D02*
X031730Y009240D01*
X032550Y009240D02*
X032730Y009240D01*
X033550Y009240D02*
X033730Y009240D01*
X034550Y009240D02*
X034730Y009240D01*
X035550Y009240D02*
X035730Y009240D01*
X036550Y009240D02*
X036730Y009240D01*
X037550Y009240D02*
X037730Y009240D01*
X038550Y009240D02*
X038730Y009240D01*
X039550Y009240D02*
X040120Y009240D01*
X040120Y015040D01*
X039550Y015040D01*
X038730Y015040D02*
X038550Y015040D01*
X037730Y015040D02*
X037550Y015040D01*
X036730Y015040D02*
X036550Y015040D01*
X035730Y015040D02*
X035550Y015040D01*
X034730Y015040D02*
X034550Y015040D01*
X033730Y015040D02*
X033550Y015040D01*
X032730Y015040D02*
X032550Y015040D01*
X031730Y015040D02*
X031550Y015040D01*
X030730Y015040D02*
X030550Y015040D01*
X029730Y015040D02*
X029550Y015040D01*
X028730Y015040D02*
X028550Y015040D01*
X027730Y015040D02*
X027550Y015040D01*
X026730Y015040D02*
X026550Y015040D01*
X025730Y015040D02*
X025550Y015040D01*
X024730Y015040D02*
X024550Y015040D01*
X023730Y015040D02*
X023550Y015040D01*
X022730Y015040D02*
X022550Y015040D01*
X021730Y015040D02*
X021550Y015040D01*
X020730Y015040D02*
X020550Y015040D01*
X019730Y015040D02*
X019160Y015040D01*
X019160Y012260D01*
X019160Y012020D01*
X019160Y009240D01*
X019710Y009240D01*
X025690Y005240D02*
X025690Y004040D01*
X025692Y004023D01*
X025696Y004006D01*
X025703Y003990D01*
X025713Y003976D01*
X025726Y003963D01*
X025740Y003953D01*
X025756Y003946D01*
X025773Y003942D01*
X025790Y003940D01*
X028490Y003940D01*
X028507Y003942D01*
X028524Y003946D01*
X028540Y003953D01*
X028554Y003963D01*
X028567Y003976D01*
X028577Y003990D01*
X028584Y004006D01*
X028588Y004023D01*
X028590Y004040D01*
X028590Y005240D01*
X028588Y005257D01*
X028584Y005274D01*
X028577Y005290D01*
X028567Y005304D01*
X028554Y005317D01*
X028540Y005327D01*
X028524Y005334D01*
X028507Y005338D01*
X028490Y005340D01*
X025790Y005340D01*
X025773Y005338D01*
X025756Y005334D01*
X025740Y005327D01*
X025726Y005317D01*
X025713Y005304D01*
X025703Y005290D01*
X025696Y005274D01*
X025692Y005257D01*
X025690Y005240D01*
X026540Y004640D02*
X027010Y004640D01*
X027260Y004640D02*
X027740Y004640D01*
X027210Y003260D02*
X027050Y003260D01*
X029790Y007140D02*
X032490Y007140D01*
X032507Y007142D01*
X032524Y007146D01*
X032540Y007153D01*
X032554Y007163D01*
X032567Y007176D01*
X032577Y007190D01*
X032584Y007206D01*
X032588Y007223D01*
X032590Y007240D01*
X032590Y008040D01*
X032588Y008057D01*
X032584Y008074D01*
X032577Y008090D01*
X032567Y008104D01*
X032554Y008117D01*
X032540Y008127D01*
X032524Y008134D01*
X032507Y008138D01*
X032490Y008140D01*
X029790Y008140D01*
X029773Y008138D01*
X029756Y008134D01*
X029740Y008127D01*
X029726Y008117D01*
X029713Y008104D01*
X029703Y008090D01*
X029696Y008074D01*
X029692Y008057D01*
X029690Y008040D01*
X029690Y007240D01*
X029692Y007223D01*
X029696Y007206D01*
X029703Y007190D01*
X029713Y007176D01*
X029726Y007163D01*
X029740Y007153D01*
X029756Y007146D01*
X029773Y007142D01*
X029790Y007140D01*
X030540Y007640D02*
X031020Y007640D01*
X031270Y007640D02*
X031740Y007640D01*
X032740Y006090D02*
X033540Y006090D01*
X033557Y006088D01*
X033574Y006084D01*
X033590Y006077D01*
X033604Y006067D01*
X033617Y006054D01*
X033627Y006040D01*
X033634Y006024D01*
X033638Y006007D01*
X033640Y005990D01*
X033640Y004290D01*
X033638Y004273D01*
X033634Y004256D01*
X033627Y004240D01*
X033617Y004226D01*
X033604Y004213D01*
X033590Y004203D01*
X033574Y004196D01*
X033557Y004192D01*
X033540Y004190D01*
X032740Y004190D01*
X032723Y004192D01*
X032706Y004196D01*
X032690Y004203D01*
X032676Y004213D01*
X032663Y004226D01*
X032653Y004240D01*
X032646Y004256D01*
X032642Y004273D01*
X032640Y004290D01*
X032640Y005990D01*
X032642Y006007D01*
X032646Y006024D01*
X032653Y006040D01*
X032663Y006054D01*
X032676Y006067D01*
X032690Y006077D01*
X032706Y006084D01*
X032723Y006088D01*
X032740Y006090D01*
X033140Y005290D02*
X033140Y005240D01*
X033140Y005040D02*
X033140Y004990D01*
X034240Y005190D02*
X034240Y007340D01*
X034290Y007340D01*
X034990Y007340D01*
X035040Y007340D01*
X035040Y005190D01*
X035038Y005173D01*
X035034Y005156D01*
X035027Y005140D01*
X035017Y005126D01*
X035004Y005113D01*
X034990Y005103D01*
X034974Y005096D01*
X034957Y005092D01*
X034940Y005090D01*
X034340Y005090D01*
X034323Y005092D01*
X034306Y005096D01*
X034290Y005103D01*
X034276Y005113D01*
X034263Y005126D01*
X034253Y005140D01*
X034246Y005156D01*
X034242Y005173D01*
X034240Y005190D01*
X034640Y005840D02*
X034640Y006040D01*
X034440Y006040D01*
X034440Y006190D02*
X034840Y006190D01*
X034840Y006340D01*
X034440Y006340D01*
X034440Y006190D01*
X034640Y006040D02*
X034840Y006040D01*
X034840Y006490D02*
X034640Y006490D01*
X034440Y006490D01*
X034640Y006490D02*
X034640Y006690D01*
X034290Y007340D02*
X034290Y007490D01*
X034990Y007490D01*
X034990Y007340D01*
X035740Y006090D02*
X036540Y006090D01*
X036557Y006088D01*
X036574Y006084D01*
X036590Y006077D01*
X036604Y006067D01*
X036617Y006054D01*
X036627Y006040D01*
X036634Y006024D01*
X036638Y006007D01*
X036640Y005990D01*
X036640Y004290D01*
X036638Y004273D01*
X036634Y004256D01*
X036627Y004240D01*
X036617Y004226D01*
X036604Y004213D01*
X036590Y004203D01*
X036574Y004196D01*
X036557Y004192D01*
X036540Y004190D01*
X035740Y004190D01*
X035723Y004192D01*
X035706Y004196D01*
X035690Y004203D01*
X035676Y004213D01*
X035663Y004226D01*
X035653Y004240D01*
X035646Y004256D01*
X035642Y004273D01*
X035640Y004290D01*
X035640Y005990D01*
X035642Y006007D01*
X035646Y006024D01*
X035653Y006040D01*
X035663Y006054D01*
X035676Y006067D01*
X035690Y006077D01*
X035706Y006084D01*
X035723Y006088D01*
X035740Y006090D01*
X036140Y005290D02*
X036140Y005240D01*
X036140Y005040D02*
X036140Y004990D01*
X045190Y010140D02*
X045190Y011140D01*
X045192Y011157D01*
X045196Y011174D01*
X045203Y011190D01*
X045213Y011204D01*
X045226Y011217D01*
X045240Y011227D01*
X045256Y011234D01*
X045273Y011238D01*
X045290Y011240D01*
X047990Y011240D01*
X048007Y011238D01*
X048024Y011234D01*
X048040Y011227D01*
X048054Y011217D01*
X048067Y011204D01*
X048077Y011190D01*
X048084Y011174D01*
X048088Y011157D01*
X048090Y011140D01*
X048090Y010140D01*
X048088Y010123D01*
X048084Y010106D01*
X048077Y010090D01*
X048067Y010076D01*
X048054Y010063D01*
X048040Y010053D01*
X048024Y010046D01*
X048007Y010042D01*
X047990Y010040D01*
X045290Y010040D01*
X045273Y010042D01*
X045256Y010046D01*
X045240Y010053D01*
X045226Y010063D01*
X045213Y010076D01*
X045203Y010090D01*
X045196Y010106D01*
X045192Y010123D01*
X045190Y010140D01*
X046040Y010640D02*
X046520Y010640D01*
X046770Y010640D02*
X047240Y010640D01*
X047040Y012640D02*
X047790Y012640D01*
X047790Y020640D01*
X045490Y020640D01*
X045490Y012640D01*
X046240Y012640D01*
X046242Y012679D01*
X046248Y012718D01*
X046257Y012756D01*
X046270Y012793D01*
X046287Y012829D01*
X046307Y012862D01*
X046331Y012894D01*
X046357Y012923D01*
X046386Y012949D01*
X046418Y012973D01*
X046451Y012993D01*
X046487Y013010D01*
X046524Y013023D01*
X046562Y013032D01*
X046601Y013038D01*
X046640Y013040D01*
X046679Y013038D01*
X046718Y013032D01*
X046756Y013023D01*
X046793Y013010D01*
X046829Y012993D01*
X046862Y012973D01*
X046894Y012949D01*
X046923Y012923D01*
X046949Y012894D01*
X046973Y012862D01*
X046993Y012829D01*
X047010Y012793D01*
X047023Y012756D01*
X047032Y012718D01*
X047038Y012679D01*
X047040Y012640D01*
X049540Y013590D02*
X049640Y013590D01*
X049640Y013690D01*
X049640Y013590D02*
X049740Y013590D01*
X049640Y013590D02*
X049640Y013490D01*
X049140Y014140D02*
X049142Y014203D01*
X049148Y014265D01*
X049158Y014327D01*
X049171Y014389D01*
X049189Y014449D01*
X049210Y014508D01*
X049235Y014566D01*
X049264Y014622D01*
X049296Y014676D01*
X049331Y014728D01*
X049369Y014777D01*
X049411Y014825D01*
X049455Y014869D01*
X049503Y014911D01*
X049552Y014949D01*
X049604Y014984D01*
X049658Y015016D01*
X049714Y015045D01*
X049772Y015070D01*
X049831Y015091D01*
X049891Y015109D01*
X049953Y015122D01*
X050015Y015132D01*
X050077Y015138D01*
X050140Y015140D01*
X050203Y015138D01*
X050265Y015132D01*
X050327Y015122D01*
X050389Y015109D01*
X050449Y015091D01*
X050508Y015070D01*
X050566Y015045D01*
X050622Y015016D01*
X050676Y014984D01*
X050728Y014949D01*
X050777Y014911D01*
X050825Y014869D01*
X050869Y014825D01*
X050911Y014777D01*
X050949Y014728D01*
X050984Y014676D01*
X051016Y014622D01*
X051045Y014566D01*
X051070Y014508D01*
X051091Y014449D01*
X051109Y014389D01*
X051122Y014327D01*
X051132Y014265D01*
X051138Y014203D01*
X051140Y014140D01*
X051138Y014077D01*
X051132Y014015D01*
X051122Y013953D01*
X051109Y013891D01*
X051091Y013831D01*
X051070Y013772D01*
X051045Y013714D01*
X051016Y013658D01*
X050984Y013604D01*
X050949Y013552D01*
X050911Y013503D01*
X050869Y013455D01*
X050825Y013411D01*
X050777Y013369D01*
X050728Y013331D01*
X050676Y013296D01*
X050622Y013264D01*
X050566Y013235D01*
X050508Y013210D01*
X050449Y013189D01*
X050389Y013171D01*
X050327Y013158D01*
X050265Y013148D01*
X050203Y013142D01*
X050140Y013140D01*
X050077Y013142D01*
X050015Y013148D01*
X049953Y013158D01*
X049891Y013171D01*
X049831Y013189D01*
X049772Y013210D01*
X049714Y013235D01*
X049658Y013264D01*
X049604Y013296D01*
X049552Y013331D01*
X049503Y013369D01*
X049455Y013411D01*
X049411Y013455D01*
X049369Y013503D01*
X049331Y013552D01*
X049296Y013604D01*
X049264Y013658D01*
X049235Y013714D01*
X049210Y013772D01*
X049189Y013831D01*
X049171Y013891D01*
X049158Y013953D01*
X049148Y014015D01*
X049142Y014077D01*
X049140Y014140D01*
X042140Y014140D02*
X042142Y014203D01*
X042148Y014265D01*
X042158Y014327D01*
X042171Y014389D01*
X042189Y014449D01*
X042210Y014508D01*
X042235Y014566D01*
X042264Y014622D01*
X042296Y014676D01*
X042331Y014728D01*
X042369Y014777D01*
X042411Y014825D01*
X042455Y014869D01*
X042503Y014911D01*
X042552Y014949D01*
X042604Y014984D01*
X042658Y015016D01*
X042714Y015045D01*
X042772Y015070D01*
X042831Y015091D01*
X042891Y015109D01*
X042953Y015122D01*
X043015Y015132D01*
X043077Y015138D01*
X043140Y015140D01*
X043203Y015138D01*
X043265Y015132D01*
X043327Y015122D01*
X043389Y015109D01*
X043449Y015091D01*
X043508Y015070D01*
X043566Y015045D01*
X043622Y015016D01*
X043676Y014984D01*
X043728Y014949D01*
X043777Y014911D01*
X043825Y014869D01*
X043869Y014825D01*
X043911Y014777D01*
X043949Y014728D01*
X043984Y014676D01*
X044016Y014622D01*
X044045Y014566D01*
X044070Y014508D01*
X044091Y014449D01*
X044109Y014389D01*
X044122Y014327D01*
X044132Y014265D01*
X044138Y014203D01*
X044140Y014140D01*
X044138Y014077D01*
X044132Y014015D01*
X044122Y013953D01*
X044109Y013891D01*
X044091Y013831D01*
X044070Y013772D01*
X044045Y013714D01*
X044016Y013658D01*
X043984Y013604D01*
X043949Y013552D01*
X043911Y013503D01*
X043869Y013455D01*
X043825Y013411D01*
X043777Y013369D01*
X043728Y013331D01*
X043676Y013296D01*
X043622Y013264D01*
X043566Y013235D01*
X043508Y013210D01*
X043449Y013189D01*
X043389Y013171D01*
X043327Y013158D01*
X043265Y013148D01*
X043203Y013142D01*
X043140Y013140D01*
X043077Y013142D01*
X043015Y013148D01*
X042953Y013158D01*
X042891Y013171D01*
X042831Y013189D01*
X042772Y013210D01*
X042714Y013235D01*
X042658Y013264D01*
X042604Y013296D01*
X042552Y013331D01*
X042503Y013369D01*
X042455Y013411D01*
X042411Y013455D01*
X042369Y013503D01*
X042331Y013552D01*
X042296Y013604D01*
X042264Y013658D01*
X042235Y013714D01*
X042210Y013772D01*
X042189Y013831D01*
X042171Y013891D01*
X042158Y013953D01*
X042148Y014015D01*
X042142Y014077D01*
X042140Y014140D01*
X042640Y013690D02*
X042640Y013590D01*
X042540Y013590D01*
X042640Y013590D02*
X042740Y013590D01*
X042640Y013590D02*
X042640Y013490D01*
X042640Y015990D02*
X042640Y016090D01*
X042540Y016090D01*
X042640Y016090D02*
X042640Y016190D01*
X042640Y016090D02*
X042740Y016090D01*
X042140Y016640D02*
X042142Y016703D01*
X042148Y016765D01*
X042158Y016827D01*
X042171Y016889D01*
X042189Y016949D01*
X042210Y017008D01*
X042235Y017066D01*
X042264Y017122D01*
X042296Y017176D01*
X042331Y017228D01*
X042369Y017277D01*
X042411Y017325D01*
X042455Y017369D01*
X042503Y017411D01*
X042552Y017449D01*
X042604Y017484D01*
X042658Y017516D01*
X042714Y017545D01*
X042772Y017570D01*
X042831Y017591D01*
X042891Y017609D01*
X042953Y017622D01*
X043015Y017632D01*
X043077Y017638D01*
X043140Y017640D01*
X043203Y017638D01*
X043265Y017632D01*
X043327Y017622D01*
X043389Y017609D01*
X043449Y017591D01*
X043508Y017570D01*
X043566Y017545D01*
X043622Y017516D01*
X043676Y017484D01*
X043728Y017449D01*
X043777Y017411D01*
X043825Y017369D01*
X043869Y017325D01*
X043911Y017277D01*
X043949Y017228D01*
X043984Y017176D01*
X044016Y017122D01*
X044045Y017066D01*
X044070Y017008D01*
X044091Y016949D01*
X044109Y016889D01*
X044122Y016827D01*
X044132Y016765D01*
X044138Y016703D01*
X044140Y016640D01*
X044138Y016577D01*
X044132Y016515D01*
X044122Y016453D01*
X044109Y016391D01*
X044091Y016331D01*
X044070Y016272D01*
X044045Y016214D01*
X044016Y016158D01*
X043984Y016104D01*
X043949Y016052D01*
X043911Y016003D01*
X043869Y015955D01*
X043825Y015911D01*
X043777Y015869D01*
X043728Y015831D01*
X043676Y015796D01*
X043622Y015764D01*
X043566Y015735D01*
X043508Y015710D01*
X043449Y015689D01*
X043389Y015671D01*
X043327Y015658D01*
X043265Y015648D01*
X043203Y015642D01*
X043140Y015640D01*
X043077Y015642D01*
X043015Y015648D01*
X042953Y015658D01*
X042891Y015671D01*
X042831Y015689D01*
X042772Y015710D01*
X042714Y015735D01*
X042658Y015764D01*
X042604Y015796D01*
X042552Y015831D01*
X042503Y015869D01*
X042455Y015911D01*
X042411Y015955D01*
X042369Y016003D01*
X042331Y016052D01*
X042296Y016104D01*
X042264Y016158D01*
X042235Y016214D01*
X042210Y016272D01*
X042189Y016331D01*
X042171Y016391D01*
X042158Y016453D01*
X042148Y016515D01*
X042142Y016577D01*
X042140Y016640D01*
X042640Y018490D02*
X042640Y018590D01*
X042540Y018590D01*
X042640Y018590D02*
X042640Y018690D01*
X042640Y018590D02*
X042740Y018590D01*
X042140Y019140D02*
X042142Y019203D01*
X042148Y019265D01*
X042158Y019327D01*
X042171Y019389D01*
X042189Y019449D01*
X042210Y019508D01*
X042235Y019566D01*
X042264Y019622D01*
X042296Y019676D01*
X042331Y019728D01*
X042369Y019777D01*
X042411Y019825D01*
X042455Y019869D01*
X042503Y019911D01*
X042552Y019949D01*
X042604Y019984D01*
X042658Y020016D01*
X042714Y020045D01*
X042772Y020070D01*
X042831Y020091D01*
X042891Y020109D01*
X042953Y020122D01*
X043015Y020132D01*
X043077Y020138D01*
X043140Y020140D01*
X043203Y020138D01*
X043265Y020132D01*
X043327Y020122D01*
X043389Y020109D01*
X043449Y020091D01*
X043508Y020070D01*
X043566Y020045D01*
X043622Y020016D01*
X043676Y019984D01*
X043728Y019949D01*
X043777Y019911D01*
X043825Y019869D01*
X043869Y019825D01*
X043911Y019777D01*
X043949Y019728D01*
X043984Y019676D01*
X044016Y019622D01*
X044045Y019566D01*
X044070Y019508D01*
X044091Y019449D01*
X044109Y019389D01*
X044122Y019327D01*
X044132Y019265D01*
X044138Y019203D01*
X044140Y019140D01*
X044138Y019077D01*
X044132Y019015D01*
X044122Y018953D01*
X044109Y018891D01*
X044091Y018831D01*
X044070Y018772D01*
X044045Y018714D01*
X044016Y018658D01*
X043984Y018604D01*
X043949Y018552D01*
X043911Y018503D01*
X043869Y018455D01*
X043825Y018411D01*
X043777Y018369D01*
X043728Y018331D01*
X043676Y018296D01*
X043622Y018264D01*
X043566Y018235D01*
X043508Y018210D01*
X043449Y018189D01*
X043389Y018171D01*
X043327Y018158D01*
X043265Y018148D01*
X043203Y018142D01*
X043140Y018140D01*
X043077Y018142D01*
X043015Y018148D01*
X042953Y018158D01*
X042891Y018171D01*
X042831Y018189D01*
X042772Y018210D01*
X042714Y018235D01*
X042658Y018264D01*
X042604Y018296D01*
X042552Y018331D01*
X042503Y018369D01*
X042455Y018411D01*
X042411Y018455D01*
X042369Y018503D01*
X042331Y018552D01*
X042296Y018604D01*
X042264Y018658D01*
X042235Y018714D01*
X042210Y018772D01*
X042189Y018831D01*
X042171Y018891D01*
X042158Y018953D01*
X042148Y019015D01*
X042142Y019077D01*
X042140Y019140D01*
X046890Y023240D02*
X047090Y023040D01*
X051090Y023040D01*
X051140Y023040D01*
X051140Y025040D01*
X051140Y025390D01*
X047090Y025390D01*
X046890Y025190D01*
X046890Y023240D01*
X047490Y024210D02*
X047492Y024260D01*
X047498Y024310D01*
X047508Y024360D01*
X047521Y024408D01*
X047538Y024456D01*
X047559Y024502D01*
X047583Y024546D01*
X047611Y024588D01*
X047642Y024628D01*
X047676Y024665D01*
X047713Y024700D01*
X047752Y024731D01*
X047793Y024760D01*
X047837Y024785D01*
X047883Y024807D01*
X047930Y024825D01*
X047978Y024839D01*
X048027Y024850D01*
X048077Y024857D01*
X048127Y024860D01*
X048178Y024859D01*
X048228Y024854D01*
X048278Y024845D01*
X048326Y024833D01*
X048374Y024816D01*
X048420Y024796D01*
X048465Y024773D01*
X048508Y024746D01*
X048548Y024716D01*
X048586Y024683D01*
X048621Y024647D01*
X048654Y024608D01*
X048683Y024567D01*
X048709Y024524D01*
X048732Y024479D01*
X048751Y024432D01*
X048766Y024384D01*
X048778Y024335D01*
X048786Y024285D01*
X048790Y024235D01*
X048790Y024185D01*
X048786Y024135D01*
X048778Y024085D01*
X048766Y024036D01*
X048751Y023988D01*
X048732Y023941D01*
X048709Y023896D01*
X048683Y023853D01*
X048654Y023812D01*
X048621Y023773D01*
X048586Y023737D01*
X048548Y023704D01*
X048508Y023674D01*
X048465Y023647D01*
X048420Y023624D01*
X048374Y023604D01*
X048326Y023587D01*
X048278Y023575D01*
X048228Y023566D01*
X048178Y023561D01*
X048127Y023560D01*
X048077Y023563D01*
X048027Y023570D01*
X047978Y023581D01*
X047930Y023595D01*
X047883Y023613D01*
X047837Y023635D01*
X047793Y023660D01*
X047752Y023689D01*
X047713Y023720D01*
X047676Y023755D01*
X047642Y023792D01*
X047611Y023832D01*
X047583Y023874D01*
X047559Y023918D01*
X047538Y023964D01*
X047521Y024012D01*
X047508Y024060D01*
X047498Y024110D01*
X047492Y024160D01*
X047490Y024210D01*
X050840Y025490D02*
X051140Y025490D01*
X051140Y025390D01*
X051140Y025490D02*
X051140Y032790D01*
X050840Y032790D01*
X050840Y025490D01*
X051140Y025340D02*
X051142Y025310D01*
X051147Y025280D01*
X051156Y025251D01*
X051169Y025224D01*
X051184Y025198D01*
X051203Y025174D01*
X051224Y025153D01*
X051248Y025134D01*
X051274Y025119D01*
X051301Y025106D01*
X051330Y025097D01*
X051360Y025092D01*
X051390Y025090D01*
X052340Y025090D01*
X052340Y025040D01*
X052540Y025040D01*
X052540Y024040D01*
X052540Y023040D01*
X052340Y023040D01*
X051140Y023040D01*
X052540Y023040D02*
X052740Y023040D01*
X052740Y026090D01*
X052740Y032190D01*
X052740Y035240D01*
X052540Y035240D01*
X052540Y034240D01*
X052540Y033240D01*
X052540Y025040D01*
X052740Y025690D02*
X052742Y025720D01*
X052747Y025750D01*
X052756Y025779D01*
X052769Y025806D01*
X052784Y025832D01*
X052803Y025856D01*
X052824Y025877D01*
X052848Y025896D01*
X052874Y025911D01*
X052901Y025924D01*
X052930Y025933D01*
X052960Y025938D01*
X052990Y025940D01*
X054990Y025940D01*
X055016Y025942D01*
X055042Y025947D01*
X055067Y025955D01*
X055090Y025967D01*
X055112Y025981D01*
X055131Y025999D01*
X055149Y026018D01*
X055163Y026040D01*
X055175Y026063D01*
X055183Y026088D01*
X055188Y026114D01*
X055190Y026140D01*
X055190Y026240D01*
X055190Y032040D01*
X055190Y032140D01*
X055188Y032166D01*
X055183Y032192D01*
X055175Y032217D01*
X055163Y032240D01*
X055149Y032262D01*
X055131Y032281D01*
X055112Y032299D01*
X055090Y032313D01*
X055067Y032325D01*
X055042Y032333D01*
X055016Y032338D01*
X054990Y032340D01*
X052990Y032340D01*
X052960Y032342D01*
X052930Y032347D01*
X052901Y032356D01*
X052874Y032369D01*
X052848Y032384D01*
X052824Y032403D01*
X052803Y032424D01*
X052784Y032448D01*
X052769Y032474D01*
X052756Y032501D01*
X052747Y032530D01*
X052742Y032560D01*
X052740Y032590D01*
X052540Y033240D02*
X052340Y033240D01*
X052340Y033190D01*
X051390Y033190D01*
X051360Y033188D01*
X051330Y033183D01*
X051301Y033174D01*
X051274Y033161D01*
X051248Y033146D01*
X051224Y033127D01*
X051203Y033106D01*
X051184Y033082D01*
X051169Y033056D01*
X051156Y033029D01*
X051147Y033000D01*
X051142Y032970D01*
X051140Y032940D01*
X051140Y032890D02*
X047090Y032890D01*
X046890Y033090D01*
X046890Y034990D01*
X047140Y035240D01*
X051090Y035240D01*
X051140Y035240D01*
X052340Y035240D01*
X052540Y035240D01*
X051140Y035240D02*
X051140Y033240D01*
X051140Y032890D01*
X051140Y032790D01*
X047490Y034070D02*
X047492Y034120D01*
X047498Y034170D01*
X047508Y034220D01*
X047521Y034268D01*
X047538Y034316D01*
X047559Y034362D01*
X047583Y034406D01*
X047611Y034448D01*
X047642Y034488D01*
X047676Y034525D01*
X047713Y034560D01*
X047752Y034591D01*
X047793Y034620D01*
X047837Y034645D01*
X047883Y034667D01*
X047930Y034685D01*
X047978Y034699D01*
X048027Y034710D01*
X048077Y034717D01*
X048127Y034720D01*
X048178Y034719D01*
X048228Y034714D01*
X048278Y034705D01*
X048326Y034693D01*
X048374Y034676D01*
X048420Y034656D01*
X048465Y034633D01*
X048508Y034606D01*
X048548Y034576D01*
X048586Y034543D01*
X048621Y034507D01*
X048654Y034468D01*
X048683Y034427D01*
X048709Y034384D01*
X048732Y034339D01*
X048751Y034292D01*
X048766Y034244D01*
X048778Y034195D01*
X048786Y034145D01*
X048790Y034095D01*
X048790Y034045D01*
X048786Y033995D01*
X048778Y033945D01*
X048766Y033896D01*
X048751Y033848D01*
X048732Y033801D01*
X048709Y033756D01*
X048683Y033713D01*
X048654Y033672D01*
X048621Y033633D01*
X048586Y033597D01*
X048548Y033564D01*
X048508Y033534D01*
X048465Y033507D01*
X048420Y033484D01*
X048374Y033464D01*
X048326Y033447D01*
X048278Y033435D01*
X048228Y033426D01*
X048178Y033421D01*
X048127Y033420D01*
X048077Y033423D01*
X048027Y033430D01*
X047978Y033441D01*
X047930Y033455D01*
X047883Y033473D01*
X047837Y033495D01*
X047793Y033520D01*
X047752Y033549D01*
X047713Y033580D01*
X047676Y033615D01*
X047642Y033652D01*
X047611Y033692D01*
X047583Y033734D01*
X047559Y033778D01*
X047538Y033824D01*
X047521Y033872D01*
X047508Y033920D01*
X047498Y033970D01*
X047492Y034020D01*
X047490Y034070D01*
X045140Y035390D02*
X045140Y035890D01*
X044890Y036140D01*
X044390Y036140D01*
X044140Y035890D01*
X043890Y036140D01*
X043390Y036140D01*
X043140Y035890D01*
X042890Y036140D01*
X042390Y036140D01*
X042140Y035890D01*
X042140Y035390D01*
X042390Y035140D01*
X042890Y035140D01*
X043140Y035390D01*
X043390Y035140D01*
X043890Y035140D01*
X044140Y035390D01*
X044390Y035140D01*
X044890Y035140D01*
X045140Y035390D01*
X041140Y035390D02*
X041140Y035890D01*
X040890Y036140D01*
X040390Y036140D01*
X040140Y035890D01*
X039890Y036140D01*
X039390Y036140D01*
X039140Y035890D01*
X038890Y036140D01*
X038390Y036140D01*
X038140Y035890D01*
X038140Y035390D01*
X038390Y035140D01*
X038890Y035140D01*
X039140Y035390D01*
X039390Y035140D01*
X039890Y035140D01*
X040140Y035390D01*
X040390Y035140D01*
X040890Y035140D01*
X041140Y035390D01*
X035140Y035390D02*
X034890Y035140D01*
X034390Y035140D01*
X034140Y035390D01*
X033890Y035140D01*
X033390Y035140D01*
X033140Y035390D01*
X032890Y035140D01*
X032390Y035140D01*
X032140Y035390D01*
X032140Y035890D01*
X032390Y036140D01*
X032890Y036140D01*
X033140Y035890D01*
X033390Y036140D01*
X033890Y036140D01*
X034140Y035890D01*
X034390Y036140D01*
X034890Y036140D01*
X035140Y035890D01*
X035140Y035390D01*
X034890Y033140D02*
X034390Y033140D01*
X034140Y032890D01*
X033890Y033140D01*
X033390Y033140D01*
X033140Y032890D01*
X033140Y032390D02*
X033390Y032140D01*
X033890Y032140D01*
X034140Y032390D01*
X034390Y032140D01*
X034890Y032140D01*
X035140Y032390D01*
X035140Y032890D01*
X034890Y033140D01*
X029070Y031710D02*
X029070Y031570D01*
X028210Y031570D02*
X028210Y031710D01*
X027640Y029140D02*
X027642Y029203D01*
X027648Y029265D01*
X027658Y029327D01*
X027671Y029389D01*
X027689Y029449D01*
X027710Y029508D01*
X027735Y029566D01*
X027764Y029622D01*
X027796Y029676D01*
X027831Y029728D01*
X027869Y029777D01*
X027911Y029825D01*
X027955Y029869D01*
X028003Y029911D01*
X028052Y029949D01*
X028104Y029984D01*
X028158Y030016D01*
X028214Y030045D01*
X028272Y030070D01*
X028331Y030091D01*
X028391Y030109D01*
X028453Y030122D01*
X028515Y030132D01*
X028577Y030138D01*
X028640Y030140D01*
X028703Y030138D01*
X028765Y030132D01*
X028827Y030122D01*
X028889Y030109D01*
X028949Y030091D01*
X029008Y030070D01*
X029066Y030045D01*
X029122Y030016D01*
X029176Y029984D01*
X029228Y029949D01*
X029277Y029911D01*
X029325Y029869D01*
X029369Y029825D01*
X029411Y029777D01*
X029449Y029728D01*
X029484Y029676D01*
X029516Y029622D01*
X029545Y029566D01*
X029570Y029508D01*
X029591Y029449D01*
X029609Y029389D01*
X029622Y029327D01*
X029632Y029265D01*
X029638Y029203D01*
X029640Y029140D01*
X029638Y029077D01*
X029632Y029015D01*
X029622Y028953D01*
X029609Y028891D01*
X029591Y028831D01*
X029570Y028772D01*
X029545Y028714D01*
X029516Y028658D01*
X029484Y028604D01*
X029449Y028552D01*
X029411Y028503D01*
X029369Y028455D01*
X029325Y028411D01*
X029277Y028369D01*
X029228Y028331D01*
X029176Y028296D01*
X029122Y028264D01*
X029066Y028235D01*
X029008Y028210D01*
X028949Y028189D01*
X028889Y028171D01*
X028827Y028158D01*
X028765Y028148D01*
X028703Y028142D01*
X028640Y028140D01*
X028577Y028142D01*
X028515Y028148D01*
X028453Y028158D01*
X028391Y028171D01*
X028331Y028189D01*
X028272Y028210D01*
X028214Y028235D01*
X028158Y028264D01*
X028104Y028296D01*
X028052Y028331D01*
X028003Y028369D01*
X027955Y028411D01*
X027911Y028455D01*
X027869Y028503D01*
X027831Y028552D01*
X027796Y028604D01*
X027764Y028658D01*
X027735Y028714D01*
X027710Y028772D01*
X027689Y028831D01*
X027671Y028891D01*
X027658Y028953D01*
X027648Y029015D01*
X027642Y029077D01*
X027640Y029140D01*
X029090Y028640D02*
X029190Y028640D01*
X029190Y028540D01*
X029190Y028640D02*
X029190Y028740D01*
X029190Y028640D02*
X029290Y028640D01*
X029590Y026240D02*
X029590Y026040D01*
X029490Y026140D02*
X029690Y026140D01*
X027540Y026140D02*
X027542Y026206D01*
X027548Y026271D01*
X027558Y026336D01*
X027571Y026401D01*
X027589Y026464D01*
X027610Y026527D01*
X027635Y026587D01*
X027664Y026647D01*
X027696Y026704D01*
X027731Y026760D01*
X027770Y026813D01*
X027812Y026864D01*
X027856Y026912D01*
X027904Y026957D01*
X027954Y027000D01*
X028007Y027039D01*
X028062Y027076D01*
X028119Y027109D01*
X028178Y027138D01*
X028238Y027164D01*
X028300Y027186D01*
X028363Y027205D01*
X028427Y027219D01*
X028492Y027230D01*
X028558Y027237D01*
X028624Y027240D01*
X028689Y027239D01*
X028755Y027234D01*
X028820Y027225D01*
X028885Y027212D01*
X028948Y027196D01*
X029011Y027176D01*
X029072Y027151D01*
X029132Y027124D01*
X029190Y027093D01*
X029246Y027058D01*
X029300Y027020D01*
X029351Y026979D01*
X029400Y026935D01*
X029446Y026888D01*
X029490Y026839D01*
X029530Y026787D01*
X029567Y026732D01*
X029601Y026676D01*
X029631Y026617D01*
X029658Y026557D01*
X029681Y026496D01*
X029700Y026433D01*
X029716Y026369D01*
X029728Y026304D01*
X029736Y026239D01*
X029740Y026173D01*
X029740Y026107D01*
X029736Y026041D01*
X029728Y025976D01*
X029716Y025911D01*
X029700Y025847D01*
X029681Y025784D01*
X029658Y025723D01*
X029631Y025663D01*
X029601Y025604D01*
X029567Y025548D01*
X029530Y025493D01*
X029490Y025441D01*
X029446Y025392D01*
X029400Y025345D01*
X029351Y025301D01*
X029300Y025260D01*
X029246Y025222D01*
X029190Y025187D01*
X029132Y025156D01*
X029072Y025129D01*
X029011Y025104D01*
X028948Y025084D01*
X028885Y025068D01*
X028820Y025055D01*
X028755Y025046D01*
X028689Y025041D01*
X028624Y025040D01*
X028558Y025043D01*
X028492Y025050D01*
X028427Y025061D01*
X028363Y025075D01*
X028300Y025094D01*
X028238Y025116D01*
X028178Y025142D01*
X028119Y025171D01*
X028062Y025204D01*
X028007Y025241D01*
X027954Y025280D01*
X027904Y025323D01*
X027856Y025368D01*
X027812Y025416D01*
X027770Y025467D01*
X027731Y025520D01*
X027696Y025576D01*
X027664Y025633D01*
X027635Y025693D01*
X027610Y025753D01*
X027589Y025816D01*
X027571Y025879D01*
X027558Y025944D01*
X027548Y026009D01*
X027542Y026074D01*
X027540Y026140D01*
X022740Y029290D02*
X022740Y031990D01*
X022738Y032007D01*
X022734Y032024D01*
X022727Y032040D01*
X022717Y032054D01*
X022704Y032067D01*
X022690Y032077D01*
X022674Y032084D01*
X022657Y032088D01*
X022640Y032090D01*
X021640Y032090D01*
X021623Y032088D01*
X021606Y032084D01*
X021590Y032077D01*
X021576Y032067D01*
X021563Y032054D01*
X021553Y032040D01*
X021546Y032024D01*
X021542Y032007D01*
X021540Y031990D01*
X021540Y029290D01*
X021542Y029273D01*
X021546Y029256D01*
X021553Y029240D01*
X021563Y029226D01*
X021576Y029213D01*
X021590Y029203D01*
X021606Y029196D01*
X021623Y029192D01*
X021640Y029190D01*
X022640Y029190D01*
X022657Y029192D01*
X022674Y029196D01*
X022690Y029203D01*
X022704Y029213D01*
X022717Y029226D01*
X022727Y029240D01*
X022734Y029256D01*
X022738Y029273D01*
X022740Y029290D01*
X022140Y030040D02*
X022140Y030510D01*
X022140Y030760D02*
X022140Y031240D01*
X018240Y031990D02*
X018240Y029290D01*
X018238Y029273D01*
X018234Y029256D01*
X018227Y029240D01*
X018217Y029226D01*
X018204Y029213D01*
X018190Y029203D01*
X018174Y029196D01*
X018157Y029192D01*
X018140Y029190D01*
X017140Y029190D01*
X017123Y029192D01*
X017106Y029196D01*
X017090Y029203D01*
X017076Y029213D01*
X017063Y029226D01*
X017053Y029240D01*
X017046Y029256D01*
X017042Y029273D01*
X017040Y029290D01*
X017040Y031990D01*
X017042Y032007D01*
X017046Y032024D01*
X017053Y032040D01*
X017063Y032054D01*
X017076Y032067D01*
X017090Y032077D01*
X017106Y032084D01*
X017123Y032088D01*
X017140Y032090D01*
X018140Y032090D01*
X018157Y032088D01*
X018174Y032084D01*
X018190Y032077D01*
X018204Y032067D01*
X018217Y032054D01*
X018227Y032040D01*
X018234Y032024D01*
X018238Y032007D01*
X018240Y031990D01*
X017640Y031240D02*
X017640Y030760D01*
X017640Y030510D02*
X017640Y030040D01*
X011590Y034240D02*
X011590Y035040D01*
X011588Y035057D01*
X011584Y035074D01*
X011577Y035090D01*
X011567Y035104D01*
X011554Y035117D01*
X011540Y035127D01*
X011524Y035134D01*
X011507Y035138D01*
X011490Y035140D01*
X008790Y035140D01*
X008773Y035138D01*
X008756Y035134D01*
X008740Y035127D01*
X008726Y035117D01*
X008713Y035104D01*
X008703Y035090D01*
X008696Y035074D01*
X008692Y035057D01*
X008690Y035040D01*
X008690Y034240D01*
X008692Y034223D01*
X008696Y034206D01*
X008703Y034190D01*
X008713Y034176D01*
X008726Y034163D01*
X008740Y034153D01*
X008756Y034146D01*
X008773Y034142D01*
X008790Y034140D01*
X011490Y034140D01*
X011507Y034142D01*
X011524Y034146D01*
X011540Y034153D01*
X011554Y034163D01*
X011567Y034176D01*
X011577Y034190D01*
X011584Y034206D01*
X011588Y034223D01*
X011590Y034240D01*
X010740Y034640D02*
X010270Y034640D01*
X010020Y034640D02*
X009540Y034640D01*
X009390Y036140D02*
X009140Y036390D01*
X008890Y036140D01*
X008390Y036140D01*
X008140Y036390D01*
X008140Y036890D01*
X008390Y037140D01*
X008890Y037140D01*
X009140Y036890D01*
X009390Y037140D01*
X009890Y037140D01*
X010140Y036890D01*
X010140Y036390D02*
X009890Y036140D01*
X009390Y036140D01*
X006640Y036390D02*
X006390Y036140D01*
X005890Y036140D01*
X005640Y036390D01*
X005390Y036140D01*
X004890Y036140D01*
X004640Y036390D01*
X004640Y036890D01*
X004890Y037140D01*
X005390Y037140D01*
X005640Y036890D01*
X005890Y037140D01*
X006390Y037140D01*
X006640Y036890D01*
X006220Y034800D02*
X006220Y034410D01*
X006050Y033730D02*
X006050Y033260D01*
X006050Y033020D01*
X006050Y032550D01*
X006140Y033220D02*
X006125Y033234D01*
X006108Y033245D01*
X006090Y033253D01*
X006070Y033258D01*
X006050Y033260D01*
X006140Y033060D02*
X006125Y033046D01*
X006108Y033035D01*
X006090Y033027D01*
X006070Y033022D01*
X006050Y033020D01*
X007230Y032550D02*
X007230Y033730D01*
X007990Y031340D02*
X005290Y031340D01*
X005273Y031338D01*
X005256Y031334D01*
X005240Y031327D01*
X005226Y031317D01*
X005213Y031304D01*
X005203Y031290D01*
X005196Y031274D01*
X005192Y031257D01*
X005190Y031240D01*
X005190Y030040D01*
X005192Y030023D01*
X005196Y030006D01*
X005203Y029990D01*
X005213Y029976D01*
X005226Y029963D01*
X005240Y029953D01*
X005256Y029946D01*
X005273Y029942D01*
X005290Y029940D01*
X007990Y029940D01*
X008007Y029942D01*
X008024Y029946D01*
X008040Y029953D01*
X008054Y029963D01*
X008067Y029976D01*
X008077Y029990D01*
X008084Y030006D01*
X008088Y030023D01*
X008090Y030040D01*
X008090Y031240D01*
X008088Y031257D01*
X008084Y031274D01*
X008077Y031290D01*
X008067Y031304D01*
X008054Y031317D01*
X008040Y031327D01*
X008024Y031334D01*
X008007Y031338D01*
X007990Y031340D01*
X007240Y030640D02*
X006760Y030640D01*
X006510Y030640D02*
X006040Y030640D01*
X004640Y030390D02*
X004390Y030140D01*
X004640Y029890D01*
X004640Y029390D01*
X004390Y029140D01*
X004640Y028890D01*
X004640Y028390D01*
X004390Y028140D01*
X003890Y028140D01*
X003640Y028390D01*
X003640Y028890D01*
X003890Y029140D01*
X003640Y029390D01*
X003640Y029890D01*
X003890Y030140D01*
X003640Y030390D01*
X003640Y030890D01*
X003890Y031140D01*
X004390Y031140D01*
X004640Y030890D01*
X004640Y030390D01*
X002640Y030390D02*
X002390Y030140D01*
X002640Y029890D01*
X002640Y029390D01*
X002390Y029140D01*
X002640Y028890D01*
X002640Y028390D01*
X002390Y028140D01*
X001890Y028140D01*
X001640Y028390D01*
X001640Y028890D01*
X001890Y029140D01*
X001640Y029390D01*
X001640Y029890D01*
X001890Y030140D01*
X001640Y030390D01*
X001640Y030890D01*
X001890Y031140D01*
X002390Y031140D01*
X002640Y030890D01*
X002640Y030390D01*
X002390Y032640D02*
X002640Y032890D01*
X002640Y033390D01*
X002390Y033640D01*
X002640Y033890D01*
X002640Y034390D01*
X002390Y034640D01*
X001890Y034640D01*
X001640Y034390D01*
X001640Y033890D01*
X001890Y033640D01*
X001640Y033390D01*
X001640Y032890D01*
X001890Y032640D01*
X005390Y028490D02*
X005890Y028490D01*
X005916Y028488D01*
X005942Y028483D01*
X005967Y028475D01*
X005990Y028463D01*
X006012Y028449D01*
X006031Y028431D01*
X006049Y028412D01*
X006063Y028390D01*
X006075Y028367D01*
X006083Y028342D01*
X006088Y028316D01*
X006090Y028290D01*
X006090Y026990D01*
X006088Y026964D01*
X006083Y026938D01*
X006075Y026913D01*
X006063Y026890D01*
X006049Y026868D01*
X006031Y026849D01*
X006012Y026831D01*
X005990Y026817D01*
X005967Y026805D01*
X005942Y026797D01*
X005916Y026792D01*
X005890Y026790D01*
X005390Y026790D01*
X005364Y026792D01*
X005338Y026797D01*
X005313Y026805D01*
X005290Y026817D01*
X005268Y026831D01*
X005249Y026849D01*
X005231Y026868D01*
X005217Y026890D01*
X005205Y026913D01*
X005197Y026938D01*
X005192Y026964D01*
X005190Y026990D01*
X005190Y028290D01*
X005192Y028316D01*
X005197Y028342D01*
X005205Y028367D01*
X005217Y028390D01*
X005231Y028412D01*
X005249Y028431D01*
X005268Y028449D01*
X005290Y028463D01*
X005313Y028475D01*
X005338Y028483D01*
X005364Y028488D01*
X005390Y028490D01*
X011890Y036140D02*
X012390Y036140D01*
X012640Y036390D01*
X012890Y036140D01*
X013390Y036140D01*
X013640Y036390D01*
X013640Y036890D02*
X013390Y037140D01*
X012890Y037140D01*
X012640Y036890D01*
X012390Y037140D01*
X011890Y037140D01*
X011640Y036890D01*
X011640Y036390D01*
X011890Y036140D01*
X018190Y036640D02*
X018390Y036640D01*
X016640Y036640D02*
X016642Y036738D01*
X016650Y036836D01*
X016662Y036933D01*
X016678Y037030D01*
X016700Y037126D01*
X016726Y037221D01*
X016757Y037314D01*
X016792Y037405D01*
X016832Y037495D01*
X016876Y037583D01*
X016925Y037668D01*
X016977Y037751D01*
X017034Y037831D01*
X017094Y037909D01*
X017158Y037983D01*
X017226Y038054D01*
X017297Y038122D01*
X017371Y038186D01*
X017449Y038246D01*
X017529Y038303D01*
X017612Y038355D01*
X017697Y038404D01*
X017785Y038448D01*
X017875Y038488D01*
X017966Y038523D01*
X018059Y038554D01*
X018154Y038580D01*
X018250Y038602D01*
X018347Y038618D01*
X018444Y038630D01*
X018542Y038638D01*
X018640Y038640D01*
X018738Y038638D01*
X018836Y038630D01*
X018933Y038618D01*
X019030Y038602D01*
X019126Y038580D01*
X019221Y038554D01*
X019314Y038523D01*
X019405Y038488D01*
X019495Y038448D01*
X019583Y038404D01*
X019668Y038355D01*
X019751Y038303D01*
X019831Y038246D01*
X019909Y038186D01*
X019983Y038122D01*
X020054Y038054D01*
X020122Y037983D01*
X020186Y037909D01*
X020246Y037831D01*
X020303Y037751D01*
X020355Y037668D01*
X020404Y037583D01*
X020448Y037495D01*
X020488Y037405D01*
X020523Y037314D01*
X020554Y037221D01*
X020580Y037126D01*
X020602Y037030D01*
X020618Y036933D01*
X020630Y036836D01*
X020638Y036738D01*
X020640Y036640D01*
X020638Y036542D01*
X020630Y036444D01*
X020618Y036347D01*
X020602Y036250D01*
X020580Y036154D01*
X020554Y036059D01*
X020523Y035966D01*
X020488Y035875D01*
X020448Y035785D01*
X020404Y035697D01*
X020355Y035612D01*
X020303Y035529D01*
X020246Y035449D01*
X020186Y035371D01*
X020122Y035297D01*
X020054Y035226D01*
X019983Y035158D01*
X019909Y035094D01*
X019831Y035034D01*
X019751Y034977D01*
X019668Y034925D01*
X019583Y034876D01*
X019495Y034832D01*
X019405Y034792D01*
X019314Y034757D01*
X019221Y034726D01*
X019126Y034700D01*
X019030Y034678D01*
X018933Y034662D01*
X018836Y034650D01*
X018738Y034642D01*
X018640Y034640D01*
X018542Y034642D01*
X018444Y034650D01*
X018347Y034662D01*
X018250Y034678D01*
X018154Y034700D01*
X018059Y034726D01*
X017966Y034757D01*
X017875Y034792D01*
X017785Y034832D01*
X017697Y034876D01*
X017612Y034925D01*
X017529Y034977D01*
X017449Y035034D01*
X017371Y035094D01*
X017297Y035158D01*
X017226Y035226D01*
X017158Y035297D01*
X017094Y035371D01*
X017034Y035449D01*
X016977Y035529D01*
X016925Y035612D01*
X016876Y035697D01*
X016832Y035785D01*
X016792Y035875D01*
X016757Y035966D01*
X016726Y036059D01*
X016700Y036154D01*
X016678Y036250D01*
X016662Y036347D01*
X016650Y036444D01*
X016642Y036542D01*
X016640Y036640D01*
X018740Y036190D02*
X018990Y036190D01*
X018990Y036640D01*
X018990Y037090D01*
X018740Y037090D01*
X018740Y036190D01*
X018990Y036640D02*
X019090Y036640D01*
X019990Y036140D02*
X020290Y036140D01*
X020140Y035990D02*
X020140Y036290D01*
X022160Y036260D02*
X022160Y036020D01*
X022160Y035690D01*
X022160Y036020D02*
X022181Y036022D01*
X022201Y036027D01*
X022220Y036036D01*
X022237Y036048D01*
X022252Y036063D01*
X022264Y036080D01*
X022273Y036099D01*
X022278Y036119D01*
X022280Y036140D01*
X022278Y036161D01*
X022273Y036181D01*
X022264Y036200D01*
X022252Y036217D01*
X022237Y036232D01*
X022220Y036244D01*
X022201Y036253D01*
X022181Y036258D01*
X022160Y036260D01*
X022160Y036590D01*
X023770Y037640D02*
X023760Y038050D01*
X024120Y036590D02*
X024120Y035690D01*
X016140Y023290D02*
X016140Y022990D01*
X016290Y023140D02*
X015990Y023140D01*
X015640Y022090D02*
X015640Y021990D01*
X016090Y021990D01*
X016090Y021740D01*
X015190Y021740D01*
X015190Y021990D01*
X015640Y021990D01*
X013640Y021640D02*
X013642Y021738D01*
X013650Y021836D01*
X013662Y021933D01*
X013678Y022030D01*
X013700Y022126D01*
X013726Y022221D01*
X013757Y022314D01*
X013792Y022405D01*
X013832Y022495D01*
X013876Y022583D01*
X013925Y022668D01*
X013977Y022751D01*
X014034Y022831D01*
X014094Y022909D01*
X014158Y022983D01*
X014226Y023054D01*
X014297Y023122D01*
X014371Y023186D01*
X014449Y023246D01*
X014529Y023303D01*
X014612Y023355D01*
X014697Y023404D01*
X014785Y023448D01*
X014875Y023488D01*
X014966Y023523D01*
X015059Y023554D01*
X015154Y023580D01*
X015250Y023602D01*
X015347Y023618D01*
X015444Y023630D01*
X015542Y023638D01*
X015640Y023640D01*
X015738Y023638D01*
X015836Y023630D01*
X015933Y023618D01*
X016030Y023602D01*
X016126Y023580D01*
X016221Y023554D01*
X016314Y023523D01*
X016405Y023488D01*
X016495Y023448D01*
X016583Y023404D01*
X016668Y023355D01*
X016751Y023303D01*
X016831Y023246D01*
X016909Y023186D01*
X016983Y023122D01*
X017054Y023054D01*
X017122Y022983D01*
X017186Y022909D01*
X017246Y022831D01*
X017303Y022751D01*
X017355Y022668D01*
X017404Y022583D01*
X017448Y022495D01*
X017488Y022405D01*
X017523Y022314D01*
X017554Y022221D01*
X017580Y022126D01*
X017602Y022030D01*
X017618Y021933D01*
X017630Y021836D01*
X017638Y021738D01*
X017640Y021640D01*
X017638Y021542D01*
X017630Y021444D01*
X017618Y021347D01*
X017602Y021250D01*
X017580Y021154D01*
X017554Y021059D01*
X017523Y020966D01*
X017488Y020875D01*
X017448Y020785D01*
X017404Y020697D01*
X017355Y020612D01*
X017303Y020529D01*
X017246Y020449D01*
X017186Y020371D01*
X017122Y020297D01*
X017054Y020226D01*
X016983Y020158D01*
X016909Y020094D01*
X016831Y020034D01*
X016751Y019977D01*
X016668Y019925D01*
X016583Y019876D01*
X016495Y019832D01*
X016405Y019792D01*
X016314Y019757D01*
X016221Y019726D01*
X016126Y019700D01*
X016030Y019678D01*
X015933Y019662D01*
X015836Y019650D01*
X015738Y019642D01*
X015640Y019640D01*
X015542Y019642D01*
X015444Y019650D01*
X015347Y019662D01*
X015250Y019678D01*
X015154Y019700D01*
X015059Y019726D01*
X014966Y019757D01*
X014875Y019792D01*
X014785Y019832D01*
X014697Y019876D01*
X014612Y019925D01*
X014529Y019977D01*
X014449Y020034D01*
X014371Y020094D01*
X014297Y020158D01*
X014226Y020226D01*
X014158Y020297D01*
X014094Y020371D01*
X014034Y020449D01*
X013977Y020529D01*
X013925Y020612D01*
X013876Y020697D01*
X013832Y020785D01*
X013792Y020875D01*
X013757Y020966D01*
X013726Y021059D01*
X013700Y021154D01*
X013678Y021250D01*
X013662Y021347D01*
X013650Y021444D01*
X013642Y021542D01*
X013640Y021640D01*
X015640Y021390D02*
X015640Y021190D01*
X011390Y016640D02*
X009890Y016640D01*
X009640Y016390D01*
X009640Y015890D01*
X009890Y015640D01*
X009640Y015390D01*
X009640Y014890D01*
X009890Y014640D01*
X009640Y014390D01*
X009640Y013890D01*
X009890Y013640D01*
X009640Y013390D01*
X009640Y012890D01*
X009890Y012640D01*
X011390Y012640D01*
X011640Y012890D01*
X011640Y013390D01*
X011390Y013640D01*
X011640Y013890D01*
X011640Y014390D01*
X011390Y014640D01*
X011640Y014890D01*
X011640Y015390D01*
X011390Y015640D01*
X011640Y015890D01*
X011640Y016390D01*
X011390Y016640D01*
X017790Y003640D02*
X019490Y003640D01*
X019507Y003638D01*
X019524Y003634D01*
X019540Y003627D01*
X019554Y003617D01*
X019567Y003604D01*
X019577Y003590D01*
X019584Y003574D01*
X019588Y003557D01*
X019590Y003540D01*
X019590Y002740D01*
X019588Y002723D01*
X019584Y002706D01*
X019577Y002690D01*
X019567Y002676D01*
X019554Y002663D01*
X019540Y002653D01*
X019524Y002646D01*
X019507Y002642D01*
X019490Y002640D01*
X017790Y002640D01*
X017773Y002642D01*
X017756Y002646D01*
X017740Y002653D01*
X017726Y002663D01*
X017713Y002676D01*
X017703Y002690D01*
X017696Y002706D01*
X017692Y002723D01*
X017690Y002740D01*
X017690Y003540D01*
X017692Y003557D01*
X017696Y003574D01*
X017703Y003590D01*
X017713Y003604D01*
X017726Y003617D01*
X017740Y003627D01*
X017756Y003634D01*
X017773Y003638D01*
X017790Y003640D01*
X018490Y003140D02*
X018540Y003140D01*
X018740Y003140D02*
X018790Y003140D01*
X027290Y016640D02*
X029990Y016640D01*
X030007Y016642D01*
X030024Y016646D01*
X030040Y016653D01*
X030054Y016663D01*
X030067Y016676D01*
X030077Y016690D01*
X030084Y016706D01*
X030088Y016723D01*
X030090Y016740D01*
X030090Y017540D01*
X030088Y017557D01*
X030084Y017574D01*
X030077Y017590D01*
X030067Y017604D01*
X030054Y017617D01*
X030040Y017627D01*
X030024Y017634D01*
X030007Y017638D01*
X029990Y017640D01*
X027290Y017640D01*
X027273Y017638D01*
X027256Y017634D01*
X027240Y017627D01*
X027226Y017617D01*
X027213Y017604D01*
X027203Y017590D01*
X027196Y017574D01*
X027192Y017557D01*
X027190Y017540D01*
X027190Y016740D01*
X027192Y016723D01*
X027196Y016706D01*
X027203Y016690D01*
X027213Y016676D01*
X027226Y016663D01*
X027240Y016653D01*
X027256Y016646D01*
X027273Y016642D01*
X027290Y016640D01*
X028040Y017140D02*
X028520Y017140D01*
X028770Y017140D02*
X029240Y017140D01*
X040690Y025740D02*
X041590Y025740D01*
X041590Y025990D01*
X041140Y025990D01*
X040690Y025990D01*
X040690Y025740D01*
X039390Y025640D02*
X039392Y025726D01*
X039398Y025812D01*
X039409Y025897D01*
X039424Y025981D01*
X039442Y026065D01*
X039465Y026148D01*
X039492Y026230D01*
X039523Y026310D01*
X039558Y026388D01*
X039597Y026465D01*
X039639Y026540D01*
X039685Y026612D01*
X039734Y026682D01*
X039787Y026750D01*
X039843Y026815D01*
X039903Y026877D01*
X039965Y026937D01*
X040030Y026993D01*
X040098Y027046D01*
X040168Y027095D01*
X040240Y027141D01*
X040315Y027183D01*
X040392Y027222D01*
X040470Y027257D01*
X040550Y027288D01*
X040632Y027315D01*
X040715Y027338D01*
X040799Y027356D01*
X040883Y027371D01*
X040968Y027382D01*
X041054Y027388D01*
X041140Y027390D01*
X041226Y027388D01*
X041312Y027382D01*
X041397Y027371D01*
X041481Y027356D01*
X041565Y027338D01*
X041648Y027315D01*
X041730Y027288D01*
X041810Y027257D01*
X041888Y027222D01*
X041965Y027183D01*
X042040Y027141D01*
X042112Y027095D01*
X042182Y027046D01*
X042250Y026993D01*
X042315Y026937D01*
X042377Y026877D01*
X042437Y026815D01*
X042493Y026750D01*
X042546Y026682D01*
X042595Y026612D01*
X042641Y026540D01*
X042683Y026465D01*
X042722Y026388D01*
X042757Y026310D01*
X042788Y026230D01*
X042815Y026148D01*
X042838Y026065D01*
X042856Y025981D01*
X042871Y025897D01*
X042882Y025812D01*
X042888Y025726D01*
X042890Y025640D01*
X042888Y025554D01*
X042882Y025468D01*
X042871Y025383D01*
X042856Y025299D01*
X042838Y025215D01*
X042815Y025132D01*
X042788Y025050D01*
X042757Y024970D01*
X042722Y024892D01*
X042683Y024815D01*
X042641Y024740D01*
X042595Y024668D01*
X042546Y024598D01*
X042493Y024530D01*
X042437Y024465D01*
X042377Y024403D01*
X042315Y024343D01*
X042250Y024287D01*
X042182Y024234D01*
X042112Y024185D01*
X042040Y024139D01*
X041965Y024097D01*
X041888Y024058D01*
X041810Y024023D01*
X041730Y023992D01*
X041648Y023965D01*
X041565Y023942D01*
X041481Y023924D01*
X041397Y023909D01*
X041312Y023898D01*
X041226Y023892D01*
X041140Y023890D01*
X041054Y023892D01*
X040968Y023898D01*
X040883Y023909D01*
X040799Y023924D01*
X040715Y023942D01*
X040632Y023965D01*
X040550Y023992D01*
X040470Y024023D01*
X040392Y024058D01*
X040315Y024097D01*
X040240Y024139D01*
X040168Y024185D01*
X040098Y024234D01*
X040030Y024287D01*
X039965Y024343D01*
X039903Y024403D01*
X039843Y024465D01*
X039787Y024530D01*
X039734Y024598D01*
X039685Y024668D01*
X039639Y024740D01*
X039597Y024815D01*
X039558Y024892D01*
X039523Y024970D01*
X039492Y025050D01*
X039465Y025132D01*
X039442Y025215D01*
X039424Y025299D01*
X039409Y025383D01*
X039398Y025468D01*
X039392Y025554D01*
X039390Y025640D01*
X041140Y025390D02*
X041140Y025190D01*
X041140Y025990D02*
X041140Y026090D01*
X041790Y026790D02*
X041790Y027090D01*
X041940Y026940D02*
X041640Y026940D01*
D16*
X042065Y023875D02*
X042065Y023575D01*
X042290Y023575D01*
X042215Y023725D01*
X042215Y023800D01*
X042290Y023875D01*
X042440Y023875D01*
X042515Y023800D01*
X042515Y023650D01*
X042440Y023575D01*
X042515Y023414D02*
X042515Y023114D01*
X042515Y023264D02*
X042065Y023264D01*
X042215Y023114D01*
X042140Y022954D02*
X042065Y022879D01*
X042065Y022729D01*
X042140Y022654D01*
X042440Y022654D01*
X042515Y022729D01*
X042515Y022879D01*
X042440Y022954D01*
X042315Y021336D02*
X042240Y021336D01*
X042165Y021261D01*
X042165Y021111D01*
X042240Y021036D01*
X042315Y021336D02*
X042615Y021036D01*
X042615Y021336D01*
X042615Y020876D02*
X042615Y020575D01*
X042615Y020726D02*
X042165Y020726D01*
X042315Y020575D01*
X042240Y020415D02*
X042165Y020340D01*
X042165Y020190D01*
X042240Y020115D01*
X042540Y020115D01*
X042615Y020190D01*
X042615Y020340D01*
X042540Y020415D01*
X042540Y018376D02*
X042240Y018376D01*
X042165Y018301D01*
X042165Y018150D01*
X042240Y018075D01*
X042315Y018075D01*
X042390Y018150D01*
X042390Y018376D01*
X042540Y018376D02*
X042615Y018301D01*
X042615Y018150D01*
X042540Y018075D01*
X042540Y017915D02*
X042615Y017840D01*
X042615Y017690D01*
X042540Y017615D01*
X042240Y017615D01*
X042165Y017690D01*
X042165Y017840D01*
X042240Y017915D01*
X042240Y016336D02*
X042315Y016336D01*
X042390Y016261D01*
X042465Y016336D01*
X042540Y016336D01*
X042615Y016261D01*
X042615Y016111D01*
X042540Y016036D01*
X042615Y015876D02*
X042615Y015575D01*
X042615Y015726D02*
X042165Y015726D01*
X042315Y015575D01*
X042240Y015415D02*
X042165Y015340D01*
X042165Y015190D01*
X042240Y015115D01*
X042540Y015115D01*
X042615Y015190D01*
X042615Y015340D01*
X042540Y015415D01*
X042240Y016036D02*
X042165Y016111D01*
X042165Y016261D01*
X042240Y016336D01*
X042390Y016261D02*
X042390Y016186D01*
X046587Y012465D02*
X046737Y012465D01*
X046662Y012465D02*
X046662Y012015D01*
X046587Y012015D02*
X046737Y012015D01*
X046894Y012090D02*
X046969Y012015D01*
X047119Y012015D01*
X047194Y012090D01*
X047355Y012015D02*
X047655Y012015D01*
X047505Y012015D02*
X047505Y012465D01*
X047355Y012315D01*
X047194Y012390D02*
X047119Y012465D01*
X046969Y012465D01*
X046894Y012390D01*
X046894Y012090D01*
X046411Y011865D02*
X046186Y011640D01*
X046486Y011640D01*
X046411Y011415D02*
X046411Y011865D01*
X045876Y011865D02*
X045876Y011415D01*
X046026Y011415D02*
X045725Y011415D01*
X045565Y011490D02*
X045490Y011415D01*
X045340Y011415D01*
X045265Y011490D01*
X045265Y011790D01*
X045340Y011865D01*
X045490Y011865D01*
X045565Y011790D01*
X045725Y011715D02*
X045876Y011865D01*
X049165Y015190D02*
X049240Y015115D01*
X049540Y015115D01*
X049615Y015190D01*
X049615Y015340D01*
X049540Y015415D01*
X049540Y015575D02*
X049465Y015575D01*
X049390Y015650D01*
X049390Y015801D01*
X049465Y015876D01*
X049540Y015876D01*
X049615Y015801D01*
X049615Y015650D01*
X049540Y015575D01*
X049390Y015650D02*
X049315Y015575D01*
X049240Y015575D01*
X049165Y015650D01*
X049165Y015801D01*
X049240Y015876D01*
X049315Y015876D01*
X049390Y015801D01*
X049240Y015415D02*
X049165Y015340D01*
X049165Y015190D01*
X049625Y023115D02*
X049776Y023265D01*
X049700Y023265D01*
X049700Y023340D01*
X049776Y023340D01*
X049776Y023265D01*
X049932Y023340D02*
X050007Y023265D01*
X050158Y023265D01*
X050233Y023340D01*
X050233Y023490D01*
X050158Y023565D01*
X050082Y023565D01*
X049932Y023490D01*
X049932Y023715D01*
X050233Y023715D01*
X050393Y023490D02*
X050693Y023490D01*
X050618Y023265D02*
X050618Y023715D01*
X050393Y023490D01*
X049465Y023565D02*
X049465Y023640D01*
X049390Y023715D01*
X049240Y023715D01*
X049165Y023640D01*
X049465Y023565D02*
X049165Y023265D01*
X049465Y023265D01*
X048790Y025955D02*
X048865Y026030D01*
X048865Y026180D01*
X048790Y026255D01*
X048490Y026255D01*
X048415Y026180D01*
X048415Y026030D01*
X048490Y025955D01*
X048565Y025955D01*
X048640Y026030D01*
X048640Y026255D01*
X047865Y026180D02*
X047865Y026030D01*
X047790Y025955D01*
X047640Y025955D02*
X047565Y026105D01*
X047565Y026180D01*
X047640Y026255D01*
X047790Y026255D01*
X047865Y026180D01*
X047640Y025955D02*
X047415Y025955D01*
X047415Y026255D01*
X051515Y030784D02*
X051515Y031084D01*
X051590Y031244D02*
X051515Y031319D01*
X051515Y031469D01*
X051590Y031544D01*
X051890Y031244D01*
X051965Y031319D01*
X051965Y031469D01*
X051890Y031544D01*
X051590Y031544D01*
X051590Y031705D02*
X051665Y031705D01*
X051740Y031780D01*
X051740Y032005D01*
X051890Y032005D02*
X051590Y032005D01*
X051515Y031930D01*
X051515Y031780D01*
X051590Y031705D01*
X051890Y031705D02*
X051965Y031780D01*
X051965Y031930D01*
X051890Y032005D01*
X051890Y031244D02*
X051590Y031244D01*
X051740Y030934D02*
X051740Y030784D01*
X051965Y030784D02*
X051515Y030784D01*
X048865Y031780D02*
X048865Y031930D01*
X048790Y032005D01*
X048715Y032005D01*
X048640Y031930D01*
X048640Y031705D01*
X048790Y031705D01*
X048865Y031780D01*
X048640Y031705D02*
X048490Y031855D01*
X048415Y032005D01*
X047865Y032005D02*
X047865Y031705D01*
X047865Y031855D02*
X047415Y031855D01*
X047565Y031705D01*
X042926Y036390D02*
X042851Y036315D01*
X042700Y036315D01*
X042625Y036390D01*
X042625Y036540D02*
X042776Y036615D01*
X042851Y036615D01*
X042926Y036540D01*
X042926Y036390D01*
X042625Y036540D02*
X042625Y036765D01*
X042926Y036765D01*
X042465Y036765D02*
X042315Y036765D01*
X042390Y036765D02*
X042390Y036390D01*
X042315Y036315D01*
X042240Y036315D01*
X042165Y036390D01*
X041815Y035865D02*
X041815Y035415D01*
X041665Y035415D02*
X041965Y035415D01*
X041665Y035715D02*
X041815Y035865D01*
X038926Y036540D02*
X038625Y036540D01*
X038851Y036765D01*
X038851Y036315D01*
X038390Y036390D02*
X038390Y036765D01*
X038315Y036765D02*
X038465Y036765D01*
X038390Y036390D02*
X038315Y036315D01*
X038240Y036315D01*
X038165Y036390D01*
X037815Y035865D02*
X037815Y035415D01*
X037665Y035415D02*
X037965Y035415D01*
X037665Y035715D02*
X037815Y035865D01*
X035355Y032865D02*
X035355Y032415D01*
X035205Y032415D02*
X035505Y032415D01*
X035205Y032715D02*
X035355Y032865D01*
X035005Y031965D02*
X034855Y031890D01*
X034705Y031740D01*
X034930Y031740D01*
X035005Y031665D01*
X035005Y031590D01*
X034930Y031515D01*
X034780Y031515D01*
X034705Y031590D01*
X034705Y031740D01*
X034544Y031965D02*
X034394Y031965D01*
X034469Y031965D02*
X034469Y031590D01*
X034394Y031515D01*
X034319Y031515D01*
X034244Y031590D01*
X033140Y032390D02*
X033140Y032890D01*
X031965Y035415D02*
X031665Y035415D01*
X031815Y035415D02*
X031815Y035865D01*
X031665Y035715D01*
X032240Y036315D02*
X032315Y036315D01*
X032390Y036390D01*
X032390Y036765D01*
X032315Y036765D02*
X032465Y036765D01*
X032625Y036690D02*
X032700Y036765D01*
X032851Y036765D01*
X032926Y036690D01*
X032926Y036615D01*
X032851Y036540D01*
X032926Y036465D01*
X032926Y036390D01*
X032851Y036315D01*
X032700Y036315D01*
X032625Y036390D01*
X032776Y036540D02*
X032851Y036540D01*
X032240Y036315D02*
X032165Y036390D01*
X028801Y036820D02*
X028620Y036640D01*
X028620Y036595D01*
X028506Y036595D02*
X028326Y036595D01*
X028416Y036595D02*
X028416Y036865D01*
X028326Y036775D01*
X028211Y036730D02*
X028166Y036685D01*
X028031Y036685D01*
X028031Y036595D02*
X028031Y036865D01*
X028166Y036865D01*
X028211Y036820D01*
X028211Y036730D01*
X028121Y036685D02*
X028211Y036595D01*
X028620Y036865D02*
X028801Y036865D01*
X028801Y036820D01*
X028451Y037495D02*
X028451Y037765D01*
X028360Y037675D01*
X028270Y037765D01*
X028270Y037495D01*
X028156Y037540D02*
X028111Y037495D01*
X028021Y037495D01*
X027976Y037540D01*
X027873Y037540D02*
X027873Y037495D01*
X027828Y037495D01*
X027828Y037540D01*
X027873Y037540D01*
X027714Y037540D02*
X027669Y037495D01*
X027579Y037495D01*
X027534Y037540D01*
X027624Y037630D02*
X027669Y037630D01*
X027714Y037585D01*
X027714Y037540D01*
X027669Y037630D02*
X027714Y037675D01*
X027714Y037720D01*
X027669Y037765D01*
X027579Y037765D01*
X027534Y037720D01*
X027976Y037720D02*
X028021Y037765D01*
X028111Y037765D01*
X028156Y037720D01*
X028156Y037675D01*
X028111Y037630D01*
X028156Y037585D01*
X028156Y037540D01*
X028111Y037630D02*
X028066Y037630D01*
X023365Y031905D02*
X023365Y031605D01*
X023365Y031755D02*
X022915Y031755D01*
X023065Y031605D01*
X023065Y031444D02*
X022990Y031444D01*
X022915Y031369D01*
X022915Y031219D01*
X022990Y031144D01*
X022990Y030984D02*
X022915Y030909D01*
X022915Y030759D01*
X022990Y030684D01*
X023290Y030684D01*
X023365Y030759D01*
X023365Y030909D01*
X023290Y030984D01*
X023365Y031144D02*
X023065Y031444D01*
X023365Y031444D02*
X023365Y031144D01*
X026334Y028540D02*
X026334Y028240D01*
X026409Y028165D01*
X026559Y028165D01*
X026634Y028240D01*
X026794Y028165D02*
X027094Y028165D01*
X026944Y028165D02*
X026944Y028615D01*
X026794Y028465D01*
X026634Y028540D02*
X026559Y028615D01*
X026409Y028615D01*
X026334Y028540D01*
X027255Y028390D02*
X027255Y028240D01*
X027330Y028165D01*
X027480Y028165D01*
X027555Y028240D01*
X027555Y028315D01*
X027480Y028390D01*
X027255Y028390D01*
X027405Y028540D01*
X027555Y028615D01*
X024951Y027765D02*
X024770Y027585D01*
X024815Y027630D02*
X024951Y027495D01*
X024770Y027495D02*
X024770Y027765D01*
X024656Y027720D02*
X024476Y027540D01*
X024521Y027495D01*
X024611Y027495D01*
X024656Y027540D01*
X024656Y027720D01*
X024611Y027765D01*
X024521Y027765D01*
X024476Y027720D01*
X024476Y027540D01*
X024361Y027495D02*
X024181Y027495D01*
X024271Y027495D02*
X024271Y027765D01*
X024181Y027675D01*
X024531Y026865D02*
X024666Y026865D01*
X024711Y026820D01*
X024711Y026730D01*
X024666Y026685D01*
X024531Y026685D01*
X024531Y026595D02*
X024531Y026865D01*
X024621Y026685D02*
X024711Y026595D01*
X024826Y026595D02*
X025006Y026595D01*
X024916Y026595D02*
X024916Y026865D01*
X024826Y026775D01*
X025120Y026730D02*
X025301Y026730D01*
X025255Y026595D02*
X025255Y026865D01*
X025120Y026730D01*
X024034Y025740D02*
X023854Y025560D01*
X023899Y025515D01*
X023989Y025515D01*
X024034Y025560D01*
X024034Y025740D01*
X023989Y025785D01*
X023899Y025785D01*
X023854Y025740D01*
X023854Y025560D01*
X023740Y025560D02*
X023740Y025740D01*
X023560Y025560D01*
X023605Y025515D01*
X023695Y025515D01*
X023740Y025560D01*
X023740Y025740D02*
X023695Y025785D01*
X023605Y025785D01*
X023560Y025740D01*
X023560Y025560D01*
X023445Y025515D02*
X023265Y025515D01*
X023355Y025515D02*
X023355Y025785D01*
X023265Y025695D01*
X023210Y026415D02*
X023390Y026595D01*
X023390Y026640D01*
X023345Y026685D01*
X023255Y026685D01*
X023210Y026640D01*
X023095Y026640D02*
X023095Y026550D01*
X023050Y026505D01*
X022915Y026505D01*
X022915Y026415D02*
X022915Y026685D01*
X023050Y026685D01*
X023095Y026640D01*
X023005Y026505D02*
X023095Y026415D01*
X023210Y026415D02*
X023390Y026415D01*
X023504Y026460D02*
X023549Y026415D01*
X023639Y026415D01*
X023684Y026460D01*
X023684Y026550D01*
X023639Y026595D01*
X023594Y026595D01*
X023504Y026550D01*
X023504Y026685D01*
X023684Y026685D01*
X026234Y025440D02*
X026234Y025140D01*
X026309Y025065D01*
X026459Y025065D01*
X026534Y025140D01*
X026694Y025065D02*
X026994Y025365D01*
X026994Y025440D01*
X026919Y025515D01*
X026769Y025515D01*
X026694Y025440D01*
X026534Y025440D02*
X026459Y025515D01*
X026309Y025515D01*
X026234Y025440D01*
X026694Y025065D02*
X026994Y025065D01*
X027155Y025140D02*
X027230Y025065D01*
X027380Y025065D01*
X027455Y025140D01*
X027455Y025215D01*
X027380Y025290D01*
X027305Y025290D01*
X027380Y025290D02*
X027455Y025365D01*
X027455Y025440D01*
X027380Y025515D01*
X027230Y025515D01*
X027155Y025440D01*
X025319Y021265D02*
X025319Y020995D01*
X025319Y021085D02*
X025455Y021175D01*
X025319Y021085D02*
X025455Y020995D01*
X025205Y021040D02*
X025205Y021220D01*
X025160Y021265D01*
X025070Y021265D01*
X025025Y021220D01*
X025025Y021175D01*
X025070Y021130D01*
X025205Y021130D01*
X025205Y021040D02*
X025160Y020995D01*
X025070Y020995D01*
X025025Y021040D01*
X024910Y021040D02*
X024865Y020995D01*
X024775Y020995D01*
X024730Y021040D01*
X024820Y021130D02*
X024865Y021130D01*
X024910Y021085D01*
X024910Y021040D01*
X024865Y021130D02*
X024910Y021175D01*
X024910Y021220D01*
X024865Y021265D01*
X024775Y021265D01*
X024730Y021220D01*
X025031Y020365D02*
X025166Y020365D01*
X025211Y020320D01*
X025211Y020230D01*
X025166Y020185D01*
X025031Y020185D01*
X025031Y020095D02*
X025031Y020365D01*
X025121Y020185D02*
X025211Y020095D01*
X025326Y020095D02*
X025506Y020095D01*
X025416Y020095D02*
X025416Y020365D01*
X025326Y020275D01*
X025620Y020320D02*
X025665Y020365D01*
X025755Y020365D01*
X025801Y020320D01*
X025801Y020275D01*
X025755Y020230D01*
X025801Y020185D01*
X025801Y020140D01*
X025755Y020095D01*
X025665Y020095D01*
X025620Y020140D01*
X025710Y020230D02*
X025755Y020230D01*
X025455Y019675D02*
X025319Y019585D01*
X025455Y019495D01*
X025319Y019495D02*
X025319Y019765D01*
X025205Y019720D02*
X025025Y019540D01*
X025070Y019495D01*
X025160Y019495D01*
X025205Y019540D01*
X025205Y019720D01*
X025160Y019765D01*
X025070Y019765D01*
X025025Y019720D01*
X025025Y019540D01*
X024910Y019495D02*
X024730Y019495D01*
X024820Y019495D02*
X024820Y019765D01*
X024730Y019675D01*
X025031Y018865D02*
X025166Y018865D01*
X025211Y018820D01*
X025211Y018730D01*
X025166Y018685D01*
X025031Y018685D01*
X025031Y018595D02*
X025031Y018865D01*
X025121Y018685D02*
X025211Y018595D01*
X025326Y018595D02*
X025506Y018595D01*
X025416Y018595D02*
X025416Y018865D01*
X025326Y018775D01*
X025620Y018820D02*
X025665Y018865D01*
X025755Y018865D01*
X025801Y018820D01*
X025801Y018775D01*
X025620Y018595D01*
X025801Y018595D01*
X027315Y018190D02*
X027315Y017890D01*
X027390Y017815D01*
X027540Y017815D01*
X027615Y017890D01*
X027775Y018040D02*
X028001Y018265D01*
X028001Y017815D01*
X028076Y018040D02*
X027775Y018040D01*
X027615Y018190D02*
X027540Y018265D01*
X027390Y018265D01*
X027315Y018190D01*
X032181Y019495D02*
X032361Y019495D01*
X032271Y019495D02*
X032271Y019765D01*
X032181Y019675D01*
X032476Y019630D02*
X032566Y019675D01*
X032611Y019675D01*
X032656Y019630D01*
X032656Y019540D01*
X032611Y019495D01*
X032521Y019495D01*
X032476Y019540D01*
X032476Y019630D02*
X032476Y019765D01*
X032656Y019765D01*
X032770Y019765D02*
X032770Y019495D01*
X032770Y019585D02*
X032951Y019765D01*
X032815Y019630D02*
X032951Y019495D01*
X032916Y018865D02*
X032916Y018595D01*
X032826Y018595D02*
X033006Y018595D01*
X033120Y018640D02*
X033301Y018820D01*
X033301Y018640D01*
X033255Y018595D01*
X033165Y018595D01*
X033120Y018640D01*
X033120Y018820D01*
X033165Y018865D01*
X033255Y018865D01*
X033301Y018820D01*
X032916Y018865D02*
X032826Y018775D01*
X032711Y018730D02*
X032666Y018685D01*
X032531Y018685D01*
X032531Y018595D02*
X032531Y018865D01*
X032666Y018865D01*
X032711Y018820D01*
X032711Y018730D01*
X032621Y018685D02*
X032711Y018595D01*
X032826Y020595D02*
X032826Y020865D01*
X032961Y020865D01*
X033006Y020820D01*
X033006Y020730D01*
X032961Y020685D01*
X032826Y020685D01*
X032916Y020685D02*
X033006Y020595D01*
X033120Y020640D02*
X033165Y020595D01*
X033255Y020595D01*
X033301Y020640D01*
X033301Y020820D01*
X033255Y020865D01*
X033165Y020865D01*
X033120Y020820D01*
X033120Y020775D01*
X033165Y020730D01*
X033301Y020730D01*
X032951Y021495D02*
X032815Y021630D01*
X032770Y021585D02*
X032951Y021765D01*
X032770Y021765D02*
X032770Y021495D01*
X032656Y021540D02*
X032611Y021495D01*
X032521Y021495D01*
X032476Y021540D01*
X032476Y021630D02*
X032566Y021675D01*
X032611Y021675D01*
X032656Y021630D01*
X032656Y021540D01*
X032476Y021630D02*
X032476Y021765D01*
X032656Y021765D01*
X032271Y021765D02*
X032271Y021495D01*
X032181Y021495D02*
X032361Y021495D01*
X032181Y021675D02*
X032271Y021765D01*
X032826Y022595D02*
X032826Y022865D01*
X032961Y022865D01*
X033006Y022820D01*
X033006Y022730D01*
X032961Y022685D01*
X032826Y022685D01*
X032916Y022685D02*
X033006Y022595D01*
X033120Y022640D02*
X033120Y022685D01*
X033165Y022730D01*
X033255Y022730D01*
X033301Y022685D01*
X033301Y022640D01*
X033255Y022595D01*
X033165Y022595D01*
X033120Y022640D01*
X033165Y022730D02*
X033120Y022775D01*
X033120Y022820D01*
X033165Y022865D01*
X033255Y022865D01*
X033301Y022820D01*
X033301Y022775D01*
X033255Y022730D01*
X032951Y023495D02*
X032815Y023630D01*
X032770Y023585D02*
X032951Y023765D01*
X032770Y023765D02*
X032770Y023495D01*
X032656Y023540D02*
X032611Y023495D01*
X032521Y023495D01*
X032476Y023540D01*
X032476Y023630D02*
X032566Y023675D01*
X032611Y023675D01*
X032656Y023630D01*
X032656Y023540D01*
X032476Y023630D02*
X032476Y023765D01*
X032656Y023765D01*
X032271Y023765D02*
X032271Y023495D01*
X032181Y023495D02*
X032361Y023495D01*
X032181Y023675D02*
X032271Y023765D01*
X032605Y028436D02*
X032515Y028526D01*
X032785Y028526D01*
X032785Y028436D02*
X032785Y028616D01*
X032740Y028730D02*
X032695Y028730D01*
X032650Y028775D01*
X032650Y028865D01*
X032695Y028910D01*
X032740Y028910D01*
X032785Y028865D01*
X032785Y028775D01*
X032740Y028730D01*
X032650Y028775D02*
X032605Y028730D01*
X032560Y028730D01*
X032515Y028775D01*
X032515Y028865D01*
X032560Y028910D01*
X032605Y028910D01*
X032650Y028865D01*
X032740Y029025D02*
X032560Y029205D01*
X032740Y029205D01*
X032785Y029160D01*
X032785Y029070D01*
X032740Y029025D01*
X032560Y029025D01*
X032515Y029070D01*
X032515Y029160D01*
X032560Y029205D01*
X032515Y029319D02*
X032785Y029319D01*
X032695Y029319D02*
X032605Y029455D01*
X032695Y029319D02*
X032785Y029455D01*
X033415Y029416D02*
X033685Y029416D01*
X033685Y029326D02*
X033685Y029506D01*
X033640Y029620D02*
X033595Y029620D01*
X033550Y029665D01*
X033550Y029755D01*
X033595Y029801D01*
X033640Y029801D01*
X033685Y029755D01*
X033685Y029665D01*
X033640Y029620D01*
X033550Y029665D02*
X033505Y029620D01*
X033460Y029620D01*
X033415Y029665D01*
X033415Y029755D01*
X033460Y029801D01*
X033505Y029801D01*
X033550Y029755D01*
X033415Y029416D02*
X033505Y029326D01*
X033550Y029211D02*
X033595Y029166D01*
X033595Y029031D01*
X033685Y029031D02*
X033415Y029031D01*
X033415Y029166D01*
X033460Y029211D01*
X033550Y029211D01*
X033595Y029121D02*
X033685Y029211D01*
X034515Y029160D02*
X034560Y029205D01*
X034605Y029205D01*
X034650Y029160D01*
X034650Y029070D01*
X034605Y029025D01*
X034560Y029025D01*
X034515Y029070D01*
X034515Y029160D01*
X034650Y029160D02*
X034695Y029205D01*
X034740Y029205D01*
X034785Y029160D01*
X034785Y029070D01*
X034740Y029025D01*
X034695Y029025D01*
X034650Y029070D01*
X034695Y028910D02*
X034650Y028865D01*
X034650Y028730D01*
X034740Y028730D01*
X034785Y028775D01*
X034785Y028865D01*
X034740Y028910D01*
X034695Y028910D01*
X034560Y028820D02*
X034650Y028730D01*
X034560Y028820D02*
X034515Y028910D01*
X034515Y029319D02*
X034785Y029319D01*
X034695Y029319D02*
X034605Y029455D01*
X034695Y029319D02*
X034785Y029455D01*
X035415Y029461D02*
X035415Y029371D01*
X035460Y029326D01*
X035460Y029211D02*
X035550Y029211D01*
X035595Y029166D01*
X035595Y029031D01*
X035685Y029031D02*
X035415Y029031D01*
X035415Y029166D01*
X035460Y029211D01*
X035595Y029121D02*
X035685Y029211D01*
X035685Y029326D02*
X035505Y029506D01*
X035460Y029506D01*
X035415Y029461D01*
X035460Y029620D02*
X035415Y029665D01*
X035415Y029755D01*
X035460Y029801D01*
X035505Y029801D01*
X035685Y029620D01*
X035685Y029801D01*
X035685Y029506D02*
X035685Y029326D01*
X036026Y017265D02*
X036026Y016995D01*
X035936Y016995D02*
X036116Y016995D01*
X036230Y017040D02*
X036410Y017220D01*
X036410Y017040D01*
X036365Y016995D01*
X036275Y016995D01*
X036230Y017040D01*
X036230Y017220D01*
X036275Y017265D01*
X036365Y017265D01*
X036410Y017220D01*
X036525Y017220D02*
X036525Y017040D01*
X036705Y017220D01*
X036705Y017040D01*
X036660Y016995D01*
X036570Y016995D01*
X036525Y017040D01*
X036525Y017220D02*
X036570Y017265D01*
X036660Y017265D01*
X036705Y017220D01*
X036819Y017265D02*
X036819Y016995D01*
X036819Y017085D02*
X036955Y017175D01*
X036819Y017085D02*
X036955Y016995D01*
X036916Y016365D02*
X036916Y016095D01*
X036826Y016095D02*
X037006Y016095D01*
X037120Y016095D02*
X037301Y016095D01*
X037210Y016095D02*
X037210Y016365D01*
X037120Y016275D01*
X036916Y016365D02*
X036826Y016275D01*
X036711Y016320D02*
X036711Y016230D01*
X036666Y016185D01*
X036531Y016185D01*
X036531Y016095D02*
X036531Y016365D01*
X036666Y016365D01*
X036711Y016320D01*
X036621Y016185D02*
X036711Y016095D01*
X035936Y017175D02*
X036026Y017265D01*
X030576Y008765D02*
X030275Y008765D01*
X030275Y008540D01*
X030426Y008615D01*
X030501Y008615D01*
X030576Y008540D01*
X030576Y008390D01*
X030501Y008315D01*
X030350Y008315D01*
X030275Y008390D01*
X030115Y008390D02*
X030040Y008315D01*
X029890Y008315D01*
X029815Y008390D01*
X029815Y008690D01*
X029890Y008765D01*
X030040Y008765D01*
X030115Y008690D01*
X033765Y005830D02*
X033840Y005905D01*
X034140Y005605D01*
X034215Y005680D01*
X034215Y005830D01*
X034140Y005905D01*
X033840Y005905D01*
X033765Y005830D02*
X033765Y005680D01*
X033840Y005605D01*
X034140Y005605D01*
X034215Y005444D02*
X034215Y005144D01*
X034215Y005294D02*
X033765Y005294D01*
X033915Y005144D01*
X033840Y004984D02*
X033765Y004909D01*
X033765Y004759D01*
X033840Y004684D01*
X034140Y004684D01*
X034215Y004759D01*
X034215Y004909D01*
X034140Y004984D01*
X033890Y003685D02*
X033710Y003685D01*
X033595Y003640D02*
X033595Y003550D01*
X033550Y003505D01*
X033415Y003505D01*
X033415Y003415D02*
X033415Y003685D01*
X033550Y003685D01*
X033595Y003640D01*
X033505Y003505D02*
X033595Y003415D01*
X033710Y003415D02*
X033710Y003460D01*
X033890Y003640D01*
X033890Y003685D01*
X033900Y002785D02*
X033810Y002785D01*
X033765Y002740D01*
X033900Y002785D02*
X033945Y002740D01*
X033945Y002695D01*
X033765Y002515D01*
X033945Y002515D01*
X034060Y002515D02*
X034060Y002785D01*
X034105Y002650D02*
X034240Y002515D01*
X034354Y002515D02*
X034534Y002695D01*
X034534Y002740D01*
X034489Y002785D01*
X034399Y002785D01*
X034354Y002740D01*
X034240Y002785D02*
X034060Y002605D01*
X034354Y002515D02*
X034534Y002515D01*
X036765Y004759D02*
X036840Y004684D01*
X037140Y004684D01*
X037215Y004759D01*
X037215Y004909D01*
X037140Y004984D01*
X037215Y005144D02*
X037215Y005444D01*
X037215Y005294D02*
X036765Y005294D01*
X036915Y005144D01*
X036840Y004984D02*
X036765Y004909D01*
X036765Y004759D01*
X036915Y005605D02*
X036765Y005755D01*
X037215Y005755D01*
X037215Y005605D02*
X037215Y005905D01*
X035665Y006594D02*
X035440Y006594D01*
X035290Y006744D01*
X035215Y006744D01*
X035365Y006905D02*
X035215Y007055D01*
X035665Y007055D01*
X035665Y006905D02*
X035665Y007205D01*
X035440Y006594D02*
X035290Y006444D01*
X035215Y006444D01*
X028405Y003765D02*
X028405Y003690D01*
X028105Y003390D01*
X028105Y003315D01*
X027944Y003390D02*
X027869Y003315D01*
X027719Y003315D01*
X027644Y003390D01*
X027644Y003690D01*
X027719Y003765D01*
X027869Y003765D01*
X027944Y003690D01*
X028105Y003765D02*
X028405Y003765D01*
X022034Y005015D02*
X021899Y005150D01*
X021854Y005105D02*
X022034Y005285D01*
X021854Y005285D02*
X021854Y005015D01*
X021740Y005060D02*
X021695Y005015D01*
X021605Y005015D01*
X021560Y005060D01*
X021740Y005240D01*
X021740Y005060D01*
X021740Y005240D02*
X021695Y005285D01*
X021605Y005285D01*
X021560Y005240D01*
X021560Y005060D01*
X021445Y005015D02*
X021265Y005015D01*
X021355Y005015D02*
X021355Y005285D01*
X021265Y005195D01*
X021300Y005915D02*
X021300Y006185D01*
X021210Y006095D01*
X021280Y006015D02*
X021355Y006090D01*
X021355Y006165D01*
X021280Y006240D01*
X021055Y006240D01*
X021055Y006090D01*
X021130Y006015D01*
X021280Y006015D01*
X021210Y005915D02*
X021390Y005915D01*
X021095Y005915D02*
X021005Y006005D01*
X021050Y006005D02*
X020915Y006005D01*
X020894Y006090D02*
X020819Y006015D01*
X020669Y006015D01*
X020594Y006090D01*
X020594Y006390D01*
X020669Y006465D01*
X020819Y006465D01*
X020894Y006390D01*
X020915Y006185D02*
X021050Y006185D01*
X021095Y006140D01*
X021095Y006050D01*
X021050Y006005D01*
X020915Y005915D02*
X020915Y006185D01*
X021055Y006240D02*
X021205Y006390D01*
X021355Y006465D01*
X019246Y002835D02*
X019246Y002385D01*
X019255Y002515D02*
X019255Y002065D01*
X019105Y002065D02*
X019405Y002065D01*
X019396Y002385D02*
X019095Y002385D01*
X019105Y002365D02*
X019255Y002515D01*
X019095Y002685D02*
X019246Y002835D01*
X018935Y002835D02*
X018785Y002835D01*
X018860Y002835D02*
X018860Y002460D01*
X018785Y002385D01*
X018710Y002385D01*
X018635Y002460D01*
X018644Y002440D02*
X018644Y002140D01*
X018719Y002065D01*
X018869Y002065D01*
X018944Y002140D01*
X018944Y002440D02*
X018869Y002515D01*
X018719Y002515D01*
X018644Y002440D01*
X015489Y005060D02*
X015489Y005285D01*
X015444Y005285D02*
X015534Y005285D01*
X015489Y005060D02*
X015444Y005015D01*
X015399Y005015D01*
X015354Y005060D01*
X015240Y005060D02*
X015240Y005240D01*
X015195Y005285D01*
X015060Y005285D01*
X015060Y005015D01*
X015195Y005015D01*
X015240Y005060D01*
X014945Y005015D02*
X014945Y005195D01*
X014855Y005285D01*
X014765Y005195D01*
X014765Y005015D01*
X014765Y005150D02*
X014945Y005150D01*
X014890Y005915D02*
X014710Y005915D01*
X014890Y006095D01*
X014890Y006140D01*
X014845Y006185D01*
X014755Y006185D01*
X014710Y006140D01*
X014595Y006140D02*
X014595Y006050D01*
X014550Y006005D01*
X014415Y006005D01*
X014415Y005915D02*
X014415Y006185D01*
X014550Y006185D01*
X014595Y006140D01*
X014505Y006005D02*
X014595Y005915D01*
X015004Y005960D02*
X015049Y005915D01*
X015139Y005915D01*
X015184Y005960D01*
X015184Y006005D01*
X015139Y006050D01*
X015094Y006050D01*
X015139Y006050D02*
X015184Y006095D01*
X015184Y006140D01*
X015139Y006185D01*
X015049Y006185D01*
X015004Y006140D01*
X012355Y007515D02*
X012055Y007515D01*
X012355Y007815D01*
X012355Y007890D01*
X012280Y007965D01*
X012130Y007965D01*
X012055Y007890D01*
X011894Y007890D02*
X011819Y007965D01*
X011669Y007965D01*
X011594Y007890D01*
X011594Y007590D01*
X011669Y007515D01*
X011819Y007515D01*
X011894Y007590D01*
X014465Y009190D02*
X014540Y009115D01*
X014690Y009115D01*
X014765Y009190D01*
X014765Y009265D01*
X014690Y009340D01*
X014540Y009340D01*
X014465Y009415D01*
X014465Y009490D01*
X014540Y009565D01*
X014690Y009565D01*
X014765Y009490D01*
X014925Y009415D02*
X015076Y009565D01*
X015076Y009115D01*
X015226Y009115D02*
X014925Y009115D01*
X016326Y010095D02*
X016326Y010365D01*
X016461Y010365D01*
X016506Y010320D01*
X016506Y010230D01*
X016461Y010185D01*
X016326Y010185D01*
X016416Y010185D02*
X016506Y010095D01*
X016620Y010140D02*
X016665Y010095D01*
X016755Y010095D01*
X016801Y010140D01*
X016801Y010230D01*
X016755Y010275D01*
X016710Y010275D01*
X016620Y010230D01*
X016620Y010365D01*
X016801Y010365D01*
X016455Y010995D02*
X016319Y011085D01*
X016455Y011175D01*
X016319Y011265D02*
X016319Y010995D01*
X016205Y011040D02*
X016160Y010995D01*
X016070Y010995D01*
X016025Y011040D01*
X016205Y011220D01*
X016205Y011040D01*
X016205Y011220D02*
X016160Y011265D01*
X016070Y011265D01*
X016025Y011220D01*
X016025Y011040D01*
X015910Y010995D02*
X015730Y010995D01*
X015910Y011175D01*
X015910Y011220D01*
X015865Y011265D01*
X015775Y011265D01*
X015730Y011220D01*
X015616Y011220D02*
X015571Y011265D01*
X015481Y011265D01*
X015436Y011220D01*
X015616Y011220D02*
X015616Y011175D01*
X015436Y010995D01*
X015616Y010995D01*
X016326Y012095D02*
X016326Y012365D01*
X016461Y012365D01*
X016506Y012320D01*
X016506Y012230D01*
X016461Y012185D01*
X016326Y012185D01*
X016416Y012185D02*
X016506Y012095D01*
X016620Y012140D02*
X016665Y012095D01*
X016755Y012095D01*
X016801Y012140D01*
X016801Y012185D01*
X016755Y012230D01*
X016710Y012230D01*
X016755Y012230D02*
X016801Y012275D01*
X016801Y012320D01*
X016755Y012365D01*
X016665Y012365D01*
X016620Y012320D01*
X016455Y012995D02*
X016319Y013085D01*
X016455Y013175D01*
X016319Y013265D02*
X016319Y012995D01*
X016205Y013040D02*
X016160Y012995D01*
X016070Y012995D01*
X016025Y013040D01*
X016205Y013220D01*
X016205Y013040D01*
X016205Y013220D02*
X016160Y013265D01*
X016070Y013265D01*
X016025Y013220D01*
X016025Y013040D01*
X015910Y012995D02*
X015730Y012995D01*
X015910Y013175D01*
X015910Y013220D01*
X015865Y013265D01*
X015775Y013265D01*
X015730Y013220D01*
X015616Y013220D02*
X015571Y013265D01*
X015481Y013265D01*
X015436Y013220D01*
X015616Y013220D02*
X015616Y013175D01*
X015436Y012995D01*
X015616Y012995D01*
X016326Y014095D02*
X016326Y014365D01*
X016461Y014365D01*
X016506Y014320D01*
X016506Y014230D01*
X016461Y014185D01*
X016326Y014185D01*
X016416Y014185D02*
X016506Y014095D01*
X016620Y014230D02*
X016801Y014230D01*
X016755Y014095D02*
X016755Y014365D01*
X016620Y014230D01*
X016455Y014995D02*
X016319Y015085D01*
X016455Y015175D01*
X016319Y015265D02*
X016319Y014995D01*
X016205Y015040D02*
X016160Y014995D01*
X016070Y014995D01*
X016025Y015040D01*
X016205Y015220D01*
X016205Y015040D01*
X016205Y015220D02*
X016160Y015265D01*
X016070Y015265D01*
X016025Y015220D01*
X016025Y015040D01*
X015910Y014995D02*
X015730Y014995D01*
X015910Y015175D01*
X015910Y015220D01*
X015865Y015265D01*
X015775Y015265D01*
X015730Y015220D01*
X015616Y015220D02*
X015571Y015265D01*
X015481Y015265D01*
X015436Y015220D01*
X015616Y015220D02*
X015616Y015175D01*
X015436Y014995D01*
X015616Y014995D01*
X016326Y016095D02*
X016326Y016365D01*
X016461Y016365D01*
X016506Y016320D01*
X016506Y016230D01*
X016461Y016185D01*
X016326Y016185D01*
X016416Y016185D02*
X016506Y016095D01*
X016620Y016095D02*
X016801Y016275D01*
X016801Y016320D01*
X016755Y016365D01*
X016665Y016365D01*
X016620Y016320D01*
X016620Y016095D02*
X016801Y016095D01*
X016455Y016995D02*
X016319Y017085D01*
X016455Y017175D01*
X016319Y017265D02*
X016319Y016995D01*
X016205Y017040D02*
X016160Y016995D01*
X016070Y016995D01*
X016025Y017040D01*
X016205Y017220D01*
X016205Y017040D01*
X016205Y017220D02*
X016160Y017265D01*
X016070Y017265D01*
X016025Y017220D01*
X016025Y017040D01*
X015910Y016995D02*
X015730Y016995D01*
X015910Y017175D01*
X015910Y017220D01*
X015865Y017265D01*
X015775Y017265D01*
X015730Y017220D01*
X015616Y017220D02*
X015571Y017265D01*
X015481Y017265D01*
X015436Y017220D01*
X015616Y017220D02*
X015616Y017175D01*
X015436Y016995D01*
X015616Y016995D01*
X016820Y018434D02*
X017120Y018434D01*
X017195Y018509D01*
X017195Y018659D01*
X017120Y018734D01*
X017195Y018894D02*
X017195Y019194D01*
X017195Y019044D02*
X016745Y019044D01*
X016895Y018894D01*
X016820Y018734D02*
X016745Y018659D01*
X016745Y018509D01*
X016820Y018434D01*
X016820Y019355D02*
X016895Y019355D01*
X016970Y019430D01*
X016970Y019580D01*
X017045Y019655D01*
X017120Y019655D01*
X017195Y019580D01*
X017195Y019430D01*
X017120Y019355D01*
X017045Y019355D01*
X016970Y019430D01*
X016970Y019580D02*
X016895Y019655D01*
X016820Y019655D01*
X016745Y019580D01*
X016745Y019430D01*
X016820Y019355D01*
X010801Y019365D02*
X010710Y019320D01*
X010620Y019230D01*
X010755Y019230D01*
X010801Y019185D01*
X010801Y019140D01*
X010755Y019095D01*
X010665Y019095D01*
X010620Y019140D01*
X010620Y019230D01*
X010506Y019095D02*
X010326Y019095D01*
X010416Y019095D02*
X010416Y019365D01*
X010326Y019275D01*
X010211Y019230D02*
X010166Y019185D01*
X010031Y019185D01*
X010031Y019095D02*
X010031Y019365D01*
X010166Y019365D01*
X010211Y019320D01*
X010211Y019230D01*
X010121Y019185D02*
X010211Y019095D01*
X010160Y019995D02*
X010070Y019995D01*
X010025Y020040D01*
X010205Y020220D01*
X010205Y020040D01*
X010160Y019995D01*
X010025Y020040D02*
X010025Y020220D01*
X010070Y020265D01*
X010160Y020265D01*
X010205Y020220D01*
X010319Y020265D02*
X010319Y019995D01*
X010319Y020085D02*
X010455Y020175D01*
X010319Y020085D02*
X010455Y019995D01*
X009910Y020040D02*
X009910Y020085D01*
X009865Y020130D01*
X009730Y020130D01*
X009730Y020040D01*
X009775Y019995D01*
X009865Y019995D01*
X009910Y020040D01*
X009820Y020220D02*
X009730Y020130D01*
X009820Y020220D02*
X009910Y020265D01*
X009489Y021515D02*
X009354Y021605D01*
X009489Y021695D01*
X009354Y021785D02*
X009354Y021515D01*
X009240Y021560D02*
X009195Y021515D01*
X009105Y021515D01*
X009060Y021560D01*
X008945Y021560D02*
X008900Y021515D01*
X008810Y021515D01*
X008765Y021560D01*
X008765Y021650D02*
X008855Y021695D01*
X008900Y021695D01*
X008945Y021650D01*
X008945Y021560D01*
X008765Y021650D02*
X008765Y021785D01*
X008945Y021785D01*
X009060Y021740D02*
X009105Y021785D01*
X009195Y021785D01*
X009240Y021740D01*
X009240Y021695D01*
X009195Y021650D01*
X009240Y021605D01*
X009240Y021560D01*
X009195Y021650D02*
X009150Y021650D01*
X009139Y022415D02*
X009049Y022415D01*
X009004Y022460D01*
X009004Y022550D02*
X009094Y022595D01*
X009139Y022595D01*
X009184Y022550D01*
X009184Y022460D01*
X009139Y022415D01*
X009004Y022550D02*
X009004Y022685D01*
X009184Y022685D01*
X008800Y022685D02*
X008800Y022415D01*
X008710Y022415D02*
X008890Y022415D01*
X008710Y022595D02*
X008800Y022685D01*
X008595Y022640D02*
X008595Y022550D01*
X008550Y022505D01*
X008415Y022505D01*
X008415Y022415D02*
X008415Y022685D01*
X008550Y022685D01*
X008595Y022640D01*
X008505Y022505D02*
X008595Y022415D01*
X004955Y020175D02*
X004819Y020085D01*
X004955Y019995D01*
X004819Y019995D02*
X004819Y020265D01*
X004705Y020220D02*
X004660Y020265D01*
X004570Y020265D01*
X004525Y020220D01*
X004525Y020175D01*
X004570Y020130D01*
X004705Y020130D01*
X004705Y020040D02*
X004705Y020220D01*
X004705Y020040D02*
X004660Y019995D01*
X004570Y019995D01*
X004525Y020040D01*
X004410Y020040D02*
X004410Y020220D01*
X004365Y020265D01*
X004275Y020265D01*
X004230Y020220D01*
X004230Y020175D01*
X004275Y020130D01*
X004410Y020130D01*
X004410Y020040D02*
X004365Y019995D01*
X004275Y019995D01*
X004230Y020040D01*
X004531Y019365D02*
X004666Y019365D01*
X004711Y019320D01*
X004711Y019230D01*
X004666Y019185D01*
X004531Y019185D01*
X004531Y019095D02*
X004531Y019365D01*
X004621Y019185D02*
X004711Y019095D01*
X004826Y019095D02*
X005006Y019275D01*
X005006Y019320D01*
X004961Y019365D01*
X004871Y019365D01*
X004826Y019320D01*
X004826Y019095D02*
X005006Y019095D01*
X005120Y019140D02*
X005301Y019320D01*
X005301Y019140D01*
X005255Y019095D01*
X005165Y019095D01*
X005120Y019140D01*
X005120Y019320D01*
X005165Y019365D01*
X005255Y019365D01*
X005301Y019320D01*
X004284Y021515D02*
X004149Y021605D01*
X004284Y021695D01*
X004149Y021785D02*
X004149Y021515D01*
X004034Y021560D02*
X003989Y021515D01*
X003899Y021515D01*
X003854Y021560D01*
X004034Y021740D01*
X004034Y021560D01*
X003854Y021560D02*
X003854Y021740D01*
X003899Y021785D01*
X003989Y021785D01*
X004034Y021740D01*
X003740Y021650D02*
X003560Y021650D01*
X003695Y021785D01*
X003695Y021515D01*
X003445Y021560D02*
X003445Y021740D01*
X003400Y021785D01*
X003310Y021785D01*
X003265Y021740D01*
X003265Y021695D01*
X003310Y021650D01*
X003445Y021650D01*
X003445Y021560D02*
X003400Y021515D01*
X003310Y021515D01*
X003265Y021560D01*
X003300Y022415D02*
X003300Y022685D01*
X003210Y022595D01*
X003095Y022550D02*
X003050Y022505D01*
X002915Y022505D01*
X002915Y022415D02*
X002915Y022685D01*
X003050Y022685D01*
X003095Y022640D01*
X003095Y022550D01*
X003005Y022505D02*
X003095Y022415D01*
X003210Y022415D02*
X003390Y022415D01*
X003504Y022460D02*
X003549Y022415D01*
X003639Y022415D01*
X003684Y022460D01*
X003684Y022640D01*
X003639Y022685D01*
X003549Y022685D01*
X003504Y022640D01*
X003504Y022595D01*
X003549Y022550D01*
X003684Y022550D01*
X004690Y026965D02*
X004990Y026965D01*
X005065Y027040D01*
X005065Y027190D01*
X004990Y027265D01*
X005065Y027425D02*
X004765Y027726D01*
X004690Y027726D01*
X004615Y027651D01*
X004615Y027500D01*
X004690Y027425D01*
X004690Y027265D02*
X004615Y027190D01*
X004615Y027040D01*
X004690Y026965D01*
X005065Y027425D02*
X005065Y027726D01*
X005065Y027886D02*
X004765Y028186D01*
X004690Y028186D01*
X004615Y028111D01*
X004615Y027961D01*
X004690Y027886D01*
X005065Y027886D02*
X005065Y028186D01*
X006684Y029390D02*
X006759Y029315D01*
X006909Y029315D01*
X006984Y029390D01*
X007144Y029315D02*
X007444Y029315D01*
X007294Y029315D02*
X007294Y029765D01*
X007144Y029615D01*
X006984Y029690D02*
X006909Y029765D01*
X006759Y029765D01*
X006684Y029690D01*
X006684Y029390D01*
X007605Y029390D02*
X007680Y029315D01*
X007830Y029315D01*
X007905Y029390D01*
X007905Y029690D01*
X007830Y029765D01*
X007680Y029765D01*
X007605Y029690D01*
X007605Y029615D01*
X007680Y029540D01*
X007905Y029540D01*
X005265Y029859D02*
X005190Y029784D01*
X005265Y029859D02*
X005265Y030009D01*
X005190Y030084D01*
X005115Y030084D01*
X005040Y030009D01*
X005040Y029859D01*
X004965Y029784D01*
X004890Y029784D01*
X004815Y029859D01*
X004815Y030009D01*
X004890Y030084D01*
X004815Y030244D02*
X005115Y030244D01*
X005265Y030394D01*
X005115Y030544D01*
X004815Y030544D01*
X004965Y030705D02*
X004815Y030855D01*
X005265Y030855D01*
X005265Y030705D02*
X005265Y031005D01*
X004365Y031205D02*
X004365Y031505D01*
X004365Y031355D02*
X003915Y031355D01*
X004065Y031205D01*
X003265Y031005D02*
X003265Y030705D01*
X002965Y031005D01*
X002890Y031005D01*
X002815Y030930D01*
X002815Y030780D01*
X002890Y030705D01*
X002815Y030544D02*
X003115Y030544D01*
X003265Y030394D01*
X003115Y030244D01*
X002815Y030244D01*
X002890Y030084D02*
X002815Y030009D01*
X002815Y029859D01*
X002890Y029784D01*
X002965Y029784D01*
X003040Y029859D01*
X003040Y030009D01*
X003115Y030084D01*
X003190Y030084D01*
X003265Y030009D01*
X003265Y029859D01*
X003190Y029784D01*
X002365Y031205D02*
X002365Y031505D01*
X002365Y031355D02*
X001915Y031355D01*
X002065Y031205D01*
X001890Y032640D02*
X002390Y032640D01*
X002815Y033894D02*
X002815Y034044D01*
X002815Y033969D02*
X003190Y033969D01*
X003265Y033894D01*
X003265Y033819D01*
X003190Y033744D01*
X003190Y034205D02*
X003265Y034205D01*
X003190Y034205D02*
X002890Y034505D01*
X002815Y034505D01*
X002815Y034205D01*
X002365Y034705D02*
X002365Y035005D01*
X002365Y034855D02*
X001915Y034855D01*
X002065Y034705D01*
X004165Y036415D02*
X004465Y036415D01*
X004315Y036415D02*
X004315Y036865D01*
X004165Y036715D01*
X004740Y037315D02*
X004815Y037315D01*
X004890Y037390D01*
X004890Y037765D01*
X004815Y037765D02*
X004965Y037765D01*
X005125Y037690D02*
X005125Y037615D01*
X005200Y037540D01*
X005351Y037540D01*
X005426Y037465D01*
X005426Y037390D01*
X005351Y037315D01*
X005200Y037315D01*
X005125Y037390D01*
X005125Y037465D01*
X005200Y037540D01*
X005351Y037540D02*
X005426Y037615D01*
X005426Y037690D01*
X005351Y037765D01*
X005200Y037765D01*
X005125Y037690D01*
X004740Y037315D02*
X004665Y037390D01*
X006640Y036890D02*
X006640Y036390D01*
X007665Y036415D02*
X007965Y036415D01*
X007815Y036415D02*
X007815Y036865D01*
X007665Y036715D01*
X008240Y037315D02*
X008315Y037315D01*
X008390Y037390D01*
X008390Y037765D01*
X008315Y037765D02*
X008465Y037765D01*
X008625Y037690D02*
X008625Y037615D01*
X008700Y037540D01*
X008926Y037540D01*
X008926Y037390D02*
X008926Y037690D01*
X008851Y037765D01*
X008700Y037765D01*
X008625Y037690D01*
X008625Y037390D02*
X008700Y037315D01*
X008851Y037315D01*
X008926Y037390D01*
X008240Y037315D02*
X008165Y037390D01*
X008890Y035765D02*
X008815Y035690D01*
X008815Y035390D01*
X008890Y035315D01*
X009040Y035315D01*
X009115Y035390D01*
X009275Y035315D02*
X009576Y035615D01*
X009576Y035690D01*
X009501Y035765D01*
X009350Y035765D01*
X009275Y035690D01*
X009115Y035690D02*
X009040Y035765D01*
X008890Y035765D01*
X009275Y035315D02*
X009576Y035315D01*
X009736Y035540D02*
X010036Y035540D01*
X009961Y035315D02*
X009961Y035765D01*
X009736Y035540D01*
X010140Y036390D02*
X010140Y036890D01*
X011165Y036715D02*
X011315Y036865D01*
X011315Y036415D01*
X011165Y036415D02*
X011465Y036415D01*
X011740Y037315D02*
X011815Y037315D01*
X011890Y037390D01*
X011890Y037765D01*
X011815Y037765D02*
X011965Y037765D01*
X012125Y037615D02*
X012276Y037765D01*
X012276Y037315D01*
X012426Y037315D02*
X012125Y037315D01*
X011740Y037315D02*
X011665Y037390D01*
X012586Y037390D02*
X012586Y037690D01*
X012661Y037765D01*
X012811Y037765D01*
X012886Y037690D01*
X012586Y037390D01*
X012661Y037315D01*
X012811Y037315D01*
X012886Y037390D01*
X012886Y037690D01*
X013640Y036890D02*
X013640Y036390D01*
X015434Y035460D02*
X015434Y035160D01*
X015509Y035085D01*
X015659Y035085D01*
X015734Y035160D01*
X015894Y035085D02*
X016194Y035085D01*
X016044Y035085D02*
X016044Y035535D01*
X015894Y035385D01*
X015734Y035460D02*
X015659Y035535D01*
X015509Y035535D01*
X015434Y035460D01*
X016355Y035535D02*
X016655Y035535D01*
X016655Y035460D01*
X016355Y035160D01*
X016355Y035085D01*
X017050Y031801D02*
X017050Y031620D01*
X016915Y031755D01*
X017185Y031755D01*
X017185Y031506D02*
X017185Y031326D01*
X017005Y031506D01*
X016960Y031506D01*
X016915Y031461D01*
X016915Y031371D01*
X016960Y031326D01*
X016960Y031211D02*
X017050Y031211D01*
X017095Y031166D01*
X017095Y031031D01*
X017185Y031031D02*
X016915Y031031D01*
X016915Y031166D01*
X016960Y031211D01*
X017095Y031121D02*
X017185Y031211D01*
X016285Y031315D02*
X016240Y031270D01*
X016060Y031451D01*
X016240Y031451D01*
X016285Y031405D01*
X016285Y031315D01*
X016240Y031270D02*
X016060Y031270D01*
X016015Y031315D01*
X016015Y031405D01*
X016060Y031451D01*
X016060Y031156D02*
X016240Y030976D01*
X016285Y030976D01*
X016285Y030816D02*
X016015Y030816D01*
X016150Y030681D01*
X016150Y030861D01*
X016015Y030976D02*
X016015Y031156D01*
X016060Y031156D01*
X014765Y030489D02*
X014675Y030354D01*
X014585Y030489D01*
X014495Y030354D02*
X014765Y030354D01*
X014720Y030240D02*
X014765Y030195D01*
X014765Y030105D01*
X014720Y030060D01*
X014540Y030240D01*
X014720Y030240D01*
X014540Y030240D02*
X014495Y030195D01*
X014495Y030105D01*
X014540Y030060D01*
X014720Y030060D01*
X014765Y029945D02*
X014765Y029765D01*
X014765Y029855D02*
X014495Y029855D01*
X014585Y029765D01*
X013865Y029755D02*
X013865Y029845D01*
X013820Y029890D01*
X013775Y029890D01*
X013730Y029845D01*
X013730Y029710D01*
X013820Y029710D01*
X013865Y029755D01*
X013730Y029710D02*
X013640Y029800D01*
X013595Y029890D01*
X013640Y029595D02*
X013730Y029595D01*
X013775Y029550D01*
X013775Y029415D01*
X013865Y029415D02*
X013595Y029415D01*
X013595Y029550D01*
X013640Y029595D01*
X013775Y029505D02*
X013865Y029595D01*
X018415Y030759D02*
X018490Y030684D01*
X018790Y030684D01*
X018865Y030759D01*
X018865Y030909D01*
X018790Y030984D01*
X018865Y031144D02*
X018565Y031444D01*
X018490Y031444D01*
X018415Y031369D01*
X018415Y031219D01*
X018490Y031144D01*
X018490Y030984D02*
X018415Y030909D01*
X018415Y030759D01*
X018865Y031144D02*
X018865Y031444D01*
X018790Y031605D02*
X018490Y031905D01*
X018790Y031905D01*
X018865Y031830D01*
X018865Y031680D01*
X018790Y031605D01*
X018490Y031605D01*
X018415Y031680D01*
X018415Y031830D01*
X018490Y031905D01*
X009365Y013426D02*
X009365Y013125D01*
X009065Y013426D01*
X008990Y013426D01*
X008915Y013351D01*
X008915Y013200D01*
X008990Y013125D01*
X008915Y012965D02*
X008915Y012815D01*
X008915Y012890D02*
X009290Y012890D01*
X009365Y012815D01*
X009365Y012740D01*
X009290Y012665D01*
X006951Y005265D02*
X006860Y005265D01*
X006905Y005265D02*
X006905Y005040D01*
X006860Y004995D01*
X006815Y004995D01*
X006770Y005040D01*
X006656Y005040D02*
X006656Y005220D01*
X006611Y005265D01*
X006476Y005265D01*
X006476Y004995D01*
X006611Y004995D01*
X006656Y005040D01*
X006361Y004995D02*
X006361Y005175D01*
X006271Y005265D01*
X006181Y005175D01*
X006181Y004995D01*
X006181Y005130D02*
X006361Y005130D01*
X006531Y004365D02*
X006666Y004365D01*
X006711Y004320D01*
X006711Y004230D01*
X006666Y004185D01*
X006531Y004185D01*
X006531Y004095D02*
X006531Y004365D01*
X006621Y004185D02*
X006711Y004095D01*
X006826Y004095D02*
X007006Y004275D01*
X007006Y004320D01*
X006961Y004365D01*
X006871Y004365D01*
X006826Y004320D01*
X006826Y004095D02*
X007006Y004095D01*
X007120Y004095D02*
X007301Y004095D01*
X007210Y004095D02*
X007210Y004365D01*
X007120Y004275D01*
D17*
X015140Y006440D02*
X015140Y006540D01*
X016090Y006540D01*
X016090Y006440D01*
X016140Y008740D02*
X015140Y008740D01*
X015140Y008840D01*
X016140Y008840D02*
X016140Y008740D01*
X019923Y019105D02*
X019900Y019129D01*
X019900Y019175D01*
X019923Y019199D01*
X020017Y019199D01*
X020040Y019175D01*
X020040Y019129D01*
X020017Y019105D01*
X019923Y019105D01*
X019993Y019152D02*
X020040Y019199D01*
X020040Y019253D02*
X019947Y019346D01*
X019923Y019346D01*
X019900Y019323D01*
X019900Y019276D01*
X019923Y019253D01*
X020040Y019253D02*
X020040Y019346D01*
X008346Y026263D02*
X008323Y026240D01*
X008276Y026240D01*
X008253Y026263D01*
X008199Y026263D02*
X008175Y026240D01*
X008129Y026240D01*
X008105Y026263D01*
X008105Y026357D01*
X008129Y026380D01*
X008175Y026380D01*
X008199Y026357D01*
X008199Y026263D01*
X008199Y026240D02*
X008152Y026287D01*
X008253Y026357D02*
X008276Y026380D01*
X008323Y026380D01*
X008346Y026357D01*
X008346Y026333D01*
X008323Y026310D01*
X008346Y026287D01*
X008346Y026263D01*
X008323Y026310D02*
X008299Y026310D01*
D18*
X034440Y007840D02*
X034440Y007690D01*
X034840Y007640D02*
X034840Y007840D01*
D19*
X034840Y007625D03*
X034440Y007625D03*
D20*
X045674Y033886D02*
X046305Y034306D01*
X046305Y034530D02*
X046305Y034951D01*
X046305Y034741D02*
X045674Y034741D01*
X045885Y034530D01*
X045674Y034306D02*
X046305Y033886D01*
D21*
X050990Y029140D03*
D22*
X052640Y029140D03*
D23*
X049415Y029150D03*
X049415Y028060D03*
X049415Y026980D03*
X049415Y030220D03*
X049415Y031300D03*
D24*
X049915Y030760D03*
X049915Y029680D03*
X049915Y028610D03*
X049915Y027520D03*
D25*
X040308Y003508D02*
X039972Y003508D01*
X039927Y003063D01*
X039826Y003034D01*
X039730Y002994D01*
X039638Y002943D01*
X039292Y003226D01*
X039054Y002988D01*
X039337Y002642D01*
X039286Y002550D01*
X039246Y002454D01*
X039217Y002353D01*
X038772Y002308D01*
X038772Y001972D01*
X039217Y001927D01*
X039246Y001826D01*
X039286Y001730D01*
X039337Y001638D01*
X039054Y001292D01*
X039292Y001054D01*
X039638Y001337D01*
X039706Y001298D01*
X039777Y001265D01*
X039975Y001742D01*
X039911Y001775D01*
X039853Y001819D01*
X039803Y001872D01*
X039763Y001932D01*
X039734Y001998D01*
X039715Y002068D01*
X039709Y002140D01*
X039717Y002220D01*
X039739Y002298D01*
X039776Y002370D01*
X039825Y002434D01*
X039886Y002488D01*
X039955Y002529D01*
X040031Y002557D01*
X040111Y002570D01*
X040191Y002568D01*
X040270Y002550D01*
X040345Y002519D01*
X040412Y002474D01*
X040469Y002417D01*
X040515Y002351D01*
X040548Y002277D01*
X040567Y002199D01*
X040570Y002118D01*
X040558Y002038D01*
X040532Y001962D01*
X040492Y001892D01*
X040439Y001830D01*
X040376Y001780D01*
X040305Y001742D01*
X040503Y001265D01*
X040574Y001298D01*
X040642Y001337D01*
X040988Y001054D01*
X041226Y001292D01*
X040943Y001638D01*
X040994Y001730D01*
X041034Y001826D01*
X041063Y001927D01*
X041508Y001972D01*
X041508Y002308D01*
X041063Y002353D01*
X041034Y002454D01*
X040994Y002550D01*
X040943Y002642D01*
X041226Y002988D01*
X040988Y003226D01*
X040642Y002943D01*
X040550Y002994D01*
X040454Y003034D01*
X040353Y003063D01*
X040308Y003508D01*
X040311Y003478D02*
X039969Y003478D01*
X039963Y003421D02*
X040317Y003421D01*
X040323Y003363D02*
X039957Y003363D01*
X039952Y003306D02*
X040328Y003306D01*
X040334Y003248D02*
X039946Y003248D01*
X039940Y003190D02*
X040340Y003190D01*
X040346Y003133D02*
X039934Y003133D01*
X039928Y003075D02*
X040352Y003075D01*
X040493Y003018D02*
X039787Y003018D01*
X039668Y002960D02*
X040612Y002960D01*
X040663Y002960D02*
X041203Y002960D01*
X041196Y003018D02*
X040733Y003018D01*
X040804Y003075D02*
X041139Y003075D01*
X041081Y003133D02*
X040874Y003133D01*
X040945Y003190D02*
X041024Y003190D01*
X041156Y002903D02*
X039124Y002903D01*
X039077Y002960D02*
X039617Y002960D01*
X039547Y003018D02*
X039084Y003018D01*
X039141Y003075D02*
X039476Y003075D01*
X039406Y003133D02*
X039199Y003133D01*
X039256Y003190D02*
X039335Y003190D01*
X039171Y002845D02*
X041109Y002845D01*
X041062Y002788D02*
X039218Y002788D01*
X039265Y002730D02*
X041015Y002730D01*
X040968Y002672D02*
X039312Y002672D01*
X039322Y002615D02*
X040958Y002615D01*
X040990Y002557D02*
X040239Y002557D01*
X040373Y002500D02*
X041015Y002500D01*
X041037Y002442D02*
X040444Y002442D01*
X040492Y002385D02*
X041054Y002385D01*
X041319Y002327D02*
X040526Y002327D01*
X040550Y002270D02*
X041508Y002270D01*
X041508Y002212D02*
X040563Y002212D01*
X040568Y002154D02*
X041508Y002154D01*
X041508Y002097D02*
X040567Y002097D01*
X040559Y002039D02*
X041508Y002039D01*
X041508Y001982D02*
X040539Y001982D01*
X040510Y001924D02*
X041062Y001924D01*
X041046Y001867D02*
X040470Y001867D01*
X040413Y001809D02*
X041027Y001809D01*
X041003Y001752D02*
X040323Y001752D01*
X040325Y001694D02*
X040974Y001694D01*
X040945Y001636D02*
X040349Y001636D01*
X040372Y001579D02*
X040992Y001579D01*
X041039Y001521D02*
X040396Y001521D01*
X040420Y001464D02*
X041085Y001464D01*
X041132Y001406D02*
X040444Y001406D01*
X040468Y001349D02*
X041179Y001349D01*
X041225Y001291D02*
X040698Y001291D01*
X040768Y001234D02*
X041168Y001234D01*
X041110Y001176D02*
X040839Y001176D01*
X040910Y001118D02*
X041053Y001118D01*
X040995Y001061D02*
X040980Y001061D01*
X040559Y001291D02*
X040492Y001291D01*
X039884Y001521D02*
X039241Y001521D01*
X039195Y001464D02*
X039860Y001464D01*
X039836Y001406D02*
X039148Y001406D01*
X039101Y001349D02*
X039812Y001349D01*
X039788Y001291D02*
X039721Y001291D01*
X039582Y001291D02*
X039055Y001291D01*
X039112Y001234D02*
X039512Y001234D01*
X039441Y001176D02*
X039170Y001176D01*
X039227Y001118D02*
X039370Y001118D01*
X039300Y001061D02*
X039285Y001061D01*
X039288Y001579D02*
X039908Y001579D01*
X039931Y001636D02*
X039335Y001636D01*
X039306Y001694D02*
X039955Y001694D01*
X039957Y001752D02*
X039277Y001752D01*
X039253Y001809D02*
X039866Y001809D01*
X039808Y001867D02*
X039234Y001867D01*
X039218Y001924D02*
X039768Y001924D01*
X039741Y001982D02*
X038772Y001982D01*
X038772Y002039D02*
X039723Y002039D01*
X039713Y002097D02*
X038772Y002097D01*
X038772Y002154D02*
X039711Y002154D01*
X039716Y002212D02*
X038772Y002212D01*
X038772Y002270D02*
X039731Y002270D01*
X039754Y002327D02*
X038961Y002327D01*
X039226Y002385D02*
X039787Y002385D01*
X039835Y002442D02*
X039243Y002442D01*
X039265Y002500D02*
X039906Y002500D01*
X040035Y002557D02*
X039290Y002557D01*
D26*
X019707Y008925D02*
X019393Y009239D01*
X019550Y009239D02*
X019550Y008925D01*
X019393Y008925D02*
X019707Y009239D01*
X019707Y009082D02*
X019393Y009082D01*
X004522Y023503D02*
X004473Y023455D01*
X004377Y023455D01*
X004328Y023503D01*
X004328Y023552D01*
X004377Y023600D01*
X004473Y023600D01*
X004522Y023552D01*
X004522Y023503D01*
X004473Y023600D02*
X004522Y023648D01*
X004522Y023697D01*
X004473Y023745D01*
X004377Y023745D01*
X004328Y023697D01*
X004328Y023648D01*
X004377Y023600D01*
X004227Y023600D02*
X004034Y023600D01*
X004179Y023745D01*
X004179Y023455D01*
X003932Y023455D02*
X003739Y023455D01*
X003836Y023455D02*
X003836Y023745D01*
X003739Y023648D01*
X003638Y023600D02*
X003444Y023600D01*
X003589Y023745D01*
X003589Y023455D01*
X003343Y023455D02*
X003343Y023745D01*
X003150Y023745D02*
X003150Y023455D01*
X003048Y023455D02*
X002855Y023455D01*
X002952Y023455D02*
X002952Y023745D01*
X002855Y023648D01*
X003150Y023745D02*
X003343Y023455D01*
X005783Y031965D02*
X006097Y032279D01*
X006097Y032122D02*
X005783Y032122D01*
X005783Y032279D02*
X006097Y031965D01*
X005940Y031965D02*
X005940Y032279D01*
X013855Y025745D02*
X013855Y025455D01*
X014000Y025455D01*
X014048Y025503D01*
X014048Y025552D01*
X014000Y025600D01*
X013855Y025600D01*
X014000Y025600D02*
X014048Y025648D01*
X014048Y025697D01*
X014000Y025745D01*
X013855Y025745D01*
X014150Y025648D02*
X014246Y025745D01*
X014343Y025648D01*
X014343Y025455D01*
X014343Y025600D02*
X014150Y025600D01*
X014150Y025648D02*
X014150Y025455D01*
X014541Y025455D02*
X014541Y025745D01*
X014444Y025745D02*
X014638Y025745D01*
X014739Y025697D02*
X014739Y025648D01*
X014787Y025600D01*
X014884Y025600D01*
X014932Y025552D01*
X014932Y025503D01*
X014884Y025455D01*
X014787Y025455D01*
X014739Y025503D01*
X014739Y025552D01*
X014787Y025600D01*
X014884Y025600D02*
X014932Y025648D01*
X014932Y025697D01*
X014884Y025745D01*
X014787Y025745D01*
X014739Y025697D01*
X015034Y025745D02*
X015034Y025600D01*
X015130Y025648D01*
X015179Y025648D01*
X015227Y025600D01*
X015227Y025503D01*
X015179Y025455D01*
X015082Y025455D01*
X015034Y025503D01*
X015034Y025745D02*
X015227Y025745D01*
X018187Y025728D02*
X018284Y025825D01*
X018284Y025535D01*
X018187Y025535D02*
X018381Y025535D01*
X018482Y025535D02*
X018482Y025825D01*
X018675Y025535D01*
X018675Y025825D01*
X018776Y025680D02*
X018970Y025680D01*
X019071Y025728D02*
X019168Y025825D01*
X019168Y025535D01*
X019071Y025535D02*
X019265Y025535D01*
X019366Y025680D02*
X019559Y025680D01*
X019660Y025632D02*
X019709Y025680D01*
X019805Y025680D01*
X019854Y025632D01*
X019854Y025583D01*
X019805Y025535D01*
X019709Y025535D01*
X019660Y025583D01*
X019660Y025632D01*
X019709Y025680D02*
X019660Y025728D01*
X019660Y025777D01*
X019709Y025825D01*
X019805Y025825D01*
X019854Y025777D01*
X019854Y025728D01*
X019805Y025680D01*
X019511Y025535D02*
X019511Y025825D01*
X019366Y025680D01*
X018922Y025535D02*
X018922Y025825D01*
X018776Y025680D01*
X023855Y028955D02*
X024048Y028955D01*
X023952Y028955D02*
X023952Y029245D01*
X023855Y029148D01*
X024150Y029245D02*
X024343Y028955D01*
X024343Y029245D01*
X024444Y029100D02*
X024638Y029100D01*
X024739Y029148D02*
X024836Y029245D01*
X024836Y028955D01*
X024932Y028955D02*
X024739Y028955D01*
X024589Y028955D02*
X024589Y029245D01*
X024444Y029100D01*
X024150Y028955D02*
X024150Y029245D01*
X025034Y029100D02*
X025227Y029100D01*
X025328Y029052D02*
X025377Y029100D01*
X025473Y029100D01*
X025522Y029052D01*
X025522Y029003D01*
X025473Y028955D01*
X025377Y028955D01*
X025328Y029003D01*
X025328Y029052D01*
X025377Y029100D02*
X025328Y029148D01*
X025328Y029197D01*
X025377Y029245D01*
X025473Y029245D01*
X025522Y029197D01*
X025522Y029148D01*
X025473Y029100D01*
X025179Y028955D02*
X025179Y029245D01*
X025034Y029100D01*
X025011Y030535D02*
X025011Y030825D01*
X024866Y030680D01*
X025059Y030680D01*
X025160Y030632D02*
X025209Y030680D01*
X025305Y030680D01*
X025354Y030632D01*
X025354Y030583D01*
X025305Y030535D01*
X025209Y030535D01*
X025160Y030583D01*
X025160Y030632D01*
X025209Y030680D02*
X025160Y030728D01*
X025160Y030777D01*
X025209Y030825D01*
X025305Y030825D01*
X025354Y030777D01*
X025354Y030728D01*
X025305Y030680D01*
X024765Y030535D02*
X024571Y030535D01*
X024668Y030535D02*
X024668Y030825D01*
X024571Y030728D01*
X024470Y030680D02*
X024276Y030680D01*
X024422Y030825D01*
X024422Y030535D01*
X024175Y030535D02*
X024175Y030825D01*
X023982Y030825D02*
X024175Y030535D01*
X023982Y030535D02*
X023982Y030825D01*
X023784Y030825D02*
X023784Y030535D01*
X023687Y030535D02*
X023881Y030535D01*
X023687Y030728D02*
X023784Y030825D01*
X027893Y030955D02*
X028207Y031269D01*
X028207Y031112D02*
X027893Y031112D01*
X027893Y031269D02*
X028207Y030955D01*
X028050Y030955D02*
X028050Y031269D01*
X030535Y033355D02*
X030535Y033500D01*
X030583Y033548D01*
X030632Y033548D01*
X030680Y033500D01*
X030680Y033355D01*
X030825Y033355D02*
X030825Y033500D01*
X030777Y033548D01*
X030728Y033548D01*
X030680Y033500D01*
X030680Y033650D02*
X030680Y033843D01*
X030632Y033843D02*
X030825Y033843D01*
X030825Y033650D02*
X030632Y033650D01*
X030535Y033746D01*
X030632Y033843D01*
X030535Y033944D02*
X030535Y034138D01*
X030535Y034041D02*
X030825Y034041D01*
X030777Y034239D02*
X030728Y034239D01*
X030680Y034287D01*
X030680Y034384D01*
X030728Y034432D01*
X030777Y034432D01*
X030825Y034384D01*
X030825Y034287D01*
X030777Y034239D01*
X030680Y034287D02*
X030632Y034239D01*
X030583Y034239D01*
X030535Y034287D01*
X030535Y034384D01*
X030583Y034432D01*
X030632Y034432D01*
X030680Y034384D01*
X030680Y034534D02*
X030632Y034630D01*
X030632Y034679D01*
X030680Y034727D01*
X030777Y034727D01*
X030825Y034679D01*
X030825Y034582D01*
X030777Y034534D01*
X030680Y034534D02*
X030535Y034534D01*
X030535Y034727D01*
X030535Y033355D02*
X030825Y033355D01*
X030777Y029022D02*
X030825Y028973D01*
X030825Y028877D01*
X030777Y028828D01*
X030728Y028828D01*
X030680Y028877D01*
X030680Y028973D01*
X030728Y029022D01*
X030777Y029022D01*
X030680Y028973D02*
X030632Y029022D01*
X030583Y029022D01*
X030535Y028973D01*
X030535Y028877D01*
X030583Y028828D01*
X030632Y028828D01*
X030680Y028877D01*
X030680Y028727D02*
X030680Y028534D01*
X030535Y028679D01*
X030825Y028679D01*
X030825Y028432D02*
X030825Y028239D01*
X030825Y028336D02*
X030535Y028336D01*
X030632Y028239D01*
X030680Y028138D02*
X030680Y027944D01*
X030535Y028089D01*
X030825Y028089D01*
X030825Y027843D02*
X030535Y027843D01*
X030535Y027650D02*
X030825Y027843D01*
X030825Y027650D02*
X030535Y027650D01*
X030535Y027452D02*
X030825Y027452D01*
X030825Y027548D02*
X030825Y027355D01*
X030632Y027355D02*
X030535Y027452D01*
X022077Y034855D02*
X021763Y035169D01*
X021920Y035169D02*
X021920Y034855D01*
X021763Y034855D02*
X022077Y035169D01*
X022077Y035012D02*
X021763Y035012D01*
D27*
X018415Y036640D03*
D28*
X023645Y033795D02*
X023720Y033795D01*
X023745Y033770D01*
X023745Y033670D01*
X023720Y033645D01*
X023645Y033645D01*
X023645Y033795D01*
X023792Y033770D02*
X023792Y033745D01*
X023817Y033720D01*
X023892Y033720D01*
X023892Y033670D02*
X023892Y033770D01*
X023867Y033795D01*
X023817Y033795D01*
X023792Y033770D01*
X023792Y033670D02*
X023817Y033645D01*
X023867Y033645D01*
X023892Y033670D01*
X024145Y033095D02*
X024145Y032945D01*
X024095Y032945D02*
X024195Y032945D01*
X024242Y032970D02*
X024242Y032995D01*
X024267Y033020D01*
X024317Y033020D01*
X024342Y032995D01*
X024342Y032970D01*
X024317Y032945D01*
X024267Y032945D01*
X024242Y032970D01*
X024267Y033020D02*
X024242Y033045D01*
X024242Y033070D01*
X024267Y033095D01*
X024317Y033095D01*
X024342Y033070D01*
X024342Y033045D01*
X024317Y033020D01*
X024390Y032995D02*
X024440Y032945D01*
X024490Y032995D01*
X024490Y033095D01*
X024390Y033095D02*
X024390Y032995D01*
X024145Y033095D02*
X024095Y033045D01*
X023892Y032795D02*
X023842Y032770D01*
X023792Y032720D01*
X023867Y032720D01*
X023892Y032695D01*
X023892Y032670D01*
X023867Y032645D01*
X023817Y032645D01*
X023792Y032670D01*
X023792Y032720D01*
X023745Y032670D02*
X023745Y032770D01*
X023720Y032795D01*
X023645Y032795D01*
X023645Y032645D01*
X023720Y032645D01*
X023745Y032670D01*
X024095Y032095D02*
X024095Y032020D01*
X024145Y032045D01*
X024170Y032045D01*
X024195Y032020D01*
X024195Y031970D01*
X024170Y031945D01*
X024120Y031945D01*
X024095Y031970D01*
X024095Y032095D02*
X024195Y032095D01*
X024316Y032045D02*
X024366Y032095D01*
X024366Y031945D01*
X024316Y031945D02*
X024416Y031945D01*
X024463Y031995D02*
X024513Y031945D01*
X024563Y031995D01*
X024563Y032095D01*
X024463Y032095D02*
X024463Y031995D01*
X024267Y031970D02*
X024267Y031945D01*
X024242Y031945D01*
X024242Y031970D01*
X024267Y031970D01*
X025350Y030135D02*
X025425Y030135D01*
X025450Y030110D01*
X025450Y030010D01*
X025425Y029985D01*
X025350Y029985D01*
X025350Y030135D01*
X025498Y030135D02*
X025598Y030135D01*
X025598Y030110D01*
X025498Y030010D01*
X025498Y029985D01*
X023892Y029770D02*
X023892Y029745D01*
X023867Y029720D01*
X023817Y029720D01*
X023792Y029745D01*
X023792Y029770D01*
X023817Y029795D01*
X023867Y029795D01*
X023892Y029770D01*
X023867Y029720D02*
X023892Y029695D01*
X023892Y029670D01*
X023867Y029645D01*
X023817Y029645D01*
X023792Y029670D01*
X023792Y029695D01*
X023817Y029720D01*
X023745Y029670D02*
X023745Y029770D01*
X023720Y029795D01*
X023645Y029795D01*
X023645Y029645D01*
X023720Y029645D01*
X023745Y029670D01*
X020098Y025135D02*
X019998Y025135D01*
X019998Y025060D01*
X020048Y025085D01*
X020073Y025085D01*
X020098Y025060D01*
X020098Y025010D01*
X020073Y024985D01*
X020023Y024985D01*
X019998Y025010D01*
X019950Y025010D02*
X019950Y025110D01*
X019925Y025135D01*
X019850Y025135D01*
X019850Y024985D01*
X019925Y024985D01*
X019950Y025010D01*
X013892Y026220D02*
X013792Y026220D01*
X013867Y026295D01*
X013867Y026145D01*
X013745Y026170D02*
X013745Y026270D01*
X013720Y026295D01*
X013645Y026295D01*
X013645Y026145D01*
X013720Y026145D01*
X013745Y026170D01*
X002892Y024270D02*
X002892Y024245D01*
X002867Y024220D01*
X002892Y024195D01*
X002892Y024170D01*
X002867Y024145D01*
X002817Y024145D01*
X002792Y024170D01*
X002745Y024170D02*
X002720Y024145D01*
X002645Y024145D01*
X002645Y024295D01*
X002720Y024295D01*
X002745Y024270D01*
X002745Y024170D01*
X002842Y024220D02*
X002867Y024220D01*
X002892Y024270D02*
X002867Y024295D01*
X002817Y024295D01*
X002792Y024270D01*
X029985Y027145D02*
X029985Y027220D01*
X030010Y027245D01*
X030110Y027245D01*
X030135Y027220D01*
X030135Y027145D01*
X029985Y027145D01*
X030010Y027292D02*
X029985Y027317D01*
X029985Y027367D01*
X030010Y027392D01*
X030035Y027392D01*
X030135Y027292D01*
X030135Y027392D01*
X030135Y033145D02*
X030135Y033220D01*
X030110Y033245D01*
X030010Y033245D01*
X029985Y033220D01*
X029985Y033145D01*
X030135Y033145D01*
X030135Y033292D02*
X030135Y033392D01*
X030135Y033342D02*
X029985Y033342D01*
X030035Y033292D01*
D29*
X041140Y025415D03*
X015640Y021415D03*
D30*
X012501Y029231D02*
X012799Y029444D01*
X012799Y029443D02*
X012808Y029442D01*
X012818Y029444D01*
X012827Y029448D01*
X012834Y029455D01*
X012838Y029464D01*
X012839Y029474D01*
X012837Y029484D01*
X013035Y029791D01*
X013065Y029767D01*
X013093Y029741D01*
X013118Y029712D01*
X013139Y029680D01*
X013158Y029647D01*
X013173Y029612D01*
X013185Y029576D01*
X013194Y029538D01*
X013198Y029500D01*
X013199Y029462D01*
X013196Y029424D01*
X013189Y029386D01*
X013179Y029350D01*
X013165Y029314D01*
X013148Y029280D01*
X013127Y029247D01*
X013104Y029217D01*
X013077Y029190D01*
X013048Y029165D01*
X013017Y029143D01*
X012984Y029124D01*
X012949Y029108D01*
X012913Y029096D01*
X012875Y029088D01*
X012837Y029083D01*
X012799Y029082D01*
X012761Y029085D01*
X012723Y029091D01*
X012686Y029101D01*
X012651Y029115D01*
X012617Y029132D01*
X012584Y029152D01*
X012554Y029176D01*
X012526Y029202D01*
X012501Y029231D01*
X012531Y029252D01*
X012555Y029225D01*
X012582Y029200D01*
X012612Y029178D01*
X012643Y029160D01*
X012677Y029144D01*
X012711Y029132D01*
X012747Y029124D01*
X012783Y029120D01*
X012820Y029119D01*
X012856Y029122D01*
X012892Y029129D01*
X012927Y029140D01*
X012961Y029154D01*
X012993Y029171D01*
X013023Y029192D01*
X013051Y029216D01*
X013076Y029242D01*
X013099Y029271D01*
X013118Y029302D01*
X013134Y029335D01*
X013147Y029370D01*
X013155Y029405D01*
X013161Y029441D01*
X013162Y029478D01*
X013160Y029515D01*
X013153Y029551D01*
X013144Y029586D01*
X013130Y029620D01*
X013113Y029652D01*
X013093Y029683D01*
X013070Y029711D01*
X013044Y029737D01*
X013015Y029760D01*
X012995Y029729D01*
X013022Y029707D01*
X013046Y029682D01*
X013068Y029654D01*
X013086Y029625D01*
X013101Y029594D01*
X013113Y029561D01*
X013120Y029527D01*
X013124Y029492D01*
X013125Y029458D01*
X013121Y029423D01*
X013114Y029389D01*
X013103Y029356D01*
X013088Y029325D01*
X013070Y029295D01*
X013049Y029267D01*
X013025Y029242D01*
X012998Y029220D01*
X012970Y029200D01*
X012939Y029184D01*
X012906Y029172D01*
X012873Y029163D01*
X012838Y029157D01*
X012804Y029156D01*
X012769Y029158D01*
X012735Y029165D01*
X012702Y029174D01*
X012669Y029188D01*
X012639Y029205D01*
X012611Y029225D01*
X012585Y029248D01*
X012561Y029274D01*
X012592Y029295D01*
X012614Y029271D01*
X012639Y029250D01*
X012666Y029232D01*
X012695Y029217D01*
X012725Y029205D01*
X012757Y029198D01*
X012790Y029194D01*
X012822Y029193D01*
X012855Y029197D01*
X012886Y029204D01*
X012917Y029215D01*
X012947Y029230D01*
X012974Y029247D01*
X012999Y029268D01*
X013022Y029292D01*
X013041Y029318D01*
X013058Y029346D01*
X013071Y029376D01*
X013080Y029407D01*
X013086Y029440D01*
X013088Y029472D01*
X013086Y029505D01*
X013081Y029537D01*
X013071Y029568D01*
X013058Y029598D01*
X013042Y029627D01*
X013023Y029653D01*
X013000Y029676D01*
X012975Y029698D01*
X012955Y029666D01*
X012978Y029646D01*
X012998Y029624D01*
X013016Y029599D01*
X013030Y029572D01*
X013040Y029544D01*
X013047Y029515D01*
X013051Y029485D01*
X013050Y029454D01*
X013046Y029424D01*
X013038Y029395D01*
X013027Y029367D01*
X013012Y029341D01*
X012994Y029317D01*
X012973Y029295D01*
X012950Y029276D01*
X012924Y029259D01*
X012897Y029247D01*
X012868Y029237D01*
X012838Y029232D01*
X012808Y029230D01*
X012778Y029232D01*
X012748Y029238D01*
X012719Y029247D01*
X012692Y029260D01*
X012666Y029276D01*
X012643Y029295D01*
X012622Y029317D01*
X012652Y029338D01*
X012672Y029319D01*
X012693Y029302D01*
X012717Y029288D01*
X012742Y029278D01*
X012769Y029271D01*
X012796Y029267D01*
X012824Y029268D01*
X012851Y029271D01*
X012877Y029279D01*
X012902Y029290D01*
X012926Y029304D01*
X012947Y029321D01*
X012966Y029341D01*
X012982Y029363D01*
X012995Y029387D01*
X013005Y029413D01*
X013011Y029440D01*
X013014Y029467D01*
X013013Y029495D01*
X013008Y029522D01*
X013000Y029548D01*
X012988Y029573D01*
X012973Y029596D01*
X012956Y029617D01*
X012935Y029635D01*
X012915Y029604D01*
X012934Y029586D01*
X012949Y029566D01*
X012961Y029544D01*
X012970Y029521D01*
X012975Y029496D01*
X012977Y029471D01*
X012975Y029446D01*
X012969Y029421D01*
X012959Y029398D01*
X012946Y029376D01*
X012930Y029356D01*
X012912Y029339D01*
X012891Y029326D01*
X012868Y029315D01*
X012843Y029308D01*
X012818Y029304D01*
X012793Y029305D01*
X012768Y029309D01*
X012744Y029317D01*
X012722Y029328D01*
X012701Y029342D01*
X012683Y029360D01*
X012713Y029381D01*
X012730Y029367D01*
X012749Y029355D01*
X012770Y029347D01*
X012792Y029342D01*
X012814Y029341D01*
X012836Y029344D01*
X012858Y029351D01*
X012878Y029361D01*
X012895Y029374D01*
X012911Y029390D01*
X012923Y029409D01*
X012933Y029429D01*
X012938Y029451D01*
X012940Y029473D01*
X012938Y029496D01*
X012932Y029517D01*
X012923Y029538D01*
X012911Y029556D01*
X012895Y029572D01*
X012875Y029541D01*
X012887Y029526D01*
X012895Y029510D01*
X012901Y029493D01*
X012903Y029474D01*
X012901Y029456D01*
X012896Y029438D01*
X012888Y029422D01*
X012877Y029407D01*
X012863Y029395D01*
X012847Y029386D01*
X012829Y029380D01*
X012811Y029378D01*
X012793Y029379D01*
X012775Y029384D01*
X012758Y029392D01*
X012744Y029403D01*
X012775Y029425D01*
X012787Y029419D01*
X012800Y029416D01*
X012814Y029415D01*
X012827Y029418D01*
X012839Y029424D01*
X012850Y029433D01*
X012858Y029444D01*
X012864Y029456D01*
X012866Y029470D01*
X012865Y029484D01*
X012861Y029497D01*
X012854Y029508D01*
X009939Y030176D02*
X009939Y030483D01*
X009939Y030636D02*
X009632Y030943D01*
X009555Y030943D01*
X009479Y030866D01*
X009479Y030713D01*
X009555Y030636D01*
X009939Y030636D02*
X009939Y030943D01*
X009939Y030176D02*
X009479Y030176D01*
X009231Y029779D02*
X009444Y029481D01*
X009443Y029481D02*
X009442Y029472D01*
X009444Y029462D01*
X009448Y029453D01*
X009455Y029446D01*
X009464Y029442D01*
X009474Y029441D01*
X009484Y029443D01*
X009791Y029245D01*
X009767Y029215D01*
X009741Y029187D01*
X009712Y029162D01*
X009680Y029141D01*
X009647Y029122D01*
X009612Y029107D01*
X009576Y029095D01*
X009538Y029086D01*
X009500Y029082D01*
X009462Y029081D01*
X009424Y029084D01*
X009386Y029091D01*
X009350Y029101D01*
X009314Y029115D01*
X009280Y029132D01*
X009247Y029153D01*
X009217Y029176D01*
X009190Y029203D01*
X009165Y029232D01*
X009143Y029263D01*
X009124Y029296D01*
X009108Y029331D01*
X009096Y029367D01*
X009088Y029405D01*
X009083Y029443D01*
X009082Y029481D01*
X009085Y029519D01*
X009091Y029557D01*
X009101Y029594D01*
X009115Y029629D01*
X009132Y029663D01*
X009152Y029696D01*
X009176Y029726D01*
X009202Y029754D01*
X009231Y029779D01*
X009252Y029749D01*
X009225Y029725D01*
X009200Y029698D01*
X009178Y029668D01*
X009160Y029637D01*
X009144Y029603D01*
X009132Y029569D01*
X009124Y029533D01*
X009120Y029497D01*
X009119Y029460D01*
X009122Y029424D01*
X009129Y029388D01*
X009140Y029353D01*
X009154Y029319D01*
X009171Y029287D01*
X009192Y029257D01*
X009216Y029229D01*
X009242Y029204D01*
X009271Y029181D01*
X009302Y029162D01*
X009335Y029146D01*
X009370Y029133D01*
X009405Y029125D01*
X009441Y029119D01*
X009478Y029118D01*
X009515Y029120D01*
X009551Y029127D01*
X009586Y029136D01*
X009620Y029150D01*
X009652Y029167D01*
X009683Y029187D01*
X009711Y029210D01*
X009737Y029236D01*
X009760Y029265D01*
X009729Y029285D01*
X009707Y029258D01*
X009682Y029234D01*
X009654Y029212D01*
X009625Y029194D01*
X009594Y029179D01*
X009561Y029167D01*
X009527Y029160D01*
X009492Y029156D01*
X009458Y029155D01*
X009423Y029159D01*
X009389Y029166D01*
X009356Y029177D01*
X009325Y029192D01*
X009295Y029210D01*
X009267Y029231D01*
X009242Y029255D01*
X009220Y029282D01*
X009200Y029310D01*
X009184Y029341D01*
X009172Y029374D01*
X009163Y029407D01*
X009157Y029442D01*
X009156Y029476D01*
X009158Y029511D01*
X009165Y029545D01*
X009174Y029578D01*
X009188Y029611D01*
X009205Y029641D01*
X009225Y029669D01*
X009248Y029695D01*
X009274Y029719D01*
X009295Y029688D01*
X009271Y029666D01*
X009250Y029641D01*
X009232Y029614D01*
X009217Y029585D01*
X009205Y029555D01*
X009198Y029523D01*
X009194Y029490D01*
X009193Y029458D01*
X009197Y029425D01*
X009204Y029394D01*
X009215Y029363D01*
X009230Y029333D01*
X009247Y029306D01*
X009268Y029281D01*
X009292Y029258D01*
X009318Y029239D01*
X009346Y029222D01*
X009376Y029209D01*
X009407Y029200D01*
X009440Y029194D01*
X009472Y029192D01*
X009505Y029194D01*
X009537Y029199D01*
X009568Y029209D01*
X009598Y029222D01*
X009627Y029238D01*
X009653Y029257D01*
X009676Y029280D01*
X009698Y029305D01*
X009666Y029325D01*
X009646Y029302D01*
X009624Y029282D01*
X009599Y029264D01*
X009572Y029250D01*
X009544Y029240D01*
X009515Y029233D01*
X009485Y029229D01*
X009454Y029230D01*
X009424Y029234D01*
X009395Y029242D01*
X009367Y029253D01*
X009341Y029268D01*
X009317Y029286D01*
X009295Y029307D01*
X009276Y029330D01*
X009259Y029356D01*
X009247Y029383D01*
X009237Y029412D01*
X009232Y029442D01*
X009230Y029472D01*
X009232Y029502D01*
X009238Y029532D01*
X009247Y029561D01*
X009260Y029588D01*
X009276Y029614D01*
X009295Y029637D01*
X009317Y029658D01*
X009338Y029628D01*
X009319Y029608D01*
X009302Y029587D01*
X009288Y029563D01*
X009278Y029538D01*
X009271Y029511D01*
X009267Y029484D01*
X009268Y029456D01*
X009271Y029429D01*
X009279Y029403D01*
X009290Y029378D01*
X009304Y029354D01*
X009321Y029333D01*
X009341Y029314D01*
X009363Y029298D01*
X009387Y029285D01*
X009413Y029275D01*
X009440Y029269D01*
X009467Y029266D01*
X009495Y029267D01*
X009522Y029272D01*
X009548Y029280D01*
X009573Y029292D01*
X009596Y029307D01*
X009617Y029324D01*
X009635Y029345D01*
X009604Y029365D01*
X009586Y029346D01*
X009566Y029331D01*
X009544Y029319D01*
X009521Y029310D01*
X009496Y029305D01*
X009471Y029303D01*
X009446Y029305D01*
X009421Y029311D01*
X009398Y029321D01*
X009376Y029334D01*
X009356Y029350D01*
X009339Y029368D01*
X009326Y029389D01*
X009315Y029412D01*
X009308Y029437D01*
X009304Y029462D01*
X009305Y029487D01*
X009309Y029512D01*
X009317Y029536D01*
X009328Y029558D01*
X009342Y029579D01*
X009360Y029597D01*
X009381Y029567D01*
X009367Y029550D01*
X009355Y029531D01*
X009347Y029510D01*
X009342Y029488D01*
X009341Y029466D01*
X009344Y029444D01*
X009351Y029422D01*
X009361Y029402D01*
X009374Y029385D01*
X009390Y029369D01*
X009409Y029357D01*
X009429Y029347D01*
X009451Y029342D01*
X009473Y029340D01*
X009496Y029342D01*
X009517Y029348D01*
X009538Y029357D01*
X009556Y029369D01*
X009572Y029385D01*
X009541Y029405D01*
X009526Y029393D01*
X009510Y029385D01*
X009493Y029379D01*
X009474Y029377D01*
X009456Y029379D01*
X009438Y029384D01*
X009422Y029392D01*
X009407Y029403D01*
X009395Y029417D01*
X009386Y029433D01*
X009380Y029451D01*
X009378Y029469D01*
X009379Y029487D01*
X009384Y029505D01*
X009392Y029522D01*
X009403Y029536D01*
X009425Y029505D01*
X009419Y029493D01*
X009416Y029480D01*
X009415Y029466D01*
X009418Y029453D01*
X009424Y029441D01*
X009433Y029430D01*
X009444Y029422D01*
X009456Y029416D01*
X009470Y029414D01*
X009484Y029415D01*
X009497Y029419D01*
X009508Y029426D01*
X009779Y033049D02*
X009481Y032836D01*
X009481Y032837D02*
X009472Y032838D01*
X009462Y032836D01*
X009453Y032832D01*
X009446Y032825D01*
X009442Y032816D01*
X009441Y032806D01*
X009443Y032796D01*
X009245Y032489D01*
X009215Y032513D01*
X009187Y032539D01*
X009162Y032568D01*
X009141Y032600D01*
X009122Y032633D01*
X009107Y032668D01*
X009095Y032704D01*
X009086Y032742D01*
X009082Y032780D01*
X009081Y032818D01*
X009084Y032856D01*
X009091Y032894D01*
X009101Y032930D01*
X009115Y032966D01*
X009132Y033000D01*
X009153Y033033D01*
X009176Y033063D01*
X009203Y033090D01*
X009232Y033115D01*
X009263Y033137D01*
X009296Y033156D01*
X009331Y033172D01*
X009367Y033184D01*
X009405Y033192D01*
X009443Y033197D01*
X009481Y033198D01*
X009519Y033195D01*
X009557Y033189D01*
X009594Y033179D01*
X009629Y033165D01*
X009663Y033148D01*
X009696Y033128D01*
X009726Y033104D01*
X009754Y033078D01*
X009779Y033049D01*
X009749Y033028D01*
X009725Y033055D01*
X009698Y033080D01*
X009668Y033102D01*
X009637Y033120D01*
X009603Y033136D01*
X009569Y033148D01*
X009533Y033156D01*
X009497Y033160D01*
X009460Y033161D01*
X009424Y033158D01*
X009388Y033151D01*
X009353Y033140D01*
X009319Y033126D01*
X009287Y033109D01*
X009257Y033088D01*
X009229Y033064D01*
X009204Y033038D01*
X009181Y033009D01*
X009162Y032978D01*
X009146Y032945D01*
X009133Y032910D01*
X009125Y032875D01*
X009119Y032839D01*
X009118Y032802D01*
X009120Y032765D01*
X009127Y032729D01*
X009136Y032694D01*
X009150Y032660D01*
X009167Y032628D01*
X009187Y032597D01*
X009210Y032569D01*
X009236Y032543D01*
X009265Y032520D01*
X009285Y032551D01*
X009258Y032573D01*
X009234Y032598D01*
X009212Y032626D01*
X009194Y032655D01*
X009179Y032686D01*
X009167Y032719D01*
X009160Y032753D01*
X009156Y032788D01*
X009155Y032822D01*
X009159Y032857D01*
X009166Y032891D01*
X009177Y032924D01*
X009192Y032955D01*
X009210Y032985D01*
X009231Y033013D01*
X009255Y033038D01*
X009282Y033060D01*
X009310Y033080D01*
X009341Y033096D01*
X009374Y033108D01*
X009407Y033117D01*
X009442Y033123D01*
X009476Y033124D01*
X009511Y033122D01*
X009545Y033115D01*
X009578Y033106D01*
X009611Y033092D01*
X009641Y033075D01*
X009669Y033055D01*
X009695Y033032D01*
X009719Y033006D01*
X009688Y032985D01*
X009666Y033009D01*
X009641Y033030D01*
X009614Y033048D01*
X009585Y033063D01*
X009555Y033075D01*
X009523Y033082D01*
X009490Y033086D01*
X009458Y033087D01*
X009425Y033083D01*
X009394Y033076D01*
X009363Y033065D01*
X009333Y033050D01*
X009306Y033033D01*
X009281Y033012D01*
X009258Y032988D01*
X009239Y032962D01*
X009222Y032934D01*
X009209Y032904D01*
X009200Y032873D01*
X009194Y032840D01*
X009192Y032808D01*
X009194Y032775D01*
X009199Y032743D01*
X009209Y032712D01*
X009222Y032682D01*
X009238Y032653D01*
X009257Y032627D01*
X009280Y032604D01*
X009305Y032582D01*
X009325Y032614D01*
X009302Y032634D01*
X009282Y032656D01*
X009264Y032681D01*
X009250Y032708D01*
X009240Y032736D01*
X009233Y032765D01*
X009229Y032795D01*
X009230Y032826D01*
X009234Y032856D01*
X009242Y032885D01*
X009253Y032913D01*
X009268Y032939D01*
X009286Y032963D01*
X009307Y032985D01*
X009330Y033004D01*
X009356Y033021D01*
X009383Y033033D01*
X009412Y033043D01*
X009442Y033048D01*
X009472Y033050D01*
X009502Y033048D01*
X009532Y033042D01*
X009561Y033033D01*
X009588Y033020D01*
X009614Y033004D01*
X009637Y032985D01*
X009658Y032963D01*
X009628Y032942D01*
X009608Y032961D01*
X009587Y032978D01*
X009563Y032992D01*
X009538Y033002D01*
X009511Y033009D01*
X009484Y033013D01*
X009456Y033012D01*
X009429Y033009D01*
X009403Y033001D01*
X009378Y032990D01*
X009354Y032976D01*
X009333Y032959D01*
X009314Y032939D01*
X009298Y032917D01*
X009285Y032893D01*
X009275Y032867D01*
X009269Y032840D01*
X009266Y032813D01*
X009267Y032785D01*
X009272Y032758D01*
X009280Y032732D01*
X009292Y032707D01*
X009307Y032684D01*
X009324Y032663D01*
X009345Y032645D01*
X009365Y032676D01*
X009346Y032694D01*
X009331Y032714D01*
X009319Y032736D01*
X009310Y032759D01*
X009305Y032784D01*
X009303Y032809D01*
X009305Y032834D01*
X009311Y032859D01*
X009321Y032882D01*
X009334Y032904D01*
X009350Y032924D01*
X009368Y032941D01*
X009389Y032954D01*
X009412Y032965D01*
X009437Y032972D01*
X009462Y032976D01*
X009487Y032975D01*
X009512Y032971D01*
X009536Y032963D01*
X009558Y032952D01*
X009579Y032938D01*
X009597Y032920D01*
X009567Y032899D01*
X009550Y032913D01*
X009531Y032925D01*
X009510Y032933D01*
X009488Y032938D01*
X009466Y032939D01*
X009444Y032936D01*
X009422Y032929D01*
X009402Y032919D01*
X009385Y032906D01*
X009369Y032890D01*
X009357Y032871D01*
X009347Y032851D01*
X009342Y032829D01*
X009340Y032807D01*
X009342Y032784D01*
X009348Y032763D01*
X009357Y032742D01*
X009369Y032724D01*
X009385Y032708D01*
X009405Y032739D01*
X009393Y032754D01*
X009385Y032770D01*
X009379Y032787D01*
X009377Y032806D01*
X009379Y032824D01*
X009384Y032842D01*
X009392Y032858D01*
X009403Y032873D01*
X009417Y032885D01*
X009433Y032894D01*
X009451Y032900D01*
X009469Y032902D01*
X009487Y032901D01*
X009505Y032896D01*
X009522Y032888D01*
X009536Y032877D01*
X009505Y032855D01*
X009493Y032861D01*
X009480Y032864D01*
X009466Y032865D01*
X009453Y032862D01*
X009441Y032856D01*
X009430Y032847D01*
X009422Y032836D01*
X009416Y032824D01*
X009414Y032810D01*
X009415Y032796D01*
X009419Y032783D01*
X009426Y032772D01*
X013049Y032501D02*
X012836Y032799D01*
X012837Y032799D02*
X012838Y032808D01*
X012836Y032818D01*
X012832Y032827D01*
X012825Y032834D01*
X012816Y032838D01*
X012806Y032839D01*
X012796Y032837D01*
X012489Y033035D01*
X012513Y033065D01*
X012539Y033093D01*
X012568Y033118D01*
X012600Y033139D01*
X012633Y033158D01*
X012668Y033173D01*
X012704Y033185D01*
X012742Y033194D01*
X012780Y033198D01*
X012818Y033199D01*
X012856Y033196D01*
X012894Y033189D01*
X012930Y033179D01*
X012966Y033165D01*
X013000Y033148D01*
X013033Y033127D01*
X013063Y033104D01*
X013090Y033077D01*
X013115Y033048D01*
X013137Y033017D01*
X013156Y032984D01*
X013172Y032949D01*
X013184Y032913D01*
X013192Y032875D01*
X013197Y032837D01*
X013198Y032799D01*
X013195Y032761D01*
X013189Y032723D01*
X013179Y032686D01*
X013165Y032651D01*
X013148Y032617D01*
X013128Y032584D01*
X013104Y032554D01*
X013078Y032526D01*
X013049Y032501D01*
X013028Y032531D01*
X013055Y032555D01*
X013080Y032582D01*
X013102Y032612D01*
X013120Y032643D01*
X013136Y032677D01*
X013148Y032711D01*
X013156Y032747D01*
X013160Y032783D01*
X013161Y032820D01*
X013158Y032856D01*
X013151Y032892D01*
X013140Y032927D01*
X013126Y032961D01*
X013109Y032993D01*
X013088Y033023D01*
X013064Y033051D01*
X013038Y033076D01*
X013009Y033099D01*
X012978Y033118D01*
X012945Y033134D01*
X012910Y033147D01*
X012875Y033155D01*
X012839Y033161D01*
X012802Y033162D01*
X012765Y033160D01*
X012729Y033153D01*
X012694Y033144D01*
X012660Y033130D01*
X012628Y033113D01*
X012597Y033093D01*
X012569Y033070D01*
X012543Y033044D01*
X012520Y033015D01*
X012551Y032995D01*
X012573Y033022D01*
X012598Y033046D01*
X012626Y033068D01*
X012655Y033086D01*
X012686Y033101D01*
X012719Y033113D01*
X012753Y033120D01*
X012788Y033124D01*
X012822Y033125D01*
X012857Y033121D01*
X012891Y033114D01*
X012924Y033103D01*
X012955Y033088D01*
X012985Y033070D01*
X013013Y033049D01*
X013038Y033025D01*
X013060Y032998D01*
X013080Y032970D01*
X013096Y032939D01*
X013108Y032906D01*
X013117Y032873D01*
X013123Y032838D01*
X013124Y032804D01*
X013122Y032769D01*
X013115Y032735D01*
X013106Y032702D01*
X013092Y032669D01*
X013075Y032639D01*
X013055Y032611D01*
X013032Y032585D01*
X013006Y032561D01*
X012985Y032592D01*
X013009Y032614D01*
X013030Y032639D01*
X013048Y032666D01*
X013063Y032695D01*
X013075Y032725D01*
X013082Y032757D01*
X013086Y032790D01*
X013087Y032822D01*
X013083Y032855D01*
X013076Y032886D01*
X013065Y032917D01*
X013050Y032947D01*
X013033Y032974D01*
X013012Y032999D01*
X012988Y033022D01*
X012962Y033041D01*
X012934Y033058D01*
X012904Y033071D01*
X012873Y033080D01*
X012840Y033086D01*
X012808Y033088D01*
X012775Y033086D01*
X012743Y033081D01*
X012712Y033071D01*
X012682Y033058D01*
X012653Y033042D01*
X012627Y033023D01*
X012604Y033000D01*
X012582Y032975D01*
X012614Y032955D01*
X012634Y032978D01*
X012656Y032998D01*
X012681Y033016D01*
X012708Y033030D01*
X012736Y033040D01*
X012765Y033047D01*
X012795Y033051D01*
X012826Y033050D01*
X012856Y033046D01*
X012885Y033038D01*
X012913Y033027D01*
X012939Y033012D01*
X012963Y032994D01*
X012985Y032973D01*
X013004Y032950D01*
X013021Y032924D01*
X013033Y032897D01*
X013043Y032868D01*
X013048Y032838D01*
X013050Y032808D01*
X013048Y032778D01*
X013042Y032748D01*
X013033Y032719D01*
X013020Y032692D01*
X013004Y032666D01*
X012985Y032643D01*
X012963Y032622D01*
X012942Y032652D01*
X012961Y032672D01*
X012978Y032693D01*
X012992Y032717D01*
X013002Y032742D01*
X013009Y032769D01*
X013013Y032796D01*
X013012Y032824D01*
X013009Y032851D01*
X013001Y032877D01*
X012990Y032902D01*
X012976Y032926D01*
X012959Y032947D01*
X012939Y032966D01*
X012917Y032982D01*
X012893Y032995D01*
X012867Y033005D01*
X012840Y033011D01*
X012813Y033014D01*
X012785Y033013D01*
X012758Y033008D01*
X012732Y033000D01*
X012707Y032988D01*
X012684Y032973D01*
X012663Y032956D01*
X012645Y032935D01*
X012676Y032915D01*
X012694Y032934D01*
X012714Y032949D01*
X012736Y032961D01*
X012759Y032970D01*
X012784Y032975D01*
X012809Y032977D01*
X012834Y032975D01*
X012859Y032969D01*
X012882Y032959D01*
X012904Y032946D01*
X012924Y032930D01*
X012941Y032912D01*
X012954Y032891D01*
X012965Y032868D01*
X012972Y032843D01*
X012976Y032818D01*
X012975Y032793D01*
X012971Y032768D01*
X012963Y032744D01*
X012952Y032722D01*
X012938Y032701D01*
X012920Y032683D01*
X012899Y032713D01*
X012913Y032730D01*
X012925Y032749D01*
X012933Y032770D01*
X012938Y032792D01*
X012939Y032814D01*
X012936Y032836D01*
X012929Y032858D01*
X012919Y032878D01*
X012906Y032895D01*
X012890Y032911D01*
X012871Y032923D01*
X012851Y032933D01*
X012829Y032938D01*
X012807Y032940D01*
X012784Y032938D01*
X012763Y032932D01*
X012742Y032923D01*
X012724Y032911D01*
X012708Y032895D01*
X012739Y032875D01*
X012754Y032887D01*
X012770Y032895D01*
X012787Y032901D01*
X012806Y032903D01*
X012824Y032901D01*
X012842Y032896D01*
X012858Y032888D01*
X012873Y032877D01*
X012885Y032863D01*
X012894Y032847D01*
X012900Y032829D01*
X012902Y032811D01*
X012901Y032793D01*
X012896Y032775D01*
X012888Y032758D01*
X012877Y032744D01*
X012855Y032775D01*
X012861Y032787D01*
X012864Y032800D01*
X012865Y032814D01*
X012862Y032827D01*
X012856Y032839D01*
X012847Y032850D01*
X012836Y032858D01*
X012824Y032864D01*
X012810Y032866D01*
X012796Y032865D01*
X012783Y032861D01*
X012772Y032854D01*
X020239Y030620D02*
X020546Y030620D01*
X020393Y030620D02*
X020393Y030160D01*
X020700Y030160D02*
X021007Y030160D01*
X020853Y030160D02*
X020853Y030620D01*
X020700Y030467D01*
M02*
