G75*
G70*
%OFA0B0*%
%FSLAX24Y24*%
%IPPOS*%
%LPD*%
%AMOC8*
5,1,8,0,0,1.08239X$1,22.5*
%
%ADD10C,0.0080*%
%ADD11C,0.0000*%
D10*
X000140Y000140D02*
X000140Y039510D01*
X052132Y039510D01*
X052132Y000140D01*
X000140Y000140D01*
D11*
X001540Y002140D02*
X001542Y002189D01*
X001548Y002237D01*
X001558Y002285D01*
X001572Y002332D01*
X001589Y002378D01*
X001610Y002422D01*
X001635Y002464D01*
X001663Y002504D01*
X001695Y002542D01*
X001729Y002577D01*
X001766Y002609D01*
X001805Y002638D01*
X001847Y002664D01*
X001891Y002686D01*
X001936Y002704D01*
X001983Y002719D01*
X002030Y002730D01*
X002079Y002737D01*
X002128Y002740D01*
X002177Y002739D01*
X002225Y002734D01*
X002274Y002725D01*
X002321Y002712D01*
X002367Y002695D01*
X002411Y002675D01*
X002454Y002651D01*
X002495Y002624D01*
X002533Y002593D01*
X002569Y002560D01*
X002601Y002524D01*
X002631Y002485D01*
X002658Y002444D01*
X002681Y002400D01*
X002700Y002355D01*
X002716Y002309D01*
X002728Y002262D01*
X002736Y002213D01*
X002740Y002164D01*
X002740Y002116D01*
X002736Y002067D01*
X002728Y002018D01*
X002716Y001971D01*
X002700Y001925D01*
X002681Y001880D01*
X002658Y001836D01*
X002631Y001795D01*
X002601Y001756D01*
X002569Y001720D01*
X002533Y001687D01*
X002495Y001656D01*
X002454Y001629D01*
X002411Y001605D01*
X002367Y001585D01*
X002321Y001568D01*
X002274Y001555D01*
X002225Y001546D01*
X002177Y001541D01*
X002128Y001540D01*
X002079Y001543D01*
X002030Y001550D01*
X001983Y001561D01*
X001936Y001576D01*
X001891Y001594D01*
X001847Y001616D01*
X001805Y001642D01*
X001766Y001671D01*
X001729Y001703D01*
X001695Y001738D01*
X001663Y001776D01*
X001635Y001816D01*
X001610Y001858D01*
X001589Y001902D01*
X001572Y001948D01*
X001558Y001995D01*
X001548Y002043D01*
X001542Y002091D01*
X001540Y002140D01*
X001540Y037640D02*
X001542Y037689D01*
X001548Y037737D01*
X001558Y037785D01*
X001572Y037832D01*
X001589Y037878D01*
X001610Y037922D01*
X001635Y037964D01*
X001663Y038004D01*
X001695Y038042D01*
X001729Y038077D01*
X001766Y038109D01*
X001805Y038138D01*
X001847Y038164D01*
X001891Y038186D01*
X001936Y038204D01*
X001983Y038219D01*
X002030Y038230D01*
X002079Y038237D01*
X002128Y038240D01*
X002177Y038239D01*
X002225Y038234D01*
X002274Y038225D01*
X002321Y038212D01*
X002367Y038195D01*
X002411Y038175D01*
X002454Y038151D01*
X002495Y038124D01*
X002533Y038093D01*
X002569Y038060D01*
X002601Y038024D01*
X002631Y037985D01*
X002658Y037944D01*
X002681Y037900D01*
X002700Y037855D01*
X002716Y037809D01*
X002728Y037762D01*
X002736Y037713D01*
X002740Y037664D01*
X002740Y037616D01*
X002736Y037567D01*
X002728Y037518D01*
X002716Y037471D01*
X002700Y037425D01*
X002681Y037380D01*
X002658Y037336D01*
X002631Y037295D01*
X002601Y037256D01*
X002569Y037220D01*
X002533Y037187D01*
X002495Y037156D01*
X002454Y037129D01*
X002411Y037105D01*
X002367Y037085D01*
X002321Y037068D01*
X002274Y037055D01*
X002225Y037046D01*
X002177Y037041D01*
X002128Y037040D01*
X002079Y037043D01*
X002030Y037050D01*
X001983Y037061D01*
X001936Y037076D01*
X001891Y037094D01*
X001847Y037116D01*
X001805Y037142D01*
X001766Y037171D01*
X001729Y037203D01*
X001695Y037238D01*
X001663Y037276D01*
X001635Y037316D01*
X001610Y037358D01*
X001589Y037402D01*
X001572Y037448D01*
X001558Y037495D01*
X001548Y037543D01*
X001542Y037591D01*
X001540Y037640D01*
X049540Y037640D02*
X049542Y037689D01*
X049548Y037737D01*
X049558Y037785D01*
X049572Y037832D01*
X049589Y037878D01*
X049610Y037922D01*
X049635Y037964D01*
X049663Y038004D01*
X049695Y038042D01*
X049729Y038077D01*
X049766Y038109D01*
X049805Y038138D01*
X049847Y038164D01*
X049891Y038186D01*
X049936Y038204D01*
X049983Y038219D01*
X050030Y038230D01*
X050079Y038237D01*
X050128Y038240D01*
X050177Y038239D01*
X050225Y038234D01*
X050274Y038225D01*
X050321Y038212D01*
X050367Y038195D01*
X050411Y038175D01*
X050454Y038151D01*
X050495Y038124D01*
X050533Y038093D01*
X050569Y038060D01*
X050601Y038024D01*
X050631Y037985D01*
X050658Y037944D01*
X050681Y037900D01*
X050700Y037855D01*
X050716Y037809D01*
X050728Y037762D01*
X050736Y037713D01*
X050740Y037664D01*
X050740Y037616D01*
X050736Y037567D01*
X050728Y037518D01*
X050716Y037471D01*
X050700Y037425D01*
X050681Y037380D01*
X050658Y037336D01*
X050631Y037295D01*
X050601Y037256D01*
X050569Y037220D01*
X050533Y037187D01*
X050495Y037156D01*
X050454Y037129D01*
X050411Y037105D01*
X050367Y037085D01*
X050321Y037068D01*
X050274Y037055D01*
X050225Y037046D01*
X050177Y037041D01*
X050128Y037040D01*
X050079Y037043D01*
X050030Y037050D01*
X049983Y037061D01*
X049936Y037076D01*
X049891Y037094D01*
X049847Y037116D01*
X049805Y037142D01*
X049766Y037171D01*
X049729Y037203D01*
X049695Y037238D01*
X049663Y037276D01*
X049635Y037316D01*
X049610Y037358D01*
X049589Y037402D01*
X049572Y037448D01*
X049558Y037495D01*
X049548Y037543D01*
X049542Y037591D01*
X049540Y037640D01*
X049540Y002140D02*
X049542Y002189D01*
X049548Y002237D01*
X049558Y002285D01*
X049572Y002332D01*
X049589Y002378D01*
X049610Y002422D01*
X049635Y002464D01*
X049663Y002504D01*
X049695Y002542D01*
X049729Y002577D01*
X049766Y002609D01*
X049805Y002638D01*
X049847Y002664D01*
X049891Y002686D01*
X049936Y002704D01*
X049983Y002719D01*
X050030Y002730D01*
X050079Y002737D01*
X050128Y002740D01*
X050177Y002739D01*
X050225Y002734D01*
X050274Y002725D01*
X050321Y002712D01*
X050367Y002695D01*
X050411Y002675D01*
X050454Y002651D01*
X050495Y002624D01*
X050533Y002593D01*
X050569Y002560D01*
X050601Y002524D01*
X050631Y002485D01*
X050658Y002444D01*
X050681Y002400D01*
X050700Y002355D01*
X050716Y002309D01*
X050728Y002262D01*
X050736Y002213D01*
X050740Y002164D01*
X050740Y002116D01*
X050736Y002067D01*
X050728Y002018D01*
X050716Y001971D01*
X050700Y001925D01*
X050681Y001880D01*
X050658Y001836D01*
X050631Y001795D01*
X050601Y001756D01*
X050569Y001720D01*
X050533Y001687D01*
X050495Y001656D01*
X050454Y001629D01*
X050411Y001605D01*
X050367Y001585D01*
X050321Y001568D01*
X050274Y001555D01*
X050225Y001546D01*
X050177Y001541D01*
X050128Y001540D01*
X050079Y001543D01*
X050030Y001550D01*
X049983Y001561D01*
X049936Y001576D01*
X049891Y001594D01*
X049847Y001616D01*
X049805Y001642D01*
X049766Y001671D01*
X049729Y001703D01*
X049695Y001738D01*
X049663Y001776D01*
X049635Y001816D01*
X049610Y001858D01*
X049589Y001902D01*
X049572Y001948D01*
X049558Y001995D01*
X049548Y002043D01*
X049542Y002091D01*
X049540Y002140D01*
M02*
