G75*
G70*
%OFA0B0*%
%FSLAX24Y24*%
%IPPOS*%
%LPD*%
%AMOC8*
5,1,8,0,0,1.08239X$1,22.5*
%
%ADD10C,0.1280*%
%ADD11OC8,0.0600*%
%ADD12C,0.0680*%
%ADD13C,0.0400*%
%ADD14C,0.0820*%
%ADD15OC8,0.0740*%
%ADD16R,0.0670X0.0670*%
%ADD17C,0.0670*%
%ADD18C,0.0600*%
%ADD19OC8,0.0680*%
%ADD20C,0.2080*%
%ADD21R,0.0220X0.0860*%
%ADD22C,0.1080*%
%ADD23OC8,0.1080*%
%ADD24OC8,0.0710*%
%ADD25C,0.0710*%
%ADD26OC8,0.0640*%
%ADD27C,0.0634*%
%ADD28R,0.0749X0.0710*%
%ADD29OC8,0.0820*%
%ADD30OC8,0.0700*%
%ADD31C,0.0700*%
%ADD32R,0.0220X0.0540*%
%ADD33R,0.0190X0.0630*%
%ADD34R,0.0820X0.0740*%
%ADD35R,0.2245X0.1596*%
%ADD36C,0.0440*%
%ADD37C,0.0480*%
D10*
X002140Y002140D03*
X002140Y037640D03*
X050140Y037640D03*
X050140Y002140D03*
D11*
X047640Y010640D03*
X045640Y010640D03*
X032140Y007640D03*
X030140Y007640D03*
X028140Y004640D03*
X026140Y004640D03*
X021140Y007140D03*
X019140Y007140D03*
X012140Y008640D03*
X010140Y008640D03*
X027640Y017140D03*
X029640Y017140D03*
X022140Y029640D03*
X022140Y031640D03*
X017640Y031640D03*
X017640Y029640D03*
X011140Y034640D03*
X009140Y034640D03*
X007640Y030640D03*
X005640Y030640D03*
D12*
X004440Y030640D02*
X003840Y030640D01*
X003840Y029640D02*
X004440Y029640D01*
X004440Y028640D02*
X003840Y028640D01*
X002440Y028640D02*
X001840Y028640D01*
X001840Y029640D02*
X002440Y029640D01*
X002440Y030640D02*
X001840Y030640D01*
X001840Y033140D02*
X002440Y033140D01*
X002440Y034140D02*
X001840Y034140D01*
X005140Y036340D02*
X005140Y036940D01*
X006140Y036940D02*
X006140Y036340D01*
X008640Y036340D02*
X008640Y036940D01*
X009640Y036940D02*
X009640Y036340D01*
X012140Y036340D02*
X012140Y036940D01*
X013140Y036940D02*
X013140Y036340D01*
X032640Y035940D02*
X032640Y035340D01*
X033640Y035340D02*
X033640Y035940D01*
X034640Y035940D02*
X034640Y035340D01*
X034640Y032940D02*
X034640Y032340D01*
X033640Y032340D02*
X033640Y032940D01*
X038640Y035340D02*
X038640Y035940D01*
X039640Y035940D02*
X039640Y035340D01*
X040640Y035340D02*
X040640Y035940D01*
X042640Y035940D02*
X042640Y035340D01*
X043640Y035340D02*
X043640Y035940D01*
X044640Y035940D02*
X044640Y035340D01*
X017220Y008530D02*
X016620Y008530D01*
X016620Y006750D02*
X017220Y006750D01*
X014660Y006750D02*
X014060Y006750D01*
X014060Y008530D02*
X014660Y008530D01*
D13*
X034140Y008140D03*
X035140Y008140D03*
D14*
X036640Y002640D03*
X032640Y002640D03*
X024140Y005140D03*
X020140Y005140D03*
X017640Y005140D03*
X013640Y005140D03*
X008140Y005140D03*
X004140Y005140D03*
X013640Y011140D03*
X013640Y013140D03*
X013640Y015140D03*
X013640Y017140D03*
X011640Y020140D03*
X011640Y021640D03*
X007640Y021640D03*
X006140Y021640D03*
X006140Y020140D03*
X007640Y020140D03*
X005140Y023640D03*
X002140Y023640D03*
X002140Y021640D03*
X002140Y020140D03*
X009640Y025890D03*
X009140Y026640D03*
X010140Y026640D03*
X013140Y025640D03*
X016140Y025640D03*
X017640Y025640D03*
X020640Y025640D03*
X022140Y025640D03*
X022140Y027640D03*
X023140Y029140D03*
X023140Y030640D03*
X026140Y030640D03*
X026140Y029140D03*
X026140Y027640D03*
X026140Y025640D03*
X030140Y023640D03*
X030140Y021640D03*
X030140Y019640D03*
X026640Y019640D03*
X026640Y021140D03*
X022640Y021140D03*
X022640Y019640D03*
X020390Y020640D03*
X019640Y020140D03*
X019640Y021140D03*
X017640Y017140D03*
X017640Y015140D03*
X017640Y013140D03*
X017640Y011140D03*
X019140Y001640D03*
X020140Y001640D03*
X021140Y001640D03*
X022140Y001640D03*
X023140Y001640D03*
X034140Y017140D03*
X034140Y019640D03*
X034140Y021640D03*
X034140Y023640D03*
X034640Y026640D03*
X032640Y026640D03*
X030640Y026640D03*
X030640Y029640D03*
X032640Y030640D03*
X034640Y030640D03*
X030640Y032640D03*
X030640Y035640D03*
X029640Y037640D03*
X025640Y037640D03*
X016140Y032640D03*
X014640Y032640D03*
X014640Y028640D03*
X016140Y028640D03*
X038140Y017140D03*
D15*
X036140Y005640D03*
X036140Y004640D03*
X033140Y004640D03*
X033140Y005640D03*
X019140Y003140D03*
X018140Y003140D03*
D16*
X020140Y009140D03*
X027640Y003140D03*
D17*
X026640Y003140D03*
X027140Y002140D03*
X027140Y009140D03*
X028140Y009140D03*
X029140Y009140D03*
X030140Y009140D03*
X031140Y009140D03*
X032140Y009140D03*
X033140Y009140D03*
X034140Y009140D03*
X035140Y009140D03*
X036140Y009140D03*
X037140Y009140D03*
X038140Y009140D03*
X039140Y009140D03*
X039140Y015140D03*
X038140Y015140D03*
X037140Y015140D03*
X036140Y015140D03*
X035140Y015140D03*
X034140Y015140D03*
X033140Y015140D03*
X032140Y015140D03*
X031140Y015140D03*
X030140Y015140D03*
X029140Y015140D03*
X028140Y015140D03*
X027140Y015140D03*
X026140Y015140D03*
X025140Y015140D03*
X024140Y015140D03*
X023140Y015140D03*
X022140Y015140D03*
X021140Y015140D03*
X020140Y015140D03*
X021140Y009140D03*
X022140Y009140D03*
X023140Y009140D03*
X024140Y009140D03*
X025140Y009140D03*
X026140Y009140D03*
D18*
X044880Y013140D02*
X045400Y013140D01*
X045400Y014140D02*
X044880Y014140D01*
X044880Y015140D02*
X045400Y015140D01*
X045400Y016140D02*
X044880Y016140D01*
X044880Y017140D02*
X045400Y017140D01*
X045400Y018140D02*
X044880Y018140D01*
X044880Y019140D02*
X045400Y019140D01*
X045400Y020140D02*
X044880Y020140D01*
X047880Y020140D02*
X048400Y020140D01*
X048400Y019140D02*
X047880Y019140D01*
X047880Y018140D02*
X048400Y018140D01*
X048400Y017140D02*
X047880Y017140D01*
X047880Y016140D02*
X048400Y016140D01*
X048400Y015140D02*
X047880Y015140D01*
X047880Y014140D02*
X048400Y014140D01*
X048400Y013140D02*
X047880Y013140D01*
D19*
X047640Y026980D03*
X048640Y027520D03*
X047640Y028060D03*
X048640Y028600D03*
X047640Y029140D03*
X048640Y029680D03*
X047640Y030220D03*
X048640Y030760D03*
X047640Y031300D03*
D20*
X048140Y034070D03*
X048140Y024210D03*
D21*
X024020Y035170D03*
X023760Y035170D03*
X023520Y035170D03*
X023260Y035170D03*
X023020Y035170D03*
X022760Y035170D03*
X022520Y035170D03*
X022260Y035170D03*
X022260Y037110D03*
X022520Y037110D03*
X022760Y037110D03*
X023020Y037110D03*
X023260Y037110D03*
X023520Y037110D03*
X023760Y037110D03*
X024020Y037110D03*
D22*
X019640Y036640D03*
X015640Y022640D03*
X041140Y026640D03*
D23*
X041140Y024640D03*
X017640Y036640D03*
X015640Y020640D03*
D24*
X028140Y029140D03*
X043140Y019640D03*
X043140Y017140D03*
X043140Y014640D03*
X050140Y014640D03*
X010640Y005140D03*
D25*
X011640Y005140D03*
X029140Y029140D03*
X043140Y018640D03*
X043140Y016140D03*
X043140Y013640D03*
X050140Y013640D03*
D26*
X005640Y027140D03*
X005640Y028140D03*
D27*
X023240Y032140D03*
X023240Y033140D03*
X026040Y033140D03*
X026040Y032140D03*
D28*
G36*
X020125Y031627D02*
X020653Y032155D01*
X021155Y031653D01*
X020627Y031125D01*
X020125Y031627D01*
G37*
G36*
X019275Y031125D02*
X018747Y031653D01*
X019249Y032155D01*
X019777Y031627D01*
X019275Y031125D01*
G37*
G36*
X018747Y033005D02*
X019275Y033533D01*
X019777Y033031D01*
X019249Y032503D01*
X018747Y033005D01*
G37*
G36*
X020653Y032503D02*
X020125Y033031D01*
X020627Y033533D01*
X021155Y033005D01*
X020653Y032503D01*
G37*
D29*
X011140Y016140D03*
X011140Y015140D03*
X011140Y014140D03*
X011140Y013140D03*
X010140Y013140D03*
X010140Y014140D03*
X010140Y015140D03*
X010140Y016140D03*
D30*
X028140Y026140D03*
D31*
X029140Y026140D03*
D32*
X028900Y031270D03*
X028640Y031270D03*
X028380Y031270D03*
X028380Y032010D03*
X028640Y032010D03*
X028900Y032010D03*
D33*
X007030Y032280D03*
X006840Y032280D03*
X006640Y032280D03*
X006440Y032280D03*
X006250Y032280D03*
X006250Y034000D03*
X006440Y034000D03*
X006640Y034000D03*
X006840Y034000D03*
X007030Y034000D03*
D34*
X006640Y033140D03*
D35*
X011140Y033099D03*
X011140Y029181D03*
D36*
X008140Y033640D03*
X006140Y034640D03*
X006640Y035640D03*
X007140Y036640D03*
X005140Y032640D03*
X004640Y032640D03*
X022140Y032640D03*
X025140Y036140D03*
X029140Y033640D03*
X029640Y031640D03*
X030140Y025140D03*
D37*
X032140Y014140D03*
X016060Y011980D03*
M02*
