G75*
G70*
%OFA0B0*%
%FSLAX24Y24*%
%IPPOS*%
%LPD*%
%AMOC8*
5,1,8,0,0,1.08239X$1,22.5*
%
%ADD10C,0.0110*%
%ADD11OC8,0.0520*%
%ADD12C,0.0600*%
%ADD13C,0.0660*%
%ADD14C,0.0740*%
%ADD15OC8,0.0660*%
%ADD16R,0.0590X0.0590*%
%ADD17C,0.0590*%
%ADD18C,0.0520*%
%ADD19OC8,0.0600*%
%ADD20C,0.2000*%
%ADD21C,0.1000*%
%ADD22OC8,0.1000*%
%ADD23OC8,0.0630*%
%ADD24C,0.0630*%
%ADD25OC8,0.0560*%
%ADD26C,0.0554*%
%ADD27OC8,0.0740*%
%ADD28OC8,0.0620*%
%ADD29C,0.0620*%
%ADD30C,0.0100*%
%ADD31C,0.0150*%
%ADD32C,0.0360*%
%ADD33C,0.0400*%
D10*
X037379Y001293D02*
X037477Y001195D01*
X037674Y001195D01*
X037772Y001293D01*
X038023Y001195D02*
X038417Y001195D01*
X038220Y001195D02*
X038220Y001786D01*
X038417Y001589D01*
X038668Y001687D02*
X039061Y001293D01*
X038963Y001195D01*
X038766Y001195D01*
X038668Y001293D01*
X038668Y001687D01*
X038766Y001786D01*
X038963Y001786D01*
X039061Y001687D01*
X039061Y001293D01*
X039312Y001195D02*
X039706Y001195D01*
X039312Y001589D01*
X039312Y001687D01*
X039411Y001786D01*
X039607Y001786D01*
X039706Y001687D01*
X040601Y001490D02*
X040601Y001392D01*
X040995Y001392D01*
X040995Y001490D02*
X040995Y001293D01*
X040897Y001195D01*
X040700Y001195D01*
X040601Y001490D02*
X040700Y001589D01*
X040897Y001589D01*
X040995Y001490D01*
X041246Y001490D02*
X041246Y001195D01*
X041246Y001490D02*
X041344Y001589D01*
X041640Y001589D01*
X041640Y001195D01*
X041890Y001195D02*
X041890Y001589D01*
X041890Y001195D02*
X042186Y001195D01*
X042284Y001293D01*
X042284Y001589D01*
X042535Y001786D02*
X042732Y001786D01*
X042633Y001786D02*
X042633Y001293D01*
X042732Y001195D01*
X042830Y001195D01*
X042929Y001293D01*
X043824Y001490D02*
X044218Y001490D01*
X045113Y001293D02*
X045212Y001195D01*
X045408Y001195D01*
X045507Y001293D01*
X045113Y001687D01*
X045113Y001293D01*
X045507Y001293D02*
X045507Y001687D01*
X045408Y001786D01*
X045212Y001786D01*
X045113Y001687D01*
X046402Y001786D02*
X046402Y001392D01*
X046599Y001195D01*
X046796Y001392D01*
X046796Y001786D01*
X047047Y001786D02*
X047440Y001786D01*
X047440Y001195D01*
X047047Y001195D01*
X047244Y001490D02*
X047440Y001490D01*
X047691Y001490D02*
X047790Y001392D01*
X048085Y001392D01*
X047888Y001392D02*
X047691Y001195D01*
X047691Y001490D02*
X047691Y001687D01*
X047790Y001786D01*
X048085Y001786D01*
X048085Y001195D01*
X037772Y001687D02*
X037674Y001786D01*
X037477Y001786D01*
X037379Y001687D01*
X037379Y001589D01*
X037477Y001490D01*
X037379Y001392D01*
X037379Y001293D01*
X037477Y001490D02*
X037575Y001490D01*
D11*
X032140Y007640D03*
X030140Y007640D03*
X028140Y004640D03*
X026140Y004640D03*
X021140Y007140D03*
X019140Y007140D03*
X012140Y008640D03*
X010140Y008640D03*
X027640Y017140D03*
X029640Y017140D03*
X022140Y029640D03*
X022140Y031640D03*
X017640Y031640D03*
X017640Y029640D03*
X011140Y034640D03*
X009140Y034640D03*
X007640Y030640D03*
X005640Y030640D03*
X045640Y010640D03*
X047640Y010640D03*
D12*
X034640Y032340D02*
X034640Y032940D01*
X033640Y032940D02*
X033640Y032340D01*
X033640Y035340D02*
X033640Y035940D01*
X032640Y035940D02*
X032640Y035340D01*
X034640Y035340D02*
X034640Y035940D01*
X038640Y035940D02*
X038640Y035340D01*
X039640Y035340D02*
X039640Y035940D01*
X040640Y035940D02*
X040640Y035340D01*
X042640Y035340D02*
X042640Y035940D01*
X043640Y035940D02*
X043640Y035340D01*
X044640Y035340D02*
X044640Y035940D01*
X013140Y036340D02*
X013140Y036940D01*
X012140Y036940D02*
X012140Y036340D01*
X009640Y036340D02*
X009640Y036940D01*
X008640Y036940D02*
X008640Y036340D01*
X006140Y036340D02*
X006140Y036940D01*
X005140Y036940D02*
X005140Y036340D01*
X002440Y034140D02*
X001840Y034140D01*
X001840Y033140D02*
X002440Y033140D01*
X002440Y030640D02*
X001840Y030640D01*
X001840Y029640D02*
X002440Y029640D01*
X002440Y028640D02*
X001840Y028640D01*
X003840Y028640D02*
X004440Y028640D01*
X004440Y029640D02*
X003840Y029640D01*
X003840Y030640D02*
X004440Y030640D01*
X014060Y008530D02*
X014660Y008530D01*
X014660Y006750D02*
X014060Y006750D01*
X016620Y006750D02*
X017220Y006750D01*
X017220Y008530D02*
X016620Y008530D01*
D13*
X034140Y008140D03*
X035140Y008140D03*
D14*
X004140Y005140D03*
X008140Y005140D03*
X013640Y005140D03*
X017640Y005140D03*
X020140Y005140D03*
X024140Y005140D03*
X023140Y001640D03*
X022140Y001640D03*
X021140Y001640D03*
X020140Y001640D03*
X019140Y001640D03*
X017640Y011140D03*
X017640Y013140D03*
X017640Y015140D03*
X017640Y017140D03*
X019640Y020140D03*
X020390Y020640D03*
X019640Y021140D03*
X022640Y021140D03*
X022640Y019640D03*
X026640Y019640D03*
X026640Y021140D03*
X030140Y021640D03*
X030140Y019640D03*
X034140Y019640D03*
X034140Y021640D03*
X034140Y023640D03*
X034640Y026640D03*
X032640Y026640D03*
X030640Y026640D03*
X030640Y029640D03*
X032640Y030640D03*
X034640Y030640D03*
X030640Y032640D03*
X030640Y035640D03*
X029640Y037640D03*
X025640Y037640D03*
X026140Y030640D03*
X026140Y029140D03*
X026140Y027640D03*
X026140Y025640D03*
X022140Y025640D03*
X020640Y025640D03*
X022140Y027640D03*
X023140Y029140D03*
X023140Y030640D03*
X017640Y025640D03*
X016140Y025640D03*
X016140Y028640D03*
X014640Y028640D03*
X013140Y025640D03*
X010140Y026640D03*
X009640Y025890D03*
X009140Y026640D03*
X005140Y023640D03*
X006140Y021640D03*
X007640Y021640D03*
X007640Y020140D03*
X006140Y020140D03*
X002140Y020140D03*
X002140Y021640D03*
X002140Y023640D03*
X011640Y021640D03*
X011640Y020140D03*
X013640Y017140D03*
X013640Y015140D03*
X013640Y013140D03*
X013640Y011140D03*
X030140Y023640D03*
X034140Y017140D03*
X038140Y017140D03*
X036640Y002640D03*
X032640Y002640D03*
X016140Y032640D03*
X014640Y032640D03*
D15*
X033140Y005640D03*
X033140Y004640D03*
X036140Y004640D03*
X036140Y005640D03*
X019140Y003140D03*
X018140Y003140D03*
D16*
X020140Y009140D03*
X027640Y003140D03*
D17*
X026640Y003140D03*
X027140Y002140D03*
X027140Y009140D03*
X028140Y009140D03*
X029140Y009140D03*
X030140Y009140D03*
X031140Y009140D03*
X032140Y009140D03*
X033140Y009140D03*
X034140Y009140D03*
X035140Y009140D03*
X036140Y009140D03*
X037140Y009140D03*
X038140Y009140D03*
X039140Y009140D03*
X039140Y015140D03*
X038140Y015140D03*
X037140Y015140D03*
X036140Y015140D03*
X035140Y015140D03*
X034140Y015140D03*
X033140Y015140D03*
X032140Y015140D03*
X031140Y015140D03*
X030140Y015140D03*
X029140Y015140D03*
X028140Y015140D03*
X027140Y015140D03*
X026140Y015140D03*
X025140Y015140D03*
X024140Y015140D03*
X023140Y015140D03*
X022140Y015140D03*
X021140Y015140D03*
X020140Y015140D03*
X021140Y009140D03*
X022140Y009140D03*
X023140Y009140D03*
X024140Y009140D03*
X025140Y009140D03*
X026140Y009140D03*
D18*
X044880Y013140D02*
X045400Y013140D01*
X045400Y014140D02*
X044880Y014140D01*
X044880Y015140D02*
X045400Y015140D01*
X045400Y016140D02*
X044880Y016140D01*
X044880Y017140D02*
X045400Y017140D01*
X045400Y018140D02*
X044880Y018140D01*
X044880Y019140D02*
X045400Y019140D01*
X045400Y020140D02*
X044880Y020140D01*
X047880Y020140D02*
X048400Y020140D01*
X048400Y019140D02*
X047880Y019140D01*
X047880Y018140D02*
X048400Y018140D01*
X048400Y017140D02*
X047880Y017140D01*
X047880Y016140D02*
X048400Y016140D01*
X048400Y015140D02*
X047880Y015140D01*
X047880Y014140D02*
X048400Y014140D01*
X048400Y013140D02*
X047880Y013140D01*
D19*
X047640Y026980D03*
X048640Y027520D03*
X047640Y028060D03*
X048640Y028600D03*
X047640Y029140D03*
X048640Y029680D03*
X047640Y030220D03*
X048640Y030760D03*
X047640Y031300D03*
D20*
X048140Y034070D03*
X048140Y024210D03*
D21*
X041140Y026640D03*
X019640Y036640D03*
X015640Y022640D03*
D22*
X015640Y020640D03*
X017640Y036640D03*
X041140Y024640D03*
D23*
X043140Y019640D03*
X043140Y017140D03*
X043140Y014640D03*
X050140Y014640D03*
X028140Y029140D03*
X010640Y005140D03*
D24*
X011640Y005140D03*
X029140Y029140D03*
X043140Y018640D03*
X043140Y016140D03*
X043140Y013640D03*
X050140Y013640D03*
D25*
X005640Y027140D03*
X005640Y028140D03*
D26*
X023240Y032140D03*
X023240Y033140D03*
X026040Y033140D03*
X026040Y032140D03*
D27*
X011140Y016140D03*
X011140Y015140D03*
X011140Y014140D03*
X011140Y013140D03*
X010140Y013140D03*
X010140Y014140D03*
X010140Y015140D03*
X010140Y016140D03*
D28*
X028140Y026140D03*
D29*
X029140Y026140D03*
D30*
X029100Y026140D01*
X028620Y025660D01*
X026140Y025660D01*
X026140Y025640D01*
X028140Y026140D02*
X030140Y028140D01*
X034140Y028140D01*
X034640Y028640D01*
X034640Y030640D01*
X032640Y030640D02*
X032640Y032700D01*
X031180Y032700D01*
X030640Y032640D01*
X031140Y031640D02*
X029640Y031640D01*
X031140Y031640D02*
X031640Y031140D01*
X031640Y030140D01*
X031140Y029640D01*
X030640Y029640D01*
X030140Y029640D01*
X029640Y029140D01*
X029140Y029140D01*
X028140Y029100D02*
X028140Y029140D01*
X028140Y029100D02*
X027580Y029100D01*
X027580Y032540D01*
X027640Y032640D01*
X027640Y034140D01*
X028140Y034640D01*
X028640Y034640D01*
X029140Y034140D01*
X029140Y033640D01*
X030640Y035640D02*
X031180Y035660D01*
X031900Y036380D01*
X032460Y035820D01*
X032640Y035640D01*
X032460Y035820D02*
X032380Y035820D01*
X031900Y036380D02*
X031180Y037100D01*
X026140Y037100D01*
X025660Y037580D01*
X025660Y037620D01*
X024640Y038640D01*
X007640Y038640D01*
X007140Y038140D01*
X007140Y036640D01*
X006140Y036640D02*
X006140Y035640D01*
X005140Y034640D01*
X005140Y032640D01*
X004640Y032640D02*
X004640Y035140D01*
X005140Y035640D01*
X005140Y036640D01*
X006640Y035640D02*
X005640Y034640D01*
X005640Y032140D01*
X005140Y031640D01*
X005140Y029140D01*
X004640Y028640D01*
X004140Y028640D01*
X004140Y027640D01*
X004640Y027140D01*
X005640Y027140D01*
X004140Y030640D02*
X002140Y030640D01*
X001140Y030640D01*
X000640Y031140D01*
X000640Y033140D01*
X001640Y034140D01*
X002140Y034140D01*
X006140Y034640D02*
X007640Y034640D01*
X008140Y034140D01*
X008140Y033640D01*
X008640Y036140D02*
X008640Y036640D01*
X009420Y037420D01*
X011420Y037420D01*
X012140Y036700D01*
X012140Y036640D01*
X013140Y036640D02*
X013180Y036700D01*
X013820Y037340D01*
X018940Y037340D01*
X019640Y036640D01*
X019640Y034640D01*
X020140Y034140D01*
X021640Y034140D01*
X022140Y033640D01*
X022140Y032640D01*
X022640Y032640D02*
X022640Y033640D01*
X023140Y034140D01*
X024640Y034140D01*
X025140Y034640D01*
X025140Y036140D01*
X025660Y037580D02*
X025640Y037640D01*
X022640Y032640D02*
X023140Y032140D01*
X023240Y032140D01*
X023140Y032040D01*
X023140Y031640D01*
X022140Y030640D01*
X022140Y029640D01*
X023100Y029180D02*
X023140Y029140D01*
X023100Y029180D02*
X018060Y029180D01*
X018060Y029220D01*
X017640Y029640D01*
X016140Y032640D02*
X016140Y035140D01*
X015640Y035640D01*
X011640Y035640D01*
X010640Y036640D01*
X009640Y036640D01*
X011140Y034640D02*
X011180Y034620D01*
X011180Y027640D01*
X011140Y026640D02*
X010140Y026640D01*
X011140Y026640D02*
X011640Y026140D01*
X011640Y021640D01*
X011580Y021660D01*
X011500Y021660D01*
X011640Y021640D02*
X012620Y022620D01*
X015580Y022620D01*
X015640Y022640D01*
X015580Y020700D02*
X015640Y020640D01*
X015580Y020700D02*
X006700Y020700D01*
X006140Y020140D01*
X007640Y018140D02*
X008140Y017640D01*
X008140Y010140D01*
X008620Y009660D01*
X008640Y009640D01*
X026640Y009640D01*
X027140Y009140D01*
X028140Y009140D02*
X028140Y008640D01*
X027640Y008140D01*
X023640Y008140D01*
X023140Y007640D01*
X023140Y006640D01*
X022640Y006140D01*
X019640Y006140D01*
X018640Y005140D01*
X017640Y005140D01*
X016920Y006750D02*
X016940Y006780D01*
X018780Y006780D01*
X019140Y007140D01*
X019530Y008530D02*
X020140Y009140D01*
X019530Y008530D02*
X016920Y008530D01*
X014360Y006750D02*
X014300Y006700D01*
X013660Y006700D01*
X013660Y005180D01*
X013640Y005140D01*
X013660Y006700D02*
X012220Y006700D01*
X010700Y005180D01*
X010640Y005140D01*
X008620Y009660D02*
X004140Y005180D01*
X004140Y005140D01*
X009580Y012380D02*
X016860Y012380D01*
X017580Y013100D01*
X017640Y013140D01*
X017660Y013180D01*
X037180Y013180D01*
X039140Y015140D01*
X038140Y015180D02*
X038140Y015140D01*
X038140Y015180D02*
X034220Y019100D01*
X027180Y019100D01*
X026640Y019640D01*
X025660Y020140D02*
X025660Y018660D01*
X025640Y018640D01*
X026140Y018140D01*
X029140Y018140D01*
X029640Y017640D01*
X029640Y017140D01*
X032140Y014140D02*
X014640Y014140D01*
X013640Y015140D01*
X013580Y015180D01*
X011180Y015180D01*
X011140Y015140D01*
X011140Y016140D02*
X017420Y016140D01*
X018860Y014700D01*
X036700Y014700D01*
X037140Y015140D01*
X036140Y015180D02*
X036140Y015140D01*
X036140Y015180D02*
X034700Y016620D01*
X014140Y016620D01*
X013660Y017100D01*
X013640Y017140D01*
X013580Y017100D01*
X009580Y017100D01*
X009580Y015740D01*
X010140Y015180D01*
X010140Y015140D01*
X010140Y014140D02*
X009580Y013580D01*
X009580Y012380D01*
X010140Y013100D02*
X010140Y013140D01*
X010140Y013100D02*
X010620Y012620D01*
X013100Y012620D01*
X013580Y013100D01*
X013640Y013140D01*
X013640Y011140D02*
X013660Y011100D01*
X014140Y010620D01*
X034700Y010620D01*
X036140Y009180D01*
X036140Y009140D01*
X036300Y011980D02*
X039140Y009140D01*
X036300Y011980D02*
X016060Y011980D01*
X024140Y007140D02*
X024140Y005140D01*
X024140Y007140D02*
X024640Y007640D01*
X030140Y007640D01*
X030540Y008700D02*
X030140Y009100D01*
X030140Y009140D01*
X030540Y008700D02*
X043660Y008700D01*
X045580Y010620D01*
X045640Y010640D01*
X048140Y013140D02*
X048140Y013180D01*
X050140Y013580D02*
X050140Y013640D01*
X050140Y014640D02*
X050140Y014700D01*
X048140Y015100D02*
X048140Y015140D01*
X048140Y016140D02*
X047740Y016540D01*
X043580Y016540D01*
X043180Y016140D01*
X043140Y016140D01*
X041640Y017640D02*
X041640Y019640D01*
X041140Y020140D01*
X040220Y021660D02*
X040220Y021720D01*
X040190Y021690D02*
X040220Y021660D01*
X040190Y021690D02*
X040140Y021640D01*
X041140Y022640D02*
X041180Y022620D01*
X041180Y022680D01*
X041180Y024220D02*
X041140Y024640D01*
X041180Y024620D01*
X041140Y026640D02*
X041100Y026700D01*
X040620Y026700D01*
X034640Y026640D02*
X034640Y026140D01*
X034140Y025640D01*
X031640Y025640D01*
X031140Y026140D01*
X030140Y025140D01*
X031140Y026140D02*
X030640Y026640D01*
X027580Y029100D02*
X026140Y027660D01*
X026140Y027640D01*
X032640Y032700D02*
X033580Y032700D01*
X033640Y032640D01*
X034640Y032640D02*
X034700Y032620D01*
X035420Y034860D02*
X039900Y034860D01*
X040620Y035580D01*
X040640Y035640D01*
X040700Y035660D01*
X041420Y036380D01*
X043900Y036380D01*
X044640Y035640D01*
X048140Y034140D02*
X048140Y034070D01*
X048140Y024220D02*
X048140Y024210D01*
X047660Y018620D02*
X048140Y018140D01*
X047740Y017580D02*
X048140Y017180D01*
X048140Y017140D01*
X043180Y018620D02*
X043140Y018640D01*
X041140Y017140D02*
X041100Y017180D01*
X038140Y017180D02*
X038140Y017140D01*
X043140Y013640D02*
X043180Y013660D01*
X033100Y004700D02*
X033140Y004640D01*
X033100Y004700D02*
X032140Y004700D01*
X031020Y003580D01*
X027100Y003580D01*
X026700Y003180D01*
X026640Y003140D01*
X027640Y003140D02*
X027660Y003100D01*
X032220Y003100D01*
X032620Y002700D01*
X032640Y002640D01*
X032140Y004700D02*
X032140Y007640D01*
X019140Y003140D02*
X019140Y001640D01*
X007640Y018140D02*
X003140Y018140D01*
X002140Y019140D01*
X002140Y020140D01*
X011640Y020140D02*
X011660Y020140D01*
X011820Y019980D01*
X018460Y019980D01*
X019580Y021100D01*
X019640Y021140D01*
X020390Y020640D02*
X020460Y020700D01*
X020860Y021100D01*
X022620Y021100D01*
X022640Y021140D01*
X019640Y020140D02*
X025660Y020140D01*
X026620Y021100D01*
X026640Y021140D01*
X035420Y034860D02*
X034640Y035640D01*
D31*
X034700Y032620D02*
X040620Y026700D01*
X041180Y024620D02*
X041180Y024220D01*
X041180Y022680D01*
X041140Y022640D02*
X041140Y020140D01*
X041640Y019640D02*
X043140Y019640D01*
X043180Y018620D02*
X047660Y018620D01*
X047740Y017580D02*
X043580Y017580D01*
X043140Y017140D01*
X041640Y017640D02*
X041140Y017140D01*
X041140Y015140D01*
X041640Y014640D01*
X043140Y014640D01*
X043180Y013660D02*
X047660Y013660D01*
X048140Y014140D01*
X048540Y013580D02*
X050140Y013580D01*
X050140Y014700D02*
X048540Y014700D01*
X048140Y015100D01*
X048540Y013580D02*
X048140Y013180D01*
X041100Y017180D02*
X038140Y017180D01*
X040140Y021640D02*
X035640Y021640D01*
X034640Y022640D01*
X020140Y022640D01*
X019140Y023640D01*
X019140Y027140D01*
X018640Y027640D01*
X011180Y027640D01*
X007140Y027640D01*
X006640Y028140D01*
X005640Y028140D01*
X040220Y021720D02*
X041140Y022640D01*
X041180Y024220D02*
X048140Y024220D01*
X048140Y034140D02*
X046140Y034140D01*
X044640Y035640D01*
D32*
X030140Y025140D03*
X029640Y031640D03*
X029140Y033640D03*
X025140Y036140D03*
X022140Y032640D03*
X008140Y033640D03*
X006140Y034640D03*
X006640Y035640D03*
X007140Y036640D03*
X005140Y032640D03*
X004640Y032640D03*
D33*
X016060Y011980D03*
X032140Y014140D03*
M02*
